G04 #@! TF.GenerationSoftware,KiCad,Pcbnew,(5.1.0)-1*
G04 #@! TF.CreationDate,2019-05-21T18:44:38+09:00*
G04 #@! TF.ProjectId,sunmeishi,73756e6d-6569-4736-9869-2e6b69636164,rev?*
G04 #@! TF.SameCoordinates,Original*
G04 #@! TF.FileFunction,Soldermask,Bot*
G04 #@! TF.FilePolarity,Negative*
%FSLAX46Y46*%
G04 Gerber Fmt 4.6, Leading zero omitted, Abs format (unit mm)*
G04 Created by KiCad (PCBNEW (5.1.0)-1) date 2019-05-21 18:44:38*
%MOMM*%
%LPD*%
G04 APERTURE LIST*
%ADD10O,2.000000X2.600000*%
%ADD11R,1.550000X1.900000*%
%ADD12R,0.800000X1.900000*%
%ADD13R,1.600760X1.200100*%
%ADD14R,1.600000X1.200100*%
%ADD15C,2.600000*%
%ADD16R,1.543000X1.035000*%
%ADD17C,3.600400*%
%ADD18C,1.050000*%
%ADD19R,1.950000X1.400000*%
%ADD20C,1.924000*%
%ADD21C,2.200000*%
%ADD22C,2.400000*%
%ADD23C,1.000000*%
%ADD24R,1.797000X1.797000*%
%ADD25C,1.797000*%
%ADD26R,1.800000X1.800000*%
%ADD27C,1.800000*%
%ADD28R,1.035000X1.543000*%
%ADD29R,2.899360X1.400760*%
%ADD30R,1.100000X1.000000*%
%ADD31R,1.100000X1.400000*%
%ADD32C,0.960000*%
%ADD33R,1.750000X0.650000*%
%ADD34R,1.750000X0.850000*%
%ADD35R,3.400000X5.440000*%
%ADD36R,1.000000X1.100000*%
%ADD37R,1.800000X1.600000*%
G04 APERTURE END LIST*
D10*
X169900000Y-71600000D03*
X180100000Y-71600000D03*
X169900000Y-75300000D03*
D11*
X172675000Y-75600000D03*
X177325000Y-75600000D03*
D12*
X176300000Y-75600000D03*
X175000000Y-75600000D03*
D10*
X180100000Y-75300000D03*
D12*
X175650000Y-75600000D03*
X174350000Y-75600000D03*
X173700000Y-75600000D03*
D13*
X176598880Y-111800000D03*
D14*
X173801120Y-112749960D03*
D13*
X173801120Y-110850040D03*
D15*
X153000000Y-97600000D03*
X157800000Y-99400000D03*
X134000000Y-97600000D03*
X138800000Y-99400000D03*
X119800000Y-99400000D03*
X115000000Y-97600000D03*
X157800000Y-80400000D03*
X153000000Y-78600000D03*
X134000000Y-78600000D03*
X138800000Y-80400000D03*
X119800000Y-80400000D03*
X115000000Y-78600000D03*
D16*
X182600000Y-81362000D03*
X182600000Y-79838000D03*
D17*
X104000000Y-74000000D03*
D18*
X160600000Y-73350000D03*
D19*
X157975000Y-71150000D03*
X163225000Y-72850000D03*
X157975000Y-72850000D03*
X163225000Y-71150000D03*
D18*
X160600000Y-70650000D03*
D17*
X187000000Y-121000000D03*
X104000000Y-121000000D03*
X187000000Y-74000000D03*
D20*
X168000000Y-117000000D03*
X168000000Y-115000000D03*
X168000000Y-113000000D03*
X168000000Y-111000000D03*
X168000000Y-109000000D03*
D21*
X182500000Y-115500000D03*
X182500000Y-113000000D03*
X182500000Y-110500000D03*
D22*
X175000000Y-118600000D03*
D23*
G36*
X176300000Y-119800000D02*
G01*
X173700000Y-119800000D01*
X173700000Y-117400000D01*
X176300000Y-117400000D01*
X176300000Y-119800000D01*
X176300000Y-119800000D01*
G37*
D22*
X175000000Y-107400000D03*
D23*
G36*
X176300000Y-108600000D02*
G01*
X173700000Y-108600000D01*
X173700000Y-106200000D01*
X176300000Y-106200000D01*
X176300000Y-108600000D01*
X176300000Y-108600000D01*
G37*
D24*
X188900000Y-79260000D03*
D25*
X186360000Y-79260000D03*
X188900000Y-81800000D03*
X186360000Y-81800000D03*
X188900000Y-84340000D03*
X186360000Y-84340000D03*
D26*
X153000000Y-105875000D03*
D27*
X154600000Y-104625000D03*
X151400000Y-103375000D03*
X153000000Y-102125000D03*
X134000000Y-102125000D03*
X132400000Y-103375000D03*
X135600000Y-104625000D03*
D26*
X134000000Y-105875000D03*
X115000000Y-105875000D03*
D27*
X116600000Y-104625000D03*
X113400000Y-103375000D03*
X115000000Y-102125000D03*
X153000000Y-83125000D03*
X151400000Y-84375000D03*
X154600000Y-85625000D03*
D26*
X153000000Y-86875000D03*
X134000000Y-86875000D03*
D27*
X135600000Y-85625000D03*
X132400000Y-84375000D03*
X134000000Y-83125000D03*
X115000000Y-83125000D03*
X113400000Y-84375000D03*
X116600000Y-85625000D03*
D26*
X115000000Y-86875000D03*
D16*
X167000000Y-81362000D03*
X167000000Y-79838000D03*
D28*
X166638000Y-86400000D03*
X168162000Y-86400000D03*
X185438000Y-105000000D03*
X186962000Y-105000000D03*
X185438000Y-98200000D03*
X186962000Y-98200000D03*
D16*
X169400000Y-79838000D03*
X169400000Y-81362000D03*
D28*
X183162000Y-86400000D03*
X181638000Y-86400000D03*
X166838000Y-102400000D03*
X168362000Y-102400000D03*
D16*
X152600000Y-119762000D03*
X152600000Y-118238000D03*
D29*
X173000000Y-79098860D03*
X173000000Y-82101140D03*
D16*
X155200000Y-119762000D03*
X155200000Y-118238000D03*
X157800000Y-118238000D03*
X157800000Y-119762000D03*
X180200000Y-81362000D03*
X180200000Y-79838000D03*
X164600000Y-79838000D03*
X164600000Y-81362000D03*
X138400000Y-119962000D03*
X138400000Y-118438000D03*
D28*
X185438000Y-113600000D03*
X186962000Y-113600000D03*
X185438000Y-110400000D03*
X186962000Y-110400000D03*
D30*
X176000000Y-79650000D03*
X178000000Y-79650000D03*
X178000000Y-81550000D03*
D31*
X176000000Y-81350000D03*
D32*
X176108148Y-87434998D03*
D23*
G36*
X176475844Y-86388480D02*
G01*
X177154666Y-87067302D01*
X175740452Y-88481516D01*
X175061630Y-87802694D01*
X176475844Y-86388480D01*
X176475844Y-86388480D01*
G37*
D32*
X176673833Y-88000684D03*
D23*
G36*
X177041529Y-86954166D02*
G01*
X177720351Y-87632988D01*
X176306137Y-89047202D01*
X175627315Y-88368380D01*
X177041529Y-86954166D01*
X177041529Y-86954166D01*
G37*
D32*
X177239518Y-88566369D03*
D23*
G36*
X177607214Y-87519851D02*
G01*
X178286036Y-88198673D01*
X176871822Y-89612887D01*
X176193000Y-88934065D01*
X177607214Y-87519851D01*
X177607214Y-87519851D01*
G37*
D32*
X177805204Y-89132054D03*
D23*
G36*
X178172900Y-88085536D02*
G01*
X178851722Y-88764358D01*
X177437508Y-90178572D01*
X176758686Y-89499750D01*
X178172900Y-88085536D01*
X178172900Y-88085536D01*
G37*
D32*
X178370889Y-89697740D03*
D23*
G36*
X178738585Y-88651222D02*
G01*
X179417407Y-89330044D01*
X178003193Y-90744258D01*
X177324371Y-90065436D01*
X178738585Y-88651222D01*
X178738585Y-88651222D01*
G37*
D32*
X178936575Y-90263425D03*
D23*
G36*
X179304271Y-89216907D02*
G01*
X179983093Y-89895729D01*
X178568879Y-91309943D01*
X177890057Y-90631121D01*
X179304271Y-89216907D01*
X179304271Y-89216907D01*
G37*
D32*
X179502260Y-90829111D03*
D23*
G36*
X179869956Y-89782593D02*
G01*
X180548778Y-90461415D01*
X179134564Y-91875629D01*
X178455742Y-91196807D01*
X179869956Y-89782593D01*
X179869956Y-89782593D01*
G37*
D32*
X180067946Y-91394796D03*
D23*
G36*
X180435642Y-90348278D02*
G01*
X181114464Y-91027100D01*
X179700250Y-92441314D01*
X179021428Y-91762492D01*
X180435642Y-90348278D01*
X180435642Y-90348278D01*
G37*
D32*
X180633631Y-91960482D03*
D23*
G36*
X181001327Y-90913964D02*
G01*
X181680149Y-91592786D01*
X180265935Y-93007000D01*
X179587113Y-92328178D01*
X181001327Y-90913964D01*
X181001327Y-90913964D01*
G37*
D32*
X181199316Y-92526167D03*
D23*
G36*
X181567012Y-91479649D02*
G01*
X182245834Y-92158471D01*
X180831620Y-93572685D01*
X180152798Y-92893863D01*
X181567012Y-91479649D01*
X181567012Y-91479649D01*
G37*
D32*
X181765002Y-93091852D03*
D23*
G36*
X182132698Y-92045334D02*
G01*
X182811520Y-92724156D01*
X181397306Y-94138370D01*
X180718484Y-93459548D01*
X182132698Y-92045334D01*
X182132698Y-92045334D01*
G37*
D32*
X181765002Y-95708148D03*
D23*
G36*
X182811520Y-96075844D02*
G01*
X182132698Y-96754666D01*
X180718484Y-95340452D01*
X181397306Y-94661630D01*
X182811520Y-96075844D01*
X182811520Y-96075844D01*
G37*
D32*
X181199316Y-96273833D03*
D23*
G36*
X182245834Y-96641529D02*
G01*
X181567012Y-97320351D01*
X180152798Y-95906137D01*
X180831620Y-95227315D01*
X182245834Y-96641529D01*
X182245834Y-96641529D01*
G37*
D32*
X180633631Y-96839518D03*
D23*
G36*
X181680149Y-97207214D02*
G01*
X181001327Y-97886036D01*
X179587113Y-96471822D01*
X180265935Y-95793000D01*
X181680149Y-97207214D01*
X181680149Y-97207214D01*
G37*
D32*
X180067946Y-97405204D03*
D23*
G36*
X181114464Y-97772900D02*
G01*
X180435642Y-98451722D01*
X179021428Y-97037508D01*
X179700250Y-96358686D01*
X181114464Y-97772900D01*
X181114464Y-97772900D01*
G37*
D32*
X179502260Y-97970889D03*
D23*
G36*
X180548778Y-98338585D02*
G01*
X179869956Y-99017407D01*
X178455742Y-97603193D01*
X179134564Y-96924371D01*
X180548778Y-98338585D01*
X180548778Y-98338585D01*
G37*
D32*
X178936575Y-98536575D03*
D23*
G36*
X179983093Y-98904271D02*
G01*
X179304271Y-99583093D01*
X177890057Y-98168879D01*
X178568879Y-97490057D01*
X179983093Y-98904271D01*
X179983093Y-98904271D01*
G37*
D32*
X178370889Y-99102260D03*
D23*
G36*
X179417407Y-99469956D02*
G01*
X178738585Y-100148778D01*
X177324371Y-98734564D01*
X178003193Y-98055742D01*
X179417407Y-99469956D01*
X179417407Y-99469956D01*
G37*
D32*
X177805204Y-99667946D03*
D23*
G36*
X178851722Y-100035642D02*
G01*
X178172900Y-100714464D01*
X176758686Y-99300250D01*
X177437508Y-98621428D01*
X178851722Y-100035642D01*
X178851722Y-100035642D01*
G37*
D32*
X177239518Y-100233631D03*
D23*
G36*
X178286036Y-100601327D02*
G01*
X177607214Y-101280149D01*
X176193000Y-99865935D01*
X176871822Y-99187113D01*
X178286036Y-100601327D01*
X178286036Y-100601327D01*
G37*
D32*
X176673833Y-100799316D03*
D23*
G36*
X177720351Y-101167012D02*
G01*
X177041529Y-101845834D01*
X175627315Y-100431620D01*
X176306137Y-99752798D01*
X177720351Y-101167012D01*
X177720351Y-101167012D01*
G37*
D32*
X176108148Y-101365002D03*
D23*
G36*
X177154666Y-101732698D02*
G01*
X176475844Y-102411520D01*
X175061630Y-100997306D01*
X175740452Y-100318484D01*
X177154666Y-101732698D01*
X177154666Y-101732698D01*
G37*
D32*
X173491852Y-101365002D03*
D23*
G36*
X173859548Y-100318484D02*
G01*
X174538370Y-100997306D01*
X173124156Y-102411520D01*
X172445334Y-101732698D01*
X173859548Y-100318484D01*
X173859548Y-100318484D01*
G37*
D32*
X172926167Y-100799316D03*
D23*
G36*
X173293863Y-99752798D02*
G01*
X173972685Y-100431620D01*
X172558471Y-101845834D01*
X171879649Y-101167012D01*
X173293863Y-99752798D01*
X173293863Y-99752798D01*
G37*
D32*
X172360482Y-100233631D03*
D23*
G36*
X172728178Y-99187113D02*
G01*
X173407000Y-99865935D01*
X171992786Y-101280149D01*
X171313964Y-100601327D01*
X172728178Y-99187113D01*
X172728178Y-99187113D01*
G37*
D32*
X171794796Y-99667946D03*
D23*
G36*
X172162492Y-98621428D02*
G01*
X172841314Y-99300250D01*
X171427100Y-100714464D01*
X170748278Y-100035642D01*
X172162492Y-98621428D01*
X172162492Y-98621428D01*
G37*
D32*
X171229111Y-99102260D03*
D23*
G36*
X171596807Y-98055742D02*
G01*
X172275629Y-98734564D01*
X170861415Y-100148778D01*
X170182593Y-99469956D01*
X171596807Y-98055742D01*
X171596807Y-98055742D01*
G37*
D32*
X170663425Y-98536575D03*
D23*
G36*
X171031121Y-97490057D02*
G01*
X171709943Y-98168879D01*
X170295729Y-99583093D01*
X169616907Y-98904271D01*
X171031121Y-97490057D01*
X171031121Y-97490057D01*
G37*
D32*
X170097740Y-97970889D03*
D23*
G36*
X170465436Y-96924371D02*
G01*
X171144258Y-97603193D01*
X169730044Y-99017407D01*
X169051222Y-98338585D01*
X170465436Y-96924371D01*
X170465436Y-96924371D01*
G37*
D32*
X169532054Y-97405204D03*
D23*
G36*
X169899750Y-96358686D02*
G01*
X170578572Y-97037508D01*
X169164358Y-98451722D01*
X168485536Y-97772900D01*
X169899750Y-96358686D01*
X169899750Y-96358686D01*
G37*
D32*
X168966369Y-96839518D03*
D23*
G36*
X169334065Y-95793000D02*
G01*
X170012887Y-96471822D01*
X168598673Y-97886036D01*
X167919851Y-97207214D01*
X169334065Y-95793000D01*
X169334065Y-95793000D01*
G37*
D32*
X168400684Y-96273833D03*
D23*
G36*
X168768380Y-95227315D02*
G01*
X169447202Y-95906137D01*
X168032988Y-97320351D01*
X167354166Y-96641529D01*
X168768380Y-95227315D01*
X168768380Y-95227315D01*
G37*
D32*
X167834998Y-95708148D03*
D23*
G36*
X168202694Y-94661630D02*
G01*
X168881516Y-95340452D01*
X167467302Y-96754666D01*
X166788480Y-96075844D01*
X168202694Y-94661630D01*
X168202694Y-94661630D01*
G37*
D32*
X167834998Y-93091852D03*
D23*
G36*
X168881516Y-93459548D02*
G01*
X168202694Y-94138370D01*
X166788480Y-92724156D01*
X167467302Y-92045334D01*
X168881516Y-93459548D01*
X168881516Y-93459548D01*
G37*
D32*
X168400684Y-92526167D03*
D23*
G36*
X169447202Y-92893863D02*
G01*
X168768380Y-93572685D01*
X167354166Y-92158471D01*
X168032988Y-91479649D01*
X169447202Y-92893863D01*
X169447202Y-92893863D01*
G37*
D32*
X168966369Y-91960482D03*
D23*
G36*
X170012887Y-92328178D02*
G01*
X169334065Y-93007000D01*
X167919851Y-91592786D01*
X168598673Y-90913964D01*
X170012887Y-92328178D01*
X170012887Y-92328178D01*
G37*
D32*
X169532054Y-91394796D03*
D23*
G36*
X170578572Y-91762492D02*
G01*
X169899750Y-92441314D01*
X168485536Y-91027100D01*
X169164358Y-90348278D01*
X170578572Y-91762492D01*
X170578572Y-91762492D01*
G37*
D32*
X170097740Y-90829111D03*
D23*
G36*
X171144258Y-91196807D02*
G01*
X170465436Y-91875629D01*
X169051222Y-90461415D01*
X169730044Y-89782593D01*
X171144258Y-91196807D01*
X171144258Y-91196807D01*
G37*
D32*
X170663425Y-90263425D03*
D23*
G36*
X171709943Y-90631121D02*
G01*
X171031121Y-91309943D01*
X169616907Y-89895729D01*
X170295729Y-89216907D01*
X171709943Y-90631121D01*
X171709943Y-90631121D01*
G37*
D32*
X171229111Y-89697740D03*
D23*
G36*
X172275629Y-90065436D02*
G01*
X171596807Y-90744258D01*
X170182593Y-89330044D01*
X170861415Y-88651222D01*
X172275629Y-90065436D01*
X172275629Y-90065436D01*
G37*
D32*
X171794796Y-89132054D03*
D23*
G36*
X172841314Y-89499750D02*
G01*
X172162492Y-90178572D01*
X170748278Y-88764358D01*
X171427100Y-88085536D01*
X172841314Y-89499750D01*
X172841314Y-89499750D01*
G37*
D32*
X172360482Y-88566369D03*
D23*
G36*
X173407000Y-88934065D02*
G01*
X172728178Y-89612887D01*
X171313964Y-88198673D01*
X171992786Y-87519851D01*
X173407000Y-88934065D01*
X173407000Y-88934065D01*
G37*
D32*
X172926167Y-88000684D03*
D23*
G36*
X173972685Y-88368380D02*
G01*
X173293863Y-89047202D01*
X171879649Y-87632988D01*
X172558471Y-86954166D01*
X173972685Y-88368380D01*
X173972685Y-88368380D01*
G37*
D32*
X173491852Y-87434998D03*
D23*
G36*
X174538370Y-87802694D02*
G01*
X173859548Y-88481516D01*
X172445334Y-87067302D01*
X173124156Y-86388480D01*
X174538370Y-87802694D01*
X174538370Y-87802694D01*
G37*
D33*
X148450000Y-118100000D03*
X148450000Y-119100000D03*
X148450000Y-117600000D03*
X148450000Y-119600000D03*
X148450000Y-118600000D03*
X148450000Y-117100000D03*
X148450000Y-116600000D03*
X148450000Y-116100000D03*
X148450000Y-115600000D03*
X148450000Y-115100000D03*
X148450000Y-114600000D03*
X148450000Y-114100000D03*
X148450000Y-113600000D03*
X148450000Y-113100000D03*
D34*
X148450000Y-111000000D03*
D33*
X148450000Y-112100000D03*
X148450000Y-111600000D03*
X148450000Y-112600000D03*
X142350000Y-112600000D03*
D34*
X148450000Y-120200000D03*
D33*
X142350000Y-111600000D03*
X142350000Y-112100000D03*
D34*
X142350000Y-111000000D03*
D33*
X142350000Y-113100000D03*
X142350000Y-113600000D03*
X142350000Y-114100000D03*
X142350000Y-114600000D03*
X142350000Y-115100000D03*
X142350000Y-115600000D03*
X142350000Y-116100000D03*
X142350000Y-116600000D03*
X142350000Y-117100000D03*
X142350000Y-118600000D03*
X142350000Y-119600000D03*
X142350000Y-117600000D03*
X142350000Y-119100000D03*
X142350000Y-118100000D03*
D34*
X142350000Y-120200000D03*
D35*
X145400000Y-115600000D03*
D36*
X144325000Y-117650000D03*
X145045000Y-117650000D03*
X145765000Y-117650000D03*
X146485000Y-117650000D03*
X144325000Y-116830000D03*
X145045000Y-116830000D03*
X145765000Y-116830000D03*
X146485000Y-116830000D03*
X144325000Y-116010000D03*
X145045000Y-116010000D03*
X145765000Y-116010000D03*
X146485000Y-116010000D03*
X144325000Y-115190000D03*
X145045000Y-115190000D03*
X145765000Y-115190000D03*
X146485000Y-115190000D03*
X144325000Y-114370000D03*
X145045000Y-114370000D03*
X145765000Y-114370000D03*
X146485000Y-114370000D03*
X144325000Y-113550000D03*
X145045000Y-113550000D03*
X145765000Y-113550000D03*
X146485000Y-113550000D03*
D37*
X185100000Y-102400000D03*
X185100000Y-100800000D03*
X187300000Y-100800000D03*
X187300000Y-102400000D03*
D28*
X176438000Y-115400000D03*
X177962000Y-115400000D03*
X172238000Y-115400000D03*
X173762000Y-115400000D03*
M02*
