M48
; DRILL file {KiCad (5.1.0)-1} date 2019/05/21 18:44:48
; FORMAT={-:-/ absolute / inch / decimal}
; #@! TF.CreationDate,2019-05-21T18:44:48+09:00
; #@! TF.GenerationSoftware,Kicad,Pcbnew,(5.1.0)-1
; #@! TF.FileFunction,Plated,1,2,PTH
FMAT,2
INCH
T1C0.0157
T2C0.0315
T3C0.0320
T4C0.0354
T5C0.0394
T6C0.0433
T7C0.0591
T8C0.0748
%
G90
G05
T1
X6.8898Y-3.2441
X7.378Y-3.7717
T3
X7.337Y-3.1205
X7.337Y-3.2205
X7.337Y-3.3205
X7.437Y-3.1205
X7.437Y-3.2205
X7.437Y-3.3205
T4
X5.2126Y-3.3219
X5.2756Y-3.2726
X5.2756Y-3.4203
X5.3386Y-3.3711
X4.4646Y-3.3219
X4.5276Y-3.2726
X4.5276Y-3.4203
X4.5906Y-3.3711
X4.4646Y-4.0699
X4.5276Y-4.0207
X4.5276Y-4.1683
X4.5906Y-4.1191
X5.9606Y-4.0699
X6.0236Y-4.0207
X6.0236Y-4.1683
X6.0866Y-4.1191
X5.9606Y-3.3219
X6.0236Y-3.2726
X6.0236Y-3.4203
X6.0866Y-3.3711
X5.2126Y-4.0699
X5.2756Y-4.0207
X5.2756Y-4.1683
X5.3386Y-4.1191
T5
X6.6142Y-4.2913
X6.6142Y-4.3701
X6.6142Y-4.4488
X6.6142Y-4.5276
X6.6142Y-4.6063
T6
X7.185Y-4.3504
X7.185Y-4.4488
X7.185Y-4.5472
T7
X6.0236Y-3.0945
X6.2126Y-3.1654
X4.5276Y-3.8425
X4.7165Y-3.9134
X6.0236Y-3.8425
X6.2126Y-3.9134
X4.5276Y-3.0945
X4.7165Y-3.1654
X5.2756Y-3.8425
X5.4646Y-3.9134
X5.2756Y-3.0945
X5.4646Y-3.1654
T2
G00X6.689Y-2.8051
M15
G01X6.689Y-2.8327
M16
G05
G00X6.689Y-2.9508
M15
G01X6.689Y-2.9783
M16
G05
G00X7.0906Y-2.8051
M15
G01X7.0906Y-2.8327
M16
G05
G00X7.0906Y-2.9508
M15
G01X7.0906Y-2.9783
M16
G05
T8
G00X6.8839Y-4.2283
M15
G01X6.8957Y-4.2283
M16
G05
G00X6.8839Y-4.6693
M15
G01X6.8957Y-4.6693
M16
G05
T0
M30
