G04 #@! TF.GenerationSoftware,KiCad,Pcbnew,(5.1.0)-1*
G04 #@! TF.CreationDate,2019-05-21T18:44:38+09:00*
G04 #@! TF.ProjectId,sunmeishi,73756e6d-6569-4736-9869-2e6b69636164,rev?*
G04 #@! TF.SameCoordinates,Original*
G04 #@! TF.FileFunction,Copper,L2,Bot*
G04 #@! TF.FilePolarity,Positive*
%FSLAX46Y46*%
G04 Gerber Fmt 4.6, Leading zero omitted, Abs format (unit mm)*
G04 Created by KiCad (PCBNEW (5.1.0)-1) date 2019-05-21 18:44:38*
%MOMM*%
%LPD*%
G04 APERTURE LIST*
%ADD10O,1.600000X2.200000*%
%ADD11R,1.150000X1.500000*%
%ADD12R,0.400000X1.500000*%
%ADD13R,1.200760X0.800100*%
%ADD14R,1.200000X0.800100*%
%ADD15C,2.200000*%
%ADD16R,1.143000X0.635000*%
%ADD17R,1.550000X1.000000*%
%ADD18C,1.524000*%
%ADD19C,1.800000*%
%ADD20C,2.000000*%
%ADD21C,1.000000*%
%ADD22R,1.397000X1.397000*%
%ADD23C,1.397000*%
%ADD24R,1.400000X1.400000*%
%ADD25C,1.400000*%
%ADD26R,0.635000X1.143000*%
%ADD27R,2.499360X1.000760*%
%ADD28R,0.700000X0.600000*%
%ADD29R,0.700000X1.000000*%
%ADD30C,0.560000*%
%ADD31R,1.350000X0.250000*%
%ADD32R,1.350000X0.450000*%
%ADD33R,3.000000X5.040000*%
%ADD34R,0.600000X0.700000*%
%ADD35R,1.400000X1.200000*%
%ADD36C,0.800000*%
%ADD37C,0.400000*%
%ADD38C,0.250000*%
%ADD39C,0.200000*%
%ADD40C,0.254000*%
G04 APERTURE END LIST*
D10*
X169900000Y-71600000D03*
X180100000Y-71600000D03*
X169900000Y-75300000D03*
D11*
X172675000Y-75600000D03*
X177325000Y-75600000D03*
D12*
X176300000Y-75600000D03*
X175000000Y-75600000D03*
D10*
X180100000Y-75300000D03*
D12*
X175650000Y-75600000D03*
X174350000Y-75600000D03*
X173700000Y-75600000D03*
D13*
X176598880Y-111800000D03*
D14*
X173801120Y-112749960D03*
D13*
X173801120Y-110850040D03*
D15*
X153000000Y-97600000D03*
X157800000Y-99400000D03*
X134000000Y-97600000D03*
X138800000Y-99400000D03*
X119800000Y-99400000D03*
X115000000Y-97600000D03*
X157800000Y-80400000D03*
X153000000Y-78600000D03*
X134000000Y-78600000D03*
X138800000Y-80400000D03*
X119800000Y-80400000D03*
X115000000Y-78600000D03*
D16*
X182600000Y-81362000D03*
X182600000Y-79838000D03*
D17*
X157975000Y-71150000D03*
X163225000Y-72850000D03*
X157975000Y-72850000D03*
X163225000Y-71150000D03*
D18*
X168000000Y-117000000D03*
X168000000Y-115000000D03*
X168000000Y-113000000D03*
X168000000Y-111000000D03*
X168000000Y-109000000D03*
D19*
X182500000Y-115500000D03*
X182500000Y-113000000D03*
X182500000Y-110500000D03*
D20*
X175000000Y-118600000D03*
D21*
G36*
X176100000Y-119600000D02*
G01*
X173900000Y-119600000D01*
X173900000Y-117600000D01*
X176100000Y-117600000D01*
X176100000Y-119600000D01*
X176100000Y-119600000D01*
G37*
D20*
X175000000Y-107400000D03*
D21*
G36*
X176100000Y-108400000D02*
G01*
X173900000Y-108400000D01*
X173900000Y-106400000D01*
X176100000Y-106400000D01*
X176100000Y-108400000D01*
X176100000Y-108400000D01*
G37*
D22*
X188900000Y-79260000D03*
D23*
X186360000Y-79260000D03*
X188900000Y-81800000D03*
X186360000Y-81800000D03*
X188900000Y-84340000D03*
X186360000Y-84340000D03*
D24*
X153000000Y-105875000D03*
D25*
X154600000Y-104625000D03*
X151400000Y-103375000D03*
X153000000Y-102125000D03*
X134000000Y-102125000D03*
X132400000Y-103375000D03*
X135600000Y-104625000D03*
D24*
X134000000Y-105875000D03*
X115000000Y-105875000D03*
D25*
X116600000Y-104625000D03*
X113400000Y-103375000D03*
X115000000Y-102125000D03*
X153000000Y-83125000D03*
X151400000Y-84375000D03*
X154600000Y-85625000D03*
D24*
X153000000Y-86875000D03*
X134000000Y-86875000D03*
D25*
X135600000Y-85625000D03*
X132400000Y-84375000D03*
X134000000Y-83125000D03*
X115000000Y-83125000D03*
X113400000Y-84375000D03*
X116600000Y-85625000D03*
D24*
X115000000Y-86875000D03*
D16*
X167000000Y-81362000D03*
X167000000Y-79838000D03*
D26*
X166638000Y-86400000D03*
X168162000Y-86400000D03*
X185438000Y-105000000D03*
X186962000Y-105000000D03*
X185438000Y-98200000D03*
X186962000Y-98200000D03*
D16*
X169400000Y-79838000D03*
X169400000Y-81362000D03*
D26*
X183162000Y-86400000D03*
X181638000Y-86400000D03*
X166838000Y-102400000D03*
X168362000Y-102400000D03*
D16*
X152600000Y-119762000D03*
X152600000Y-118238000D03*
D27*
X173000000Y-79098860D03*
X173000000Y-82101140D03*
D16*
X155200000Y-119762000D03*
X155200000Y-118238000D03*
X157800000Y-118238000D03*
X157800000Y-119762000D03*
X180200000Y-81362000D03*
X180200000Y-79838000D03*
X164600000Y-79838000D03*
X164600000Y-81362000D03*
X138400000Y-119962000D03*
X138400000Y-118438000D03*
D26*
X185438000Y-113600000D03*
X186962000Y-113600000D03*
X185438000Y-110400000D03*
X186962000Y-110400000D03*
D28*
X176000000Y-79650000D03*
X178000000Y-79650000D03*
X178000000Y-81550000D03*
D29*
X176000000Y-81350000D03*
D30*
X176108148Y-87434998D03*
D21*
G36*
X176475844Y-86671323D02*
G01*
X176871823Y-87067302D01*
X175740452Y-88198673D01*
X175344473Y-87802694D01*
X176475844Y-86671323D01*
X176475844Y-86671323D01*
G37*
D30*
X176673833Y-88000684D03*
D21*
G36*
X177041529Y-87237009D02*
G01*
X177437508Y-87632988D01*
X176306137Y-88764359D01*
X175910158Y-88368380D01*
X177041529Y-87237009D01*
X177041529Y-87237009D01*
G37*
D30*
X177239518Y-88566369D03*
D21*
G36*
X177607214Y-87802694D02*
G01*
X178003193Y-88198673D01*
X176871822Y-89330044D01*
X176475843Y-88934065D01*
X177607214Y-87802694D01*
X177607214Y-87802694D01*
G37*
D30*
X177805204Y-89132054D03*
D21*
G36*
X178172900Y-88368379D02*
G01*
X178568879Y-88764358D01*
X177437508Y-89895729D01*
X177041529Y-89499750D01*
X178172900Y-88368379D01*
X178172900Y-88368379D01*
G37*
D30*
X178370889Y-89697740D03*
D21*
G36*
X178738585Y-88934065D02*
G01*
X179134564Y-89330044D01*
X178003193Y-90461415D01*
X177607214Y-90065436D01*
X178738585Y-88934065D01*
X178738585Y-88934065D01*
G37*
D30*
X178936575Y-90263425D03*
D21*
G36*
X179304271Y-89499750D02*
G01*
X179700250Y-89895729D01*
X178568879Y-91027100D01*
X178172900Y-90631121D01*
X179304271Y-89499750D01*
X179304271Y-89499750D01*
G37*
D30*
X179502260Y-90829111D03*
D21*
G36*
X179869956Y-90065436D02*
G01*
X180265935Y-90461415D01*
X179134564Y-91592786D01*
X178738585Y-91196807D01*
X179869956Y-90065436D01*
X179869956Y-90065436D01*
G37*
D30*
X180067946Y-91394796D03*
D21*
G36*
X180435642Y-90631121D02*
G01*
X180831621Y-91027100D01*
X179700250Y-92158471D01*
X179304271Y-91762492D01*
X180435642Y-90631121D01*
X180435642Y-90631121D01*
G37*
D30*
X180633631Y-91960482D03*
D21*
G36*
X181001327Y-91196807D02*
G01*
X181397306Y-91592786D01*
X180265935Y-92724157D01*
X179869956Y-92328178D01*
X181001327Y-91196807D01*
X181001327Y-91196807D01*
G37*
D30*
X181199316Y-92526167D03*
D21*
G36*
X181567012Y-91762492D02*
G01*
X181962991Y-92158471D01*
X180831620Y-93289842D01*
X180435641Y-92893863D01*
X181567012Y-91762492D01*
X181567012Y-91762492D01*
G37*
D30*
X181765002Y-93091852D03*
D21*
G36*
X182132698Y-92328177D02*
G01*
X182528677Y-92724156D01*
X181397306Y-93855527D01*
X181001327Y-93459548D01*
X182132698Y-92328177D01*
X182132698Y-92328177D01*
G37*
D30*
X181765002Y-95708148D03*
D21*
G36*
X182528677Y-96075844D02*
G01*
X182132698Y-96471823D01*
X181001327Y-95340452D01*
X181397306Y-94944473D01*
X182528677Y-96075844D01*
X182528677Y-96075844D01*
G37*
D30*
X181199316Y-96273833D03*
D21*
G36*
X181962991Y-96641529D02*
G01*
X181567012Y-97037508D01*
X180435641Y-95906137D01*
X180831620Y-95510158D01*
X181962991Y-96641529D01*
X181962991Y-96641529D01*
G37*
D30*
X180633631Y-96839518D03*
D21*
G36*
X181397306Y-97207214D02*
G01*
X181001327Y-97603193D01*
X179869956Y-96471822D01*
X180265935Y-96075843D01*
X181397306Y-97207214D01*
X181397306Y-97207214D01*
G37*
D30*
X180067946Y-97405204D03*
D21*
G36*
X180831621Y-97772900D02*
G01*
X180435642Y-98168879D01*
X179304271Y-97037508D01*
X179700250Y-96641529D01*
X180831621Y-97772900D01*
X180831621Y-97772900D01*
G37*
D30*
X179502260Y-97970889D03*
D21*
G36*
X180265935Y-98338585D02*
G01*
X179869956Y-98734564D01*
X178738585Y-97603193D01*
X179134564Y-97207214D01*
X180265935Y-98338585D01*
X180265935Y-98338585D01*
G37*
D30*
X178936575Y-98536575D03*
D21*
G36*
X179700250Y-98904271D02*
G01*
X179304271Y-99300250D01*
X178172900Y-98168879D01*
X178568879Y-97772900D01*
X179700250Y-98904271D01*
X179700250Y-98904271D01*
G37*
D30*
X178370889Y-99102260D03*
D21*
G36*
X179134564Y-99469956D02*
G01*
X178738585Y-99865935D01*
X177607214Y-98734564D01*
X178003193Y-98338585D01*
X179134564Y-99469956D01*
X179134564Y-99469956D01*
G37*
D30*
X177805204Y-99667946D03*
D21*
G36*
X178568879Y-100035642D02*
G01*
X178172900Y-100431621D01*
X177041529Y-99300250D01*
X177437508Y-98904271D01*
X178568879Y-100035642D01*
X178568879Y-100035642D01*
G37*
D30*
X177239518Y-100233631D03*
D21*
G36*
X178003193Y-100601327D02*
G01*
X177607214Y-100997306D01*
X176475843Y-99865935D01*
X176871822Y-99469956D01*
X178003193Y-100601327D01*
X178003193Y-100601327D01*
G37*
D30*
X176673833Y-100799316D03*
D21*
G36*
X177437508Y-101167012D02*
G01*
X177041529Y-101562991D01*
X175910158Y-100431620D01*
X176306137Y-100035641D01*
X177437508Y-101167012D01*
X177437508Y-101167012D01*
G37*
D30*
X176108148Y-101365002D03*
D21*
G36*
X176871823Y-101732698D02*
G01*
X176475844Y-102128677D01*
X175344473Y-100997306D01*
X175740452Y-100601327D01*
X176871823Y-101732698D01*
X176871823Y-101732698D01*
G37*
D30*
X173491852Y-101365002D03*
D21*
G36*
X173859548Y-100601327D02*
G01*
X174255527Y-100997306D01*
X173124156Y-102128677D01*
X172728177Y-101732698D01*
X173859548Y-100601327D01*
X173859548Y-100601327D01*
G37*
D30*
X172926167Y-100799316D03*
D21*
G36*
X173293863Y-100035641D02*
G01*
X173689842Y-100431620D01*
X172558471Y-101562991D01*
X172162492Y-101167012D01*
X173293863Y-100035641D01*
X173293863Y-100035641D01*
G37*
D30*
X172360482Y-100233631D03*
D21*
G36*
X172728178Y-99469956D02*
G01*
X173124157Y-99865935D01*
X171992786Y-100997306D01*
X171596807Y-100601327D01*
X172728178Y-99469956D01*
X172728178Y-99469956D01*
G37*
D30*
X171794796Y-99667946D03*
D21*
G36*
X172162492Y-98904271D02*
G01*
X172558471Y-99300250D01*
X171427100Y-100431621D01*
X171031121Y-100035642D01*
X172162492Y-98904271D01*
X172162492Y-98904271D01*
G37*
D30*
X171229111Y-99102260D03*
D21*
G36*
X171596807Y-98338585D02*
G01*
X171992786Y-98734564D01*
X170861415Y-99865935D01*
X170465436Y-99469956D01*
X171596807Y-98338585D01*
X171596807Y-98338585D01*
G37*
D30*
X170663425Y-98536575D03*
D21*
G36*
X171031121Y-97772900D02*
G01*
X171427100Y-98168879D01*
X170295729Y-99300250D01*
X169899750Y-98904271D01*
X171031121Y-97772900D01*
X171031121Y-97772900D01*
G37*
D30*
X170097740Y-97970889D03*
D21*
G36*
X170465436Y-97207214D02*
G01*
X170861415Y-97603193D01*
X169730044Y-98734564D01*
X169334065Y-98338585D01*
X170465436Y-97207214D01*
X170465436Y-97207214D01*
G37*
D30*
X169532054Y-97405204D03*
D21*
G36*
X169899750Y-96641529D02*
G01*
X170295729Y-97037508D01*
X169164358Y-98168879D01*
X168768379Y-97772900D01*
X169899750Y-96641529D01*
X169899750Y-96641529D01*
G37*
D30*
X168966369Y-96839518D03*
D21*
G36*
X169334065Y-96075843D02*
G01*
X169730044Y-96471822D01*
X168598673Y-97603193D01*
X168202694Y-97207214D01*
X169334065Y-96075843D01*
X169334065Y-96075843D01*
G37*
D30*
X168400684Y-96273833D03*
D21*
G36*
X168768380Y-95510158D02*
G01*
X169164359Y-95906137D01*
X168032988Y-97037508D01*
X167637009Y-96641529D01*
X168768380Y-95510158D01*
X168768380Y-95510158D01*
G37*
D30*
X167834998Y-95708148D03*
D21*
G36*
X168202694Y-94944473D02*
G01*
X168598673Y-95340452D01*
X167467302Y-96471823D01*
X167071323Y-96075844D01*
X168202694Y-94944473D01*
X168202694Y-94944473D01*
G37*
D30*
X167834998Y-93091852D03*
D21*
G36*
X168598673Y-93459548D02*
G01*
X168202694Y-93855527D01*
X167071323Y-92724156D01*
X167467302Y-92328177D01*
X168598673Y-93459548D01*
X168598673Y-93459548D01*
G37*
D30*
X168400684Y-92526167D03*
D21*
G36*
X169164359Y-92893863D02*
G01*
X168768380Y-93289842D01*
X167637009Y-92158471D01*
X168032988Y-91762492D01*
X169164359Y-92893863D01*
X169164359Y-92893863D01*
G37*
D30*
X168966369Y-91960482D03*
D21*
G36*
X169730044Y-92328178D02*
G01*
X169334065Y-92724157D01*
X168202694Y-91592786D01*
X168598673Y-91196807D01*
X169730044Y-92328178D01*
X169730044Y-92328178D01*
G37*
D30*
X169532054Y-91394796D03*
D21*
G36*
X170295729Y-91762492D02*
G01*
X169899750Y-92158471D01*
X168768379Y-91027100D01*
X169164358Y-90631121D01*
X170295729Y-91762492D01*
X170295729Y-91762492D01*
G37*
D30*
X170097740Y-90829111D03*
D21*
G36*
X170861415Y-91196807D02*
G01*
X170465436Y-91592786D01*
X169334065Y-90461415D01*
X169730044Y-90065436D01*
X170861415Y-91196807D01*
X170861415Y-91196807D01*
G37*
D30*
X170663425Y-90263425D03*
D21*
G36*
X171427100Y-90631121D02*
G01*
X171031121Y-91027100D01*
X169899750Y-89895729D01*
X170295729Y-89499750D01*
X171427100Y-90631121D01*
X171427100Y-90631121D01*
G37*
D30*
X171229111Y-89697740D03*
D21*
G36*
X171992786Y-90065436D02*
G01*
X171596807Y-90461415D01*
X170465436Y-89330044D01*
X170861415Y-88934065D01*
X171992786Y-90065436D01*
X171992786Y-90065436D01*
G37*
D30*
X171794796Y-89132054D03*
D21*
G36*
X172558471Y-89499750D02*
G01*
X172162492Y-89895729D01*
X171031121Y-88764358D01*
X171427100Y-88368379D01*
X172558471Y-89499750D01*
X172558471Y-89499750D01*
G37*
D30*
X172360482Y-88566369D03*
D21*
G36*
X173124157Y-88934065D02*
G01*
X172728178Y-89330044D01*
X171596807Y-88198673D01*
X171992786Y-87802694D01*
X173124157Y-88934065D01*
X173124157Y-88934065D01*
G37*
D30*
X172926167Y-88000684D03*
D21*
G36*
X173689842Y-88368380D02*
G01*
X173293863Y-88764359D01*
X172162492Y-87632988D01*
X172558471Y-87237009D01*
X173689842Y-88368380D01*
X173689842Y-88368380D01*
G37*
D30*
X173491852Y-87434998D03*
D21*
G36*
X174255527Y-87802694D02*
G01*
X173859548Y-88198673D01*
X172728177Y-87067302D01*
X173124156Y-86671323D01*
X174255527Y-87802694D01*
X174255527Y-87802694D01*
G37*
D31*
X148450000Y-118100000D03*
X148450000Y-119100000D03*
X148450000Y-117600000D03*
X148450000Y-119600000D03*
X148450000Y-118600000D03*
X148450000Y-117100000D03*
X148450000Y-116600000D03*
X148450000Y-116100000D03*
X148450000Y-115600000D03*
X148450000Y-115100000D03*
X148450000Y-114600000D03*
X148450000Y-114100000D03*
X148450000Y-113600000D03*
X148450000Y-113100000D03*
D32*
X148450000Y-111000000D03*
D31*
X148450000Y-112100000D03*
X148450000Y-111600000D03*
X148450000Y-112600000D03*
X142350000Y-112600000D03*
D32*
X148450000Y-120200000D03*
D31*
X142350000Y-111600000D03*
X142350000Y-112100000D03*
D32*
X142350000Y-111000000D03*
D31*
X142350000Y-113100000D03*
X142350000Y-113600000D03*
X142350000Y-114100000D03*
X142350000Y-114600000D03*
X142350000Y-115100000D03*
X142350000Y-115600000D03*
X142350000Y-116100000D03*
X142350000Y-116600000D03*
X142350000Y-117100000D03*
X142350000Y-118600000D03*
X142350000Y-119600000D03*
X142350000Y-117600000D03*
X142350000Y-119100000D03*
X142350000Y-118100000D03*
D32*
X142350000Y-120200000D03*
D33*
X145400000Y-115600000D03*
D34*
X144325000Y-117650000D03*
X145045000Y-117650000D03*
X145765000Y-117650000D03*
X146485000Y-117650000D03*
X144325000Y-116830000D03*
X145045000Y-116830000D03*
X145765000Y-116830000D03*
X146485000Y-116830000D03*
X144325000Y-116010000D03*
X145045000Y-116010000D03*
X145765000Y-116010000D03*
X146485000Y-116010000D03*
X144325000Y-115190000D03*
X145045000Y-115190000D03*
X145765000Y-115190000D03*
X146485000Y-115190000D03*
X144325000Y-114370000D03*
X145045000Y-114370000D03*
X145765000Y-114370000D03*
X146485000Y-114370000D03*
X144325000Y-113550000D03*
X145045000Y-113550000D03*
X145765000Y-113550000D03*
X146485000Y-113550000D03*
D35*
X185100000Y-102400000D03*
X185100000Y-100800000D03*
X187300000Y-100800000D03*
X187300000Y-102400000D03*
D26*
X176438000Y-115400000D03*
X177962000Y-115400000D03*
X172238000Y-115400000D03*
X173762000Y-115400000D03*
D36*
X175000000Y-82400000D03*
X187400000Y-95800000D03*
D37*
X169400000Y-81362000D02*
X167000000Y-81362000D01*
X176300000Y-75600000D02*
X175650000Y-75600000D01*
X166638000Y-85428500D02*
X167466500Y-84600000D01*
X166638000Y-86400000D02*
X166638000Y-85428500D01*
X169525483Y-84600000D02*
X172926167Y-88000684D01*
X167466500Y-84600000D02*
X169525483Y-84600000D01*
X173562562Y-88637079D02*
X173562562Y-90837438D01*
X172926167Y-88000684D02*
X173562562Y-88637079D01*
X168998684Y-93124167D02*
X168400684Y-92526167D01*
X171275833Y-93124167D02*
X168998684Y-93124167D01*
X173562562Y-90837438D02*
X171275833Y-93124167D01*
X186962000Y-97946000D02*
X186962000Y-98200000D01*
X183987399Y-98041599D02*
X184800499Y-97228499D01*
X180704341Y-98041599D02*
X183987399Y-98041599D01*
X184800499Y-97228499D02*
X186244500Y-97228500D01*
X180067946Y-97405204D02*
X180704341Y-98041599D01*
X186244500Y-97228500D02*
X186962000Y-97946000D01*
X174128247Y-100728607D02*
X173491852Y-101365002D01*
X178049650Y-96807204D02*
X174128247Y-100728607D01*
X179469946Y-96807204D02*
X178049650Y-96807204D01*
X180067946Y-97405204D02*
X179469946Y-96807204D01*
D38*
X144275000Y-113600000D02*
X144325000Y-113550000D01*
X142350000Y-113600000D02*
X144275000Y-113600000D01*
X147400000Y-113600000D02*
X145400000Y-115600000D01*
X148450000Y-113600000D02*
X147400000Y-113600000D01*
X145400000Y-116515000D02*
X145400000Y-115600000D01*
X146985000Y-118100000D02*
X145400000Y-116515000D01*
X148450000Y-118100000D02*
X146985000Y-118100000D01*
X145400000Y-116525000D02*
X145400000Y-115600000D01*
X143825000Y-118100000D02*
X145400000Y-116525000D01*
X142350000Y-118100000D02*
X143825000Y-118100000D01*
D37*
X167000000Y-81362000D02*
X166746000Y-81362000D01*
X166028500Y-80644500D02*
X166028500Y-79171500D01*
X168400000Y-76800000D02*
X168700000Y-76800000D01*
X166028500Y-79171500D02*
X168400000Y-76800000D01*
X169900000Y-75600000D02*
X169900000Y-75300000D01*
X168700000Y-76800000D02*
X169900000Y-75600000D01*
X166746000Y-81362000D02*
X166028500Y-80644500D01*
D38*
X178370889Y-89697740D02*
X178302260Y-89697740D01*
X145400000Y-112830000D02*
X145400000Y-115600000D01*
X144170000Y-111600000D02*
X145400000Y-112830000D01*
X142350000Y-111600000D02*
X144170000Y-111600000D01*
X146150000Y-113550000D02*
X146485000Y-113550000D01*
X145600000Y-113000000D02*
X146150000Y-113550000D01*
X148450000Y-111600000D02*
X147000000Y-111600000D01*
X147000000Y-111600000D02*
X145600000Y-113000000D01*
D37*
X187800000Y-98200000D02*
X186962000Y-98200000D01*
X185438000Y-105254000D02*
X186155501Y-105971501D01*
X185438000Y-105000000D02*
X185438000Y-105254000D01*
X186155501Y-105971501D02*
X187599501Y-105971501D01*
X187599501Y-105971501D02*
X188400001Y-105171001D01*
X188400001Y-105171001D02*
X188400001Y-98800001D01*
X188400001Y-98800001D02*
X187800000Y-98200000D01*
X170371500Y-81362000D02*
X169400000Y-81362000D01*
X170532741Y-81200759D02*
X170371500Y-81362000D01*
X175100759Y-81200759D02*
X170532741Y-81200759D01*
X175250000Y-81350000D02*
X175100759Y-81200759D01*
X176000000Y-81350000D02*
X175250000Y-81350000D01*
X181638000Y-86430629D02*
X181638000Y-86400000D01*
X178370889Y-89697740D02*
X181638000Y-86430629D01*
D38*
X138738000Y-118100000D02*
X138400000Y-118438000D01*
X142350000Y-118100000D02*
X138738000Y-118100000D01*
X150875000Y-116600000D02*
X149375000Y-118100000D01*
X149375000Y-118100000D02*
X148450000Y-118100000D01*
X152854000Y-118238000D02*
X153616000Y-119000000D01*
X152600000Y-118238000D02*
X152854000Y-118238000D01*
X153616000Y-119000000D02*
X159000000Y-119000000D01*
X159000000Y-119000000D02*
X159000000Y-117600000D01*
X159000000Y-117600000D02*
X158000000Y-116600000D01*
X158000000Y-116600000D02*
X150875000Y-116600000D01*
X175860499Y-116296501D02*
X177015501Y-116296501D01*
X177015501Y-116296501D02*
X177080501Y-116231501D01*
X177080501Y-116231501D02*
X177080501Y-114807497D01*
X177080501Y-114807497D02*
X178887998Y-113000000D01*
X181227208Y-113000000D02*
X182500000Y-113000000D01*
X178887998Y-113000000D02*
X181227208Y-113000000D01*
X175326132Y-115762134D02*
X175860499Y-116296501D01*
X175326132Y-111524672D02*
X175326132Y-115762134D01*
X174651500Y-110850040D02*
X175326132Y-111524672D01*
X173801120Y-110850040D02*
X174651500Y-110850040D01*
X173491852Y-104291852D02*
X173491852Y-101860981D01*
X180824988Y-113000000D02*
X180824988Y-111624988D01*
X182500000Y-113000000D02*
X180824988Y-113000000D01*
X173491852Y-101860981D02*
X173491852Y-101365002D01*
X180824988Y-111624988D02*
X176800000Y-107600000D01*
X176800000Y-107600000D02*
X176800000Y-106400000D01*
X176800000Y-106400000D02*
X176000000Y-105600000D01*
X174800000Y-105600000D02*
X173491852Y-104291852D01*
X176000000Y-105600000D02*
X174800000Y-105600000D01*
X154499999Y-99099999D02*
X153000000Y-97600000D01*
X157000000Y-101600000D02*
X154499999Y-99099999D01*
X168400684Y-92526167D02*
X167764289Y-91889772D01*
X166910228Y-91889772D02*
X160200000Y-98600000D01*
X160200000Y-98600000D02*
X160200000Y-100400000D01*
X160200000Y-100400000D02*
X159000000Y-101600000D01*
X167764289Y-91889772D02*
X166910228Y-91889772D01*
X159000000Y-101600000D02*
X157000000Y-101600000D01*
D37*
X181638000Y-86146000D02*
X181638000Y-86400000D01*
X186360000Y-84340000D02*
X183444000Y-84340000D01*
X183444000Y-84340000D02*
X181638000Y-86146000D01*
X179800000Y-75600000D02*
X180100000Y-75300000D01*
X177325000Y-75600000D02*
X179800000Y-75600000D01*
X169400000Y-79120500D02*
X169400000Y-79838000D01*
X169421640Y-79098860D02*
X169400000Y-79120500D01*
X173000000Y-79098860D02*
X169421640Y-79098860D01*
X169400000Y-79838000D02*
X167000000Y-79838000D01*
D38*
X178150000Y-81550000D02*
X178000000Y-81550000D01*
X178200000Y-81600000D02*
X178150000Y-81550000D01*
D37*
X173700000Y-78398860D02*
X173000000Y-79098860D01*
X173700000Y-75600000D02*
X173700000Y-78398860D01*
X173749300Y-79098860D02*
X173000000Y-79098860D01*
X175114685Y-80464245D02*
X173749300Y-79098860D01*
X176673833Y-88000684D02*
X177310228Y-87364289D01*
X177310228Y-87364289D02*
X177310228Y-86940006D01*
X175128931Y-80449999D02*
X175114685Y-80464245D01*
X176849999Y-80449999D02*
X175128931Y-80449999D01*
X177950000Y-81550000D02*
X176849999Y-80449999D01*
X178000000Y-81550000D02*
X177950000Y-81550000D01*
X178000000Y-86250234D02*
X178000000Y-81550000D01*
X177310228Y-86940006D02*
X178000000Y-86250234D01*
X177865506Y-91465506D02*
X178865865Y-91465506D01*
X176037438Y-88637079D02*
X176037438Y-88637438D01*
X178865865Y-91465506D02*
X179502260Y-90829111D01*
X176673833Y-88000684D02*
X176037438Y-88637079D01*
X176122103Y-88722104D02*
X176075833Y-88768374D01*
X176037438Y-88637438D02*
X176122103Y-88722104D01*
X176075833Y-88768374D02*
X176075833Y-89675833D01*
X176075833Y-89675833D02*
X177865506Y-91465506D01*
D38*
X171656970Y-87929974D02*
X171724087Y-87929974D01*
X170126996Y-86400000D02*
X171656970Y-87929974D01*
X171724087Y-87929974D02*
X172360482Y-88566369D01*
X168162000Y-86400000D02*
X170126996Y-86400000D01*
X179572970Y-99172970D02*
X178936575Y-98536575D01*
X183725001Y-103325001D02*
X179572970Y-99172970D01*
X186274999Y-103325001D02*
X183725001Y-103325001D01*
X187200000Y-102400000D02*
X186274999Y-103325001D01*
X187300000Y-102400000D02*
X187200000Y-102400000D01*
X186962000Y-102738000D02*
X187300000Y-102400000D01*
X186962000Y-105000000D02*
X186962000Y-102738000D01*
X182331371Y-100800000D02*
X179502260Y-97970889D01*
X185100000Y-100800000D02*
X182331371Y-100800000D01*
X185438000Y-100462000D02*
X185100000Y-100800000D01*
X185438000Y-98200000D02*
X185438000Y-100462000D01*
X181638000Y-87562000D02*
X178936575Y-90263425D01*
X183162000Y-86654000D02*
X183162000Y-86400000D01*
X182254000Y-87562000D02*
X183162000Y-86654000D01*
X181638000Y-87562000D02*
X182254000Y-87562000D01*
D37*
X173000000Y-86943146D02*
X173491852Y-87434998D01*
X173000000Y-82101140D02*
X173000000Y-86943146D01*
X179997236Y-96203123D02*
X180633631Y-96839518D01*
X177522360Y-96203123D02*
X179997236Y-96203123D01*
X172926167Y-100799316D02*
X177522360Y-96203123D01*
X186962000Y-113600000D02*
X186962000Y-110400000D01*
X173000000Y-82101140D02*
X164621640Y-82101140D01*
X164621640Y-82101140D02*
X164600000Y-82079500D01*
X164600000Y-82079500D02*
X164600000Y-81362000D01*
X115378002Y-84375000D02*
X113400000Y-84375000D01*
X116153002Y-83600000D02*
X115378002Y-84375000D01*
X117700001Y-86153001D02*
X117700001Y-85146999D01*
X113400000Y-103375000D02*
X113400000Y-102096998D01*
X117700001Y-85146999D02*
X116153002Y-83600000D01*
X113400000Y-102096998D02*
X113000000Y-101696998D01*
X150700001Y-102675001D02*
X151400000Y-103375000D01*
X150700001Y-91699999D02*
X150700001Y-102675001D01*
X151400000Y-83096999D02*
X152471999Y-82024999D01*
X151400000Y-84375000D02*
X151400000Y-83096999D01*
X152471999Y-82024999D02*
X153528001Y-82024999D01*
X153528001Y-82024999D02*
X155800000Y-84296998D01*
X155800000Y-84296998D02*
X155800000Y-86600000D01*
X155800000Y-86600000D02*
X150700001Y-91699999D01*
X180079501Y-116800001D02*
X183761999Y-116800001D01*
X178679500Y-115400000D02*
X180079501Y-116800001D01*
X183761999Y-116800001D02*
X186962000Y-113600000D01*
X177962000Y-115400000D02*
X178679500Y-115400000D01*
X113400000Y-102096998D02*
X113400000Y-102385051D01*
X113400000Y-102385051D02*
X113400000Y-103375000D01*
D38*
X164854000Y-81362000D02*
X164600000Y-81362000D01*
D37*
X175437427Y-89380575D02*
X174128247Y-88071393D01*
X174128247Y-88071393D02*
X173491852Y-87434998D01*
X175437427Y-91643314D02*
X175437427Y-89380575D01*
X179997236Y-96203123D02*
X175437427Y-91643314D01*
X132400000Y-102385051D02*
X132400000Y-103375000D01*
X132099999Y-102085050D02*
X132400000Y-102385051D01*
X164346000Y-81362000D02*
X164600000Y-81362000D01*
X157808978Y-74824978D02*
X164346000Y-81362000D01*
X121931543Y-74824978D02*
X157808978Y-74824978D01*
X117350012Y-79406509D02*
X121931543Y-74824978D01*
X117350012Y-82402990D02*
X117350012Y-79406509D01*
X116153002Y-83600000D02*
X117350012Y-82402990D01*
X170688998Y-119800000D02*
X173044499Y-117444499D01*
X151200000Y-119800000D02*
X170688998Y-119800000D01*
X148450000Y-120200000D02*
X150800000Y-120200000D01*
X150800000Y-120200000D02*
X151200000Y-119800000D01*
X177962000Y-116371500D02*
X177962000Y-115400000D01*
X177511988Y-116821512D02*
X177962000Y-116371500D01*
X173044499Y-117444499D02*
X173667486Y-116821512D01*
X132099999Y-94900001D02*
X132099999Y-102085050D01*
X113000000Y-101696998D02*
X113000000Y-95600000D01*
X113000000Y-95600000D02*
X113000000Y-90853002D01*
X175178488Y-116821512D02*
X177511988Y-116821512D01*
X173667486Y-116821512D02*
X175178488Y-116821512D01*
X174801121Y-112029909D02*
X174421303Y-111650091D01*
X171727721Y-111650091D02*
X169077630Y-109000000D01*
X174801121Y-116444145D02*
X174801121Y-112029909D01*
X169077630Y-109000000D02*
X168000000Y-109000000D01*
X175178488Y-116821512D02*
X174801121Y-116444145D01*
X174421303Y-111650091D02*
X171727721Y-111650091D01*
X151400000Y-102096998D02*
X151400000Y-103375000D01*
X152471999Y-101024999D02*
X151400000Y-102096998D01*
X154424999Y-101024999D02*
X152471999Y-101024999D01*
X168000000Y-109000000D02*
X162400000Y-109000000D01*
X162400000Y-109000000D02*
X154424999Y-101024999D01*
X171325483Y-102400000D02*
X168362000Y-102400000D01*
X172926167Y-100799316D02*
X171325483Y-102400000D01*
X136874989Y-84417466D02*
X136874989Y-86525011D01*
X132400000Y-84375000D02*
X132400000Y-83096998D01*
X132400000Y-83096998D02*
X133471999Y-82024999D01*
X134482522Y-82024999D02*
X136874989Y-84417466D01*
X133471999Y-82024999D02*
X134482522Y-82024999D01*
X132099999Y-91300001D02*
X132099999Y-94900001D01*
X132099999Y-92700001D02*
X132099999Y-94900001D01*
X136500000Y-86900000D02*
X132099999Y-91300001D01*
X136874989Y-86525011D02*
X136500000Y-86900000D01*
X136400000Y-87000000D02*
X136500000Y-86900000D01*
X141150012Y-94624988D02*
X141150012Y-100493467D01*
X151400000Y-84375000D02*
X141150012Y-94624988D01*
X141150012Y-100493467D02*
X139893467Y-101750012D01*
X139893467Y-101750012D02*
X137706533Y-101750012D01*
X137706533Y-101750012D02*
X136400000Y-100443479D01*
X136400000Y-100443479D02*
X136400000Y-87000000D01*
X113000000Y-90853002D02*
X117426501Y-86426501D01*
X117426501Y-86426501D02*
X117700001Y-86153001D01*
X117400000Y-86453002D02*
X117426501Y-86426501D01*
X117400000Y-100443478D02*
X117400000Y-86453002D01*
X132400000Y-84400000D02*
X122150012Y-94649988D01*
X132400000Y-84375000D02*
X132400000Y-84400000D01*
X122150012Y-94649988D02*
X122150012Y-100493467D01*
X122150012Y-100493467D02*
X121043479Y-101600000D01*
X121043479Y-101600000D02*
X118556522Y-101600000D01*
X118556522Y-101600000D02*
X117400000Y-100443478D01*
X179194113Y-95400000D02*
X179997236Y-96203123D01*
X167834998Y-93091852D02*
X170143146Y-95400000D01*
X170143146Y-95400000D02*
X179194113Y-95400000D01*
X173298860Y-82400000D02*
X173000000Y-82101140D01*
X175000000Y-82400000D02*
X173298860Y-82400000D01*
D39*
X174350000Y-75600000D02*
X174450000Y-75700000D01*
X174499999Y-75749999D02*
X174499999Y-76590001D01*
X174499999Y-76590001D02*
X175009990Y-77099992D01*
X175009990Y-77099992D02*
X175849992Y-77099992D01*
X175849992Y-77099992D02*
X175850002Y-77100002D01*
X174350000Y-75600000D02*
X174499999Y-75749999D01*
X179225605Y-77100002D02*
X180200000Y-78074397D01*
X175850002Y-77100002D02*
X179225605Y-77100002D01*
X180200000Y-78074397D02*
X180200000Y-79838000D01*
D38*
X180012000Y-79650000D02*
X180200000Y-79838000D01*
X178000000Y-79650000D02*
X180012000Y-79650000D01*
D37*
X176000000Y-79650000D02*
X175950000Y-79650000D01*
D39*
X175000000Y-75600000D02*
X174900000Y-75700000D01*
X180518198Y-77756198D02*
X182600000Y-79838000D01*
X179412002Y-76650002D02*
X180518198Y-77756198D01*
X175210000Y-76650002D02*
X179412002Y-76650002D01*
X175149999Y-76590001D02*
X175210000Y-76650002D01*
X175000000Y-75600000D02*
X175000000Y-75613603D01*
X175000000Y-75613603D02*
X175149999Y-75763602D01*
X175149999Y-75763602D02*
X175149999Y-76590001D01*
D38*
X180897001Y-80719499D02*
X177861975Y-80719499D01*
X176600000Y-79650000D02*
X176000000Y-79650000D01*
X176792476Y-79650000D02*
X176600000Y-79650000D01*
X182600000Y-79838000D02*
X181778500Y-79838000D01*
X177861975Y-80719499D02*
X176792476Y-79650000D01*
X181778500Y-79838000D02*
X180897001Y-80719499D01*
X181765002Y-93091852D02*
X188781855Y-86074999D01*
X188781855Y-86074999D02*
X188781855Y-86018145D01*
X188900000Y-80208500D02*
X188900000Y-79260000D01*
X189923501Y-81232001D02*
X188900000Y-80208500D01*
X189923501Y-84876499D02*
X189923501Y-81232001D01*
X188781855Y-86018145D02*
X189923501Y-84876499D01*
X187383501Y-85210611D02*
X185297056Y-87297056D01*
X187383501Y-80283501D02*
X187383501Y-85210611D01*
X186360000Y-79260000D02*
X187383501Y-80283501D01*
X180633631Y-91960482D02*
X185297056Y-87297056D01*
X185297056Y-87297056D02*
X185400000Y-87194113D01*
X163500000Y-72850000D02*
X163225000Y-72850000D01*
X164600000Y-73950000D02*
X163500000Y-72850000D01*
X164600000Y-79838000D02*
X164600000Y-73950000D01*
X164562000Y-79800000D02*
X164600000Y-79838000D01*
X148450000Y-118600000D02*
X147292176Y-118600000D01*
X147292176Y-118600000D02*
X146549977Y-119342199D01*
X158250000Y-72850000D02*
X157975000Y-72850000D01*
X158500000Y-72600000D02*
X158250000Y-72850000D01*
X161950000Y-72600000D02*
X158500000Y-72600000D01*
X163225000Y-72850000D02*
X162200000Y-72850000D01*
X162200000Y-72850000D02*
X161950000Y-72600000D01*
X182153928Y-96910228D02*
X181835711Y-96910228D01*
X187503488Y-96703488D02*
X182360668Y-96703488D01*
X188925012Y-98125012D02*
X187503488Y-96703488D01*
X188600000Y-114708824D02*
X188600000Y-105713479D01*
X181508824Y-121800000D02*
X188600000Y-114708824D01*
X146549977Y-119342199D02*
X146549977Y-121057801D01*
X188925012Y-105388467D02*
X188925012Y-98125012D01*
X188600000Y-105713479D02*
X188925012Y-105388467D01*
X147292176Y-121800000D02*
X181508824Y-121800000D01*
X146549977Y-121057801D02*
X147292176Y-121800000D01*
X182360668Y-96703488D02*
X182153928Y-96910228D01*
X181835711Y-96910228D02*
X181199316Y-96273833D01*
X144857801Y-119342199D02*
X146549977Y-119342199D01*
X111000000Y-107042057D02*
X124957943Y-121000000D01*
X111000000Y-84621587D02*
X111000000Y-107042057D01*
X143200000Y-121000000D02*
X144857801Y-119342199D01*
X124957943Y-121000000D02*
X143200000Y-121000000D01*
X112721599Y-82899988D02*
X111000000Y-84621587D01*
X156950000Y-72850000D02*
X155600000Y-74200000D01*
X157975000Y-72850000D02*
X156950000Y-72850000D01*
X155600000Y-74200000D02*
X121600000Y-74200000D01*
X113401014Y-82899988D02*
X112721599Y-82899988D01*
X121600000Y-74200000D02*
X116825001Y-78974999D01*
X116825001Y-78974999D02*
X116825001Y-79476001D01*
X116825001Y-79476001D02*
X113401014Y-82899988D01*
X187503488Y-96469173D02*
X187503488Y-96703488D01*
X187400000Y-96365685D02*
X187503488Y-96469173D01*
X187400000Y-95800000D02*
X187400000Y-96365685D01*
X189385483Y-84340000D02*
X189470000Y-84340000D01*
X181835711Y-91889772D02*
X181199316Y-92526167D01*
X188201501Y-85523982D02*
X181835711Y-91889772D01*
X188201501Y-85038499D02*
X188201501Y-85523982D01*
X188900000Y-84340000D02*
X188201501Y-85038499D01*
X111450011Y-106855658D02*
X111450011Y-84807986D01*
X122194353Y-117600000D02*
X111450011Y-106855658D01*
X111450011Y-84807986D02*
X112907998Y-83349999D01*
X114010051Y-83125000D02*
X115000000Y-83125000D01*
X112907998Y-83349999D02*
X113785052Y-83349999D01*
X142350000Y-117600000D02*
X122194353Y-117600000D01*
X113785052Y-83349999D02*
X114010051Y-83125000D01*
X142350000Y-117100000D02*
X141425000Y-117100000D01*
X141425000Y-117100000D02*
X141375011Y-117149989D01*
X115610051Y-85625000D02*
X116600000Y-85625000D01*
X114175000Y-85625000D02*
X115610051Y-85625000D01*
X111900022Y-87899978D02*
X114175000Y-85625000D01*
X111900022Y-106669259D02*
X111900022Y-87899978D01*
X122380752Y-117149989D02*
X111900022Y-106669259D01*
X141375011Y-117149989D02*
X122380752Y-117149989D01*
X142350000Y-116600000D02*
X122467173Y-116600000D01*
X122467173Y-116600000D02*
X112350033Y-106482860D01*
X112350033Y-106482860D02*
X112350033Y-90474967D01*
X115000000Y-87825000D02*
X115000000Y-86875000D01*
X112350033Y-90474967D02*
X115000000Y-87825000D01*
X115000000Y-107200000D02*
X115000000Y-105875000D01*
X142350000Y-115100000D02*
X122900000Y-115100000D01*
X122900000Y-115100000D02*
X115000000Y-107200000D01*
X113974999Y-106835006D02*
X113974999Y-104914999D01*
X115610051Y-104625000D02*
X116600000Y-104625000D01*
X142350000Y-115600000D02*
X122739993Y-115600000D01*
X122739993Y-115600000D02*
X113974999Y-106835006D01*
X113974999Y-104914999D02*
X114264998Y-104625000D01*
X114264998Y-104625000D02*
X115610051Y-104625000D01*
X115000000Y-102125000D02*
X115000000Y-103253587D01*
X122603583Y-116100000D02*
X141425000Y-116100000D01*
X113524988Y-104728599D02*
X113524988Y-107021405D01*
X113524988Y-107021405D02*
X122603583Y-116100000D01*
X141425000Y-116100000D02*
X142350000Y-116100000D01*
X115000000Y-103253587D02*
X113524988Y-104728599D01*
X133925000Y-86875000D02*
X134000000Y-86875000D01*
X131300022Y-89499978D02*
X133925000Y-86875000D01*
X131300022Y-106432846D02*
X131300022Y-89499978D01*
X142350000Y-113100000D02*
X137967176Y-113100000D01*
X137967176Y-113100000D02*
X131300022Y-106432846D01*
X142350000Y-114100000D02*
X138330765Y-114100000D01*
X138330765Y-114100000D02*
X130850011Y-106619246D01*
X130850011Y-106619246D02*
X130850011Y-88128876D01*
X130850011Y-88128876D02*
X133353887Y-85625000D01*
X133353887Y-85625000D02*
X134610051Y-85625000D01*
X134610051Y-85625000D02*
X135600000Y-85625000D01*
X134000000Y-84114949D02*
X134000000Y-83125000D01*
X134000000Y-84342476D02*
X134000000Y-84114949D01*
X142350000Y-114600000D02*
X138194354Y-114600000D01*
X138194354Y-114600000D02*
X130400000Y-106805646D01*
X130400000Y-106805646D02*
X130400000Y-87942476D01*
X130400000Y-87942476D02*
X134000000Y-84342476D01*
X134000000Y-103114949D02*
X134000000Y-102125000D01*
X132349989Y-104903598D02*
X134000000Y-103253587D01*
X132349989Y-106846402D02*
X132349989Y-104903598D01*
X142350000Y-112600000D02*
X138103587Y-112600000D01*
X138103587Y-112600000D02*
X132349989Y-106846402D01*
X134000000Y-103253587D02*
X134000000Y-103114949D01*
X134610051Y-104625000D02*
X135600000Y-104625000D01*
X132800000Y-106660002D02*
X132800000Y-105089998D01*
X138239998Y-112100000D02*
X132800000Y-106660002D01*
X142350000Y-112100000D02*
X138239998Y-112100000D01*
X132800000Y-105089998D02*
X133264998Y-104625000D01*
X133264998Y-104625000D02*
X134610051Y-104625000D01*
X134000000Y-107200000D02*
X134000000Y-105875000D01*
X142350000Y-111000000D02*
X137800000Y-111000000D01*
X137800000Y-111000000D02*
X134000000Y-107200000D01*
X153000000Y-84114949D02*
X153000000Y-83125000D01*
X153000000Y-84253587D02*
X153000000Y-84114949D01*
X149000000Y-88253587D02*
X153000000Y-84253587D01*
X148450000Y-111000000D02*
X149000000Y-110450000D01*
X149000000Y-110450000D02*
X149000000Y-88253587D01*
X152264998Y-85625000D02*
X153610051Y-85625000D01*
X153610051Y-85625000D02*
X154600000Y-85625000D01*
X149474999Y-88414999D02*
X152264998Y-85625000D01*
X149474999Y-111979361D02*
X149474999Y-88414999D01*
X149354360Y-112100000D02*
X149474999Y-111979361D01*
X148450000Y-112100000D02*
X149354360Y-112100000D01*
X152075000Y-86875000D02*
X153000000Y-86875000D01*
X149490770Y-112600000D02*
X150000000Y-112090770D01*
X148450000Y-112600000D02*
X149490770Y-112600000D01*
X150000000Y-112090770D02*
X150000000Y-88600000D01*
X150000000Y-88600000D02*
X151800000Y-86800000D01*
X151800000Y-86800000D02*
X152000000Y-86800000D01*
X152000000Y-86800000D02*
X152075000Y-86875000D01*
X153000000Y-111000000D02*
X153000000Y-105875000D01*
X149400000Y-114600000D02*
X153000000Y-111000000D01*
X148450000Y-114600000D02*
X149400000Y-114600000D01*
X151700000Y-111663590D02*
X149263590Y-114100000D01*
X152264998Y-104625000D02*
X151700000Y-105189998D01*
X149263590Y-114100000D02*
X148450000Y-114100000D01*
X151700000Y-105189998D02*
X151700000Y-111663590D01*
X154600000Y-104625000D02*
X152264998Y-104625000D01*
X151249989Y-105003598D02*
X153000000Y-103253587D01*
X153000000Y-103253587D02*
X153000000Y-103114949D01*
X151249989Y-111477191D02*
X151249989Y-105003598D01*
X153000000Y-103114949D02*
X153000000Y-102125000D01*
X148450000Y-113100000D02*
X149627180Y-113100000D01*
X149627180Y-113100000D02*
X151249989Y-111477191D01*
X151329512Y-117145488D02*
X155885988Y-117145488D01*
X155885988Y-117145488D02*
X156978500Y-118238000D01*
X156978500Y-118238000D02*
X157800000Y-118238000D01*
X148450000Y-119100000D02*
X149375000Y-119100000D01*
X149375000Y-119100000D02*
X151329512Y-117145488D01*
X188054512Y-114617901D02*
X181322424Y-121349989D01*
X146999988Y-120871401D02*
X146999988Y-119528599D01*
X178370889Y-99102260D02*
X183000000Y-103731371D01*
X147428587Y-119100000D02*
X147525000Y-119100000D01*
X146999988Y-119528599D02*
X147428587Y-119100000D01*
X147525000Y-119100000D02*
X148450000Y-119100000D01*
X147478576Y-121349989D02*
X146999988Y-120871401D01*
X181322424Y-121349989D02*
X147478576Y-121349989D01*
X188054512Y-109054512D02*
X188054512Y-114617901D01*
X183000000Y-104000000D02*
X188054512Y-109054512D01*
X183000000Y-103731371D02*
X183000000Y-104000000D01*
X148450000Y-119600000D02*
X150657524Y-119600000D01*
X154378500Y-118238000D02*
X155200000Y-118238000D01*
X153735999Y-117595499D02*
X154378500Y-118238000D01*
X151768499Y-117595499D02*
X153735999Y-117595499D01*
X151138025Y-118225973D02*
X151768499Y-117595499D01*
X151138025Y-119119499D02*
X151138025Y-118225973D01*
X150657524Y-119600000D02*
X151138025Y-119119499D01*
X147564998Y-119600000D02*
X148450000Y-119600000D01*
X177805204Y-99667946D02*
X187604501Y-109467243D01*
X147449999Y-119714999D02*
X147564998Y-119600000D01*
X187604501Y-109467243D02*
X187604501Y-114431501D01*
X147449999Y-120685001D02*
X147449999Y-119714999D01*
X181136024Y-120899978D02*
X147664976Y-120899978D01*
X147664976Y-120899978D02*
X147449999Y-120685001D01*
X187604501Y-114431501D02*
X181136024Y-120899978D01*
D39*
X177775000Y-88278374D02*
X177487005Y-88566369D01*
X177487005Y-88566369D02*
X177239518Y-88566369D01*
X180200000Y-82219251D02*
X181175000Y-83194251D01*
X180200000Y-81362000D02*
X180200000Y-82219251D01*
X181175000Y-83194251D02*
X181175000Y-84878374D01*
X181175000Y-84878374D02*
X177487005Y-88566369D01*
X177805204Y-88884568D02*
X177805204Y-89132054D01*
X181625000Y-85064772D02*
X177805204Y-88884568D01*
X181625000Y-83194251D02*
X181625000Y-85064772D01*
X182600000Y-81362000D02*
X182600000Y-82219251D01*
X182600000Y-82219251D02*
X181625000Y-83194251D01*
D38*
X141425000Y-120200000D02*
X142350000Y-120200000D01*
X139459500Y-120200000D02*
X141425000Y-120200000D01*
X139221500Y-119962000D02*
X139459500Y-120200000D01*
X138400000Y-119962000D02*
X139221500Y-119962000D01*
X184400000Y-113600000D02*
X185438000Y-113600000D01*
X182500000Y-115500000D02*
X184400000Y-113600000D01*
X176673833Y-100799316D02*
X177310228Y-101435711D01*
X184870500Y-113600000D02*
X185438000Y-113600000D01*
X181274999Y-111038561D02*
X181961439Y-111725001D01*
X181961439Y-111725001D02*
X182995501Y-111725001D01*
X181274999Y-110478952D02*
X181274999Y-111038561D01*
X182995501Y-111725001D02*
X184870500Y-113600000D01*
X177310228Y-106514181D02*
X181274999Y-110478952D01*
X177310228Y-101435711D02*
X177310228Y-106514181D01*
X185338000Y-110500000D02*
X185438000Y-110400000D01*
X182500000Y-110500000D02*
X185338000Y-110500000D01*
X177875913Y-100870026D02*
X177239518Y-100233631D01*
X185438000Y-110400000D02*
X185438000Y-108432113D01*
X185438000Y-108432113D02*
X177875913Y-100870026D01*
X171158401Y-88495659D02*
X171794796Y-89132054D01*
X162791121Y-88000000D02*
X170662742Y-88000000D01*
X155974999Y-81183878D02*
X162791121Y-88000000D01*
X155974999Y-78237586D02*
X155974999Y-81183878D01*
X153537413Y-75800000D02*
X155974999Y-78237586D01*
X122600000Y-75800000D02*
X153537413Y-75800000D01*
X170662742Y-88000000D02*
X171158401Y-88495659D01*
X119800000Y-80400000D02*
X119800000Y-78600000D01*
X119800000Y-78600000D02*
X122600000Y-75800000D01*
X119800000Y-97278680D02*
X119800000Y-99400000D01*
X119800000Y-94200000D02*
X119800000Y-97278680D01*
X132950023Y-81049977D02*
X119800000Y-94200000D01*
X138800000Y-76400000D02*
X134150023Y-81049977D01*
X170031349Y-88499978D02*
X162654689Y-88499978D01*
X171229111Y-89697740D02*
X170031349Y-88499978D01*
X162654689Y-88499978D02*
X154825001Y-80670290D01*
X134150023Y-81049977D02*
X132950023Y-81049977D01*
X154825001Y-77723999D02*
X153501002Y-76400000D01*
X154825001Y-80670290D02*
X154825001Y-77723999D01*
X153501002Y-76400000D02*
X138800000Y-76400000D01*
X154018278Y-80499978D02*
X162468288Y-88949989D01*
X152327222Y-80400000D02*
X152427200Y-80499978D01*
X169349989Y-88949989D02*
X170027030Y-89627030D01*
X162468288Y-88949989D02*
X169349989Y-88949989D01*
X170027030Y-89627030D02*
X170663425Y-90263425D01*
X152427200Y-80499978D02*
X154018278Y-80499978D01*
X138800000Y-80400000D02*
X152327222Y-80400000D01*
X169461345Y-90192716D02*
X170097740Y-90829111D01*
X153931867Y-81049977D02*
X162281889Y-89400000D01*
X151950023Y-81049977D02*
X153931867Y-81049977D01*
X138800000Y-94200000D02*
X151950023Y-81049977D01*
X168668629Y-89400000D02*
X169461345Y-90192716D01*
X162281889Y-89400000D02*
X168668629Y-89400000D01*
X138800000Y-99400000D02*
X138800000Y-94200000D01*
X157800000Y-78844366D02*
X157800000Y-80400000D01*
X122149009Y-75349989D02*
X154305623Y-75349989D01*
X117974999Y-79523999D02*
X122149009Y-75349989D01*
X117974999Y-84629520D02*
X117974999Y-79523999D01*
X118225012Y-84879533D02*
X117974999Y-84629520D01*
X118225012Y-86370467D02*
X118225012Y-84879533D01*
X117974999Y-86620480D02*
X118225012Y-86370467D01*
X118773987Y-101074989D02*
X117974999Y-100276001D01*
X120782535Y-101074989D02*
X118773987Y-101074989D01*
X121625001Y-100232523D02*
X120782535Y-101074989D01*
X154305623Y-75349989D02*
X157800000Y-78844366D01*
X140625001Y-93011409D02*
X140625001Y-100276001D01*
X152136422Y-81499988D02*
X140625001Y-93011409D01*
X121625001Y-93129520D02*
X121625001Y-100232523D01*
X153745467Y-81499988D02*
X152136422Y-81499988D01*
X163003880Y-90758401D02*
X153745467Y-81499988D01*
X169532054Y-91394796D02*
X168895659Y-90758401D01*
X168895659Y-90758401D02*
X163003880Y-90758401D01*
X137400000Y-98098998D02*
X137400000Y-84200000D01*
X134699988Y-81499988D02*
X133254533Y-81499988D01*
X140625001Y-100276001D02*
X139676001Y-101225001D01*
X139676001Y-101225001D02*
X137923999Y-101225001D01*
X137923999Y-101225001D02*
X136974999Y-100276001D01*
X117974999Y-100276001D02*
X117974999Y-86620480D01*
X137400000Y-84200000D02*
X134699988Y-81499988D01*
X136974999Y-100276001D02*
X136974999Y-98523999D01*
X136974999Y-98523999D02*
X137400000Y-98098998D01*
X133254533Y-81499988D02*
X121625001Y-93129520D01*
X159299999Y-97900001D02*
X157800000Y-99400000D01*
X165875913Y-91324087D02*
X159299999Y-97900001D01*
X168329974Y-91324087D02*
X165875913Y-91324087D01*
X168966369Y-91960482D02*
X168329974Y-91324087D01*
X166000000Y-115000000D02*
X168000000Y-117000000D01*
X153713468Y-115000000D02*
X166000000Y-115000000D01*
X153613468Y-115100000D02*
X153713468Y-115000000D01*
X148450000Y-115100000D02*
X153613468Y-115100000D01*
X169087001Y-116087001D02*
X168761999Y-115761999D01*
X167359825Y-118087001D02*
X168521761Y-118087001D01*
X168761999Y-115761999D02*
X168000000Y-115000000D01*
X169087001Y-117521761D02*
X169087001Y-116087001D01*
X164872824Y-115600000D02*
X167359825Y-118087001D01*
X148450000Y-115600000D02*
X164872824Y-115600000D01*
X168521761Y-118087001D02*
X169087001Y-117521761D01*
X176438000Y-111960880D02*
X176598880Y-111800000D01*
X176438000Y-115400000D02*
X176438000Y-111960880D01*
X176398550Y-111800000D02*
X176598880Y-111800000D01*
X173773571Y-109175021D02*
X176398550Y-111800000D01*
X167198603Y-96344543D02*
X167198603Y-96662758D01*
X167834998Y-95708148D02*
X167198603Y-96344543D01*
X167198603Y-96662758D02*
X167600000Y-97064155D01*
X167600000Y-97064155D02*
X167600000Y-103351000D01*
X167600000Y-103351000D02*
X173424021Y-109175021D01*
X173424021Y-109175021D02*
X173773571Y-109175021D01*
X148450000Y-116100000D02*
X164663590Y-116100000D01*
X164663590Y-116100000D02*
X167213599Y-118650009D01*
X167213599Y-118650009D02*
X170461993Y-118650009D01*
X172880501Y-114568499D02*
X169312002Y-111000000D01*
X169077630Y-111000000D02*
X168000000Y-111000000D01*
X169312002Y-111000000D02*
X169077630Y-111000000D01*
X170461993Y-118650009D02*
X172880501Y-116231501D01*
X172880501Y-116231501D02*
X172880501Y-114568499D01*
X173762000Y-112789080D02*
X173801120Y-112749960D01*
X173762000Y-115400000D02*
X173762000Y-112789080D01*
X170400000Y-115400000D02*
X172238000Y-115400000D01*
X168000000Y-113000000D02*
X170400000Y-115400000D01*
D40*
G36*
X156565000Y-70864250D02*
G01*
X156723750Y-71023000D01*
X157848000Y-71023000D01*
X157848000Y-71003000D01*
X158102000Y-71003000D01*
X158102000Y-71023000D01*
X159226250Y-71023000D01*
X159385000Y-70864250D01*
X159387212Y-70710000D01*
X159640000Y-70710000D01*
X159640000Y-70744552D01*
X159676892Y-70930022D01*
X159749259Y-71104731D01*
X159854319Y-71261964D01*
X159988036Y-71395681D01*
X160145269Y-71500741D01*
X160319978Y-71573108D01*
X160505448Y-71610000D01*
X160694552Y-71610000D01*
X160880022Y-71573108D01*
X161054731Y-71500741D01*
X161211964Y-71395681D01*
X161345681Y-71261964D01*
X161450741Y-71104731D01*
X161523108Y-70930022D01*
X161560000Y-70744552D01*
X161560000Y-70710000D01*
X161812788Y-70710000D01*
X161815000Y-70864250D01*
X161973750Y-71023000D01*
X163098000Y-71023000D01*
X163098000Y-71003000D01*
X163352000Y-71003000D01*
X163352000Y-71023000D01*
X164476250Y-71023000D01*
X164635000Y-70864250D01*
X164637212Y-70710000D01*
X168592037Y-70710000D01*
X168517350Y-70895486D01*
X168465000Y-71173000D01*
X168465000Y-71473000D01*
X169773000Y-71473000D01*
X169773000Y-71453000D01*
X170027000Y-71453000D01*
X170027000Y-71473000D01*
X170047000Y-71473000D01*
X170047000Y-71727000D01*
X170027000Y-71727000D01*
X170027000Y-73169915D01*
X170249039Y-73291904D01*
X170331818Y-73274367D01*
X170590001Y-73164416D01*
X170590001Y-73735584D01*
X170331818Y-73625633D01*
X170249039Y-73608096D01*
X170027000Y-73730085D01*
X170027000Y-75173000D01*
X170047000Y-75173000D01*
X170047000Y-75427000D01*
X170027000Y-75427000D01*
X170027000Y-76869915D01*
X170249039Y-76991904D01*
X170331818Y-76974367D01*
X170591646Y-76863715D01*
X170824895Y-76704500D01*
X171022601Y-76502839D01*
X171122550Y-76350000D01*
X171461928Y-76350000D01*
X171474188Y-76474482D01*
X171510498Y-76594180D01*
X171569463Y-76704494D01*
X171648815Y-76801185D01*
X171745506Y-76880537D01*
X171855820Y-76939502D01*
X171975518Y-76975812D01*
X172100000Y-76988072D01*
X172389250Y-76985000D01*
X172548000Y-76826250D01*
X172548000Y-75727000D01*
X171623750Y-75727000D01*
X171465000Y-75885750D01*
X171461928Y-76350000D01*
X171122550Y-76350000D01*
X171177166Y-76266483D01*
X171282650Y-76004514D01*
X171335000Y-75727000D01*
X171335000Y-75310000D01*
X171464972Y-75310000D01*
X171465000Y-75314250D01*
X171623750Y-75473000D01*
X172548000Y-75473000D01*
X172548000Y-75453000D01*
X172802000Y-75453000D01*
X172802000Y-75473000D01*
X172822000Y-75473000D01*
X172822000Y-75727000D01*
X172802000Y-75727000D01*
X172802000Y-76826250D01*
X172865000Y-76889250D01*
X172865001Y-77960408D01*
X171750320Y-77960408D01*
X171625838Y-77972668D01*
X171506140Y-78008978D01*
X171395826Y-78067943D01*
X171299135Y-78147295D01*
X171219783Y-78243986D01*
X171209160Y-78263860D01*
X169462658Y-78263860D01*
X169421640Y-78259820D01*
X169380622Y-78263860D01*
X169380621Y-78263860D01*
X169257951Y-78275942D01*
X169100553Y-78323688D01*
X168955494Y-78401224D01*
X168828349Y-78505569D01*
X168818595Y-78517455D01*
X168806709Y-78527209D01*
X168702365Y-78654354D01*
X168702364Y-78654355D01*
X168624828Y-78799414D01*
X168584973Y-78930800D01*
X168584320Y-78930998D01*
X168474006Y-78989963D01*
X168458120Y-79003000D01*
X167941880Y-79003000D01*
X167925994Y-78989963D01*
X167815680Y-78930998D01*
X167695982Y-78894688D01*
X167571500Y-78882428D01*
X166428500Y-78882428D01*
X166304018Y-78894688D01*
X166184320Y-78930998D01*
X166074006Y-78989963D01*
X165977315Y-79069315D01*
X165897963Y-79166006D01*
X165838998Y-79276320D01*
X165802688Y-79396018D01*
X165800000Y-79423311D01*
X165797312Y-79396018D01*
X165761002Y-79276320D01*
X165702037Y-79166006D01*
X165622685Y-79069315D01*
X165525994Y-78989963D01*
X165415680Y-78930998D01*
X165360000Y-78914108D01*
X165360000Y-75427000D01*
X168465000Y-75427000D01*
X168465000Y-75727000D01*
X168517350Y-76004514D01*
X168622834Y-76266483D01*
X168777399Y-76502839D01*
X168975105Y-76704500D01*
X169208354Y-76863715D01*
X169468182Y-76974367D01*
X169550961Y-76991904D01*
X169773000Y-76869915D01*
X169773000Y-75427000D01*
X168465000Y-75427000D01*
X165360000Y-75427000D01*
X165360000Y-74873000D01*
X168465000Y-74873000D01*
X168465000Y-75173000D01*
X169773000Y-75173000D01*
X169773000Y-73730085D01*
X169550961Y-73608096D01*
X169468182Y-73625633D01*
X169208354Y-73736285D01*
X168975105Y-73895500D01*
X168777399Y-74097161D01*
X168622834Y-74333517D01*
X168517350Y-74595486D01*
X168465000Y-74873000D01*
X165360000Y-74873000D01*
X165360000Y-73987323D01*
X165363676Y-73950000D01*
X165360000Y-73912677D01*
X165360000Y-73912667D01*
X165349003Y-73801014D01*
X165305546Y-73657753D01*
X165280021Y-73610000D01*
X165234974Y-73525723D01*
X165163799Y-73438997D01*
X165140001Y-73409999D01*
X165111003Y-73386201D01*
X164638072Y-72913270D01*
X164638072Y-72350000D01*
X164625812Y-72225518D01*
X164589502Y-72105820D01*
X164532939Y-72000000D01*
X164589502Y-71894180D01*
X164625812Y-71774482D01*
X164630488Y-71727000D01*
X168465000Y-71727000D01*
X168465000Y-72027000D01*
X168517350Y-72304514D01*
X168622834Y-72566483D01*
X168777399Y-72802839D01*
X168975105Y-73004500D01*
X169208354Y-73163715D01*
X169468182Y-73274367D01*
X169550961Y-73291904D01*
X169773000Y-73169915D01*
X169773000Y-71727000D01*
X168465000Y-71727000D01*
X164630488Y-71727000D01*
X164638072Y-71650000D01*
X164635000Y-71435750D01*
X164476250Y-71277000D01*
X163352000Y-71277000D01*
X163352000Y-71297000D01*
X163098000Y-71297000D01*
X163098000Y-71277000D01*
X161973750Y-71277000D01*
X161815000Y-71435750D01*
X161811928Y-71650000D01*
X161824188Y-71774482D01*
X161844063Y-71840000D01*
X159355937Y-71840000D01*
X159375812Y-71774482D01*
X159388072Y-71650000D01*
X159385000Y-71435750D01*
X159226250Y-71277000D01*
X158102000Y-71277000D01*
X158102000Y-71297000D01*
X157848000Y-71297000D01*
X157848000Y-71277000D01*
X156723750Y-71277000D01*
X156565000Y-71435750D01*
X156561928Y-71650000D01*
X156574188Y-71774482D01*
X156610498Y-71894180D01*
X156667061Y-72000000D01*
X156610498Y-72105820D01*
X156587366Y-72182077D01*
X156525724Y-72215026D01*
X156409999Y-72309999D01*
X156386201Y-72338997D01*
X155285199Y-73440000D01*
X121637322Y-73440000D01*
X121599999Y-73436324D01*
X121562676Y-73440000D01*
X121562667Y-73440000D01*
X121451014Y-73450997D01*
X121307753Y-73494454D01*
X121175724Y-73565026D01*
X121059999Y-73659999D01*
X121036201Y-73688997D01*
X116653078Y-78072121D01*
X116587336Y-77879034D01*
X116481338Y-77680726D01*
X116206712Y-77572893D01*
X115179605Y-78600000D01*
X115193748Y-78614143D01*
X115014143Y-78793748D01*
X115000000Y-78779605D01*
X113972893Y-79806712D01*
X114080726Y-80081338D01*
X114387384Y-80232216D01*
X114717585Y-80320369D01*
X114894405Y-80331796D01*
X113086213Y-82139988D01*
X112758924Y-82139988D01*
X112721599Y-82136312D01*
X112684274Y-82139988D01*
X112684266Y-82139988D01*
X112572613Y-82150985D01*
X112429352Y-82194442D01*
X112297323Y-82265014D01*
X112181598Y-82359987D01*
X112157800Y-82388985D01*
X110489003Y-84057783D01*
X110459999Y-84081586D01*
X110417551Y-84133310D01*
X110365026Y-84197311D01*
X110303349Y-84312700D01*
X110294454Y-84329341D01*
X110250997Y-84472602D01*
X110240000Y-84584255D01*
X110240000Y-84584265D01*
X110236324Y-84621587D01*
X110240000Y-84658909D01*
X110240001Y-107004724D01*
X110236324Y-107042057D01*
X110240001Y-107079390D01*
X110250998Y-107191043D01*
X110256524Y-107209260D01*
X110294454Y-107334303D01*
X110365026Y-107466333D01*
X110425937Y-107540552D01*
X110460000Y-107582058D01*
X110488998Y-107605856D01*
X124394144Y-121511003D01*
X124417942Y-121540001D01*
X124533667Y-121634974D01*
X124665696Y-121705546D01*
X124808957Y-121749003D01*
X124920610Y-121760000D01*
X124920619Y-121760000D01*
X124957942Y-121763676D01*
X124995265Y-121760000D01*
X143162678Y-121760000D01*
X143200000Y-121763676D01*
X143237322Y-121760000D01*
X143237333Y-121760000D01*
X143348986Y-121749003D01*
X143492247Y-121705546D01*
X143624276Y-121634974D01*
X143740001Y-121540001D01*
X143763804Y-121510997D01*
X145172603Y-120102199D01*
X145789977Y-120102199D01*
X145789978Y-121020469D01*
X145786301Y-121057801D01*
X145789978Y-121095134D01*
X145800975Y-121206787D01*
X145814157Y-121250243D01*
X145844431Y-121350047D01*
X145915003Y-121482077D01*
X145958397Y-121534952D01*
X146009977Y-121597802D01*
X146038975Y-121621600D01*
X146728377Y-122311002D01*
X146752175Y-122340001D01*
X146781173Y-122363799D01*
X146867899Y-122434974D01*
X146985709Y-122497945D01*
X146999929Y-122505546D01*
X147143190Y-122549003D01*
X147254843Y-122560000D01*
X147254853Y-122560000D01*
X147292176Y-122563676D01*
X147329499Y-122560000D01*
X181471502Y-122560000D01*
X181508824Y-122563676D01*
X181546146Y-122560000D01*
X181546157Y-122560000D01*
X181657810Y-122549003D01*
X181801071Y-122505546D01*
X181933100Y-122434974D01*
X182048825Y-122340001D01*
X182072628Y-122310997D01*
X183603773Y-120779852D01*
X184764800Y-120779852D01*
X184764800Y-121220148D01*
X184850698Y-121651984D01*
X185019192Y-122058764D01*
X185263807Y-122424857D01*
X185575143Y-122736193D01*
X185941236Y-122980808D01*
X186348016Y-123149302D01*
X186779852Y-123235200D01*
X187220148Y-123235200D01*
X187651984Y-123149302D01*
X188058764Y-122980808D01*
X188424857Y-122736193D01*
X188736193Y-122424857D01*
X188980808Y-122058764D01*
X189149302Y-121651984D01*
X189235200Y-121220148D01*
X189235200Y-120779852D01*
X189149302Y-120348016D01*
X188980808Y-119941236D01*
X188736193Y-119575143D01*
X188424857Y-119263807D01*
X188058764Y-119019192D01*
X187651984Y-118850698D01*
X187220148Y-118764800D01*
X186779852Y-118764800D01*
X186348016Y-118850698D01*
X185941236Y-119019192D01*
X185575143Y-119263807D01*
X185263807Y-119575143D01*
X185019192Y-119941236D01*
X184850698Y-120348016D01*
X184764800Y-120779852D01*
X183603773Y-120779852D01*
X189111004Y-115272622D01*
X189140001Y-115248825D01*
X189234974Y-115133100D01*
X189305546Y-115001071D01*
X189349003Y-114857810D01*
X189360000Y-114746157D01*
X189360000Y-114746148D01*
X189363676Y-114708825D01*
X189360000Y-114671502D01*
X189360000Y-106028281D01*
X189436015Y-105952266D01*
X189465013Y-105928468D01*
X189559986Y-105812743D01*
X189630558Y-105680714D01*
X189674015Y-105537453D01*
X189685012Y-105425800D01*
X189685012Y-105425791D01*
X189688688Y-105388468D01*
X189685012Y-105351145D01*
X189685012Y-98162345D01*
X189688689Y-98125012D01*
X189674015Y-97976026D01*
X189630558Y-97832765D01*
X189559986Y-97700736D01*
X189499481Y-97627010D01*
X189465013Y-97585011D01*
X189436015Y-97561213D01*
X188258773Y-96383972D01*
X188258235Y-96378510D01*
X188317205Y-96290256D01*
X188395226Y-96101898D01*
X188435000Y-95901939D01*
X188435000Y-95698061D01*
X188395226Y-95498102D01*
X188317205Y-95309744D01*
X188203937Y-95140226D01*
X188059774Y-94996063D01*
X187890256Y-94882795D01*
X187701898Y-94804774D01*
X187501939Y-94765000D01*
X187298061Y-94765000D01*
X187098102Y-94804774D01*
X186909744Y-94882795D01*
X186740226Y-94996063D01*
X186596063Y-95140226D01*
X186482795Y-95309744D01*
X186404774Y-95498102D01*
X186365000Y-95698061D01*
X186365000Y-95901939D01*
X186373265Y-95943488D01*
X183152100Y-95943488D01*
X183118179Y-95831664D01*
X183059214Y-95721350D01*
X182979862Y-95624659D01*
X181848491Y-94493288D01*
X181751800Y-94413936D01*
X181725728Y-94400000D01*
X181751800Y-94386064D01*
X181848491Y-94306712D01*
X182979862Y-93175341D01*
X183059214Y-93078650D01*
X183118179Y-92968336D01*
X183154489Y-92848638D01*
X183162297Y-92769358D01*
X189292859Y-86638797D01*
X189321856Y-86615000D01*
X189416829Y-86499275D01*
X189464258Y-86410543D01*
X190290000Y-85584802D01*
X190290001Y-122965269D01*
X190262093Y-123249899D01*
X190189517Y-123490282D01*
X190071633Y-123711989D01*
X189912929Y-123906580D01*
X189719455Y-124066635D01*
X189498576Y-124186064D01*
X189258701Y-124260317D01*
X188976291Y-124290000D01*
X102034721Y-124290000D01*
X101750101Y-124262093D01*
X101509718Y-124189517D01*
X101288011Y-124071633D01*
X101093420Y-123912929D01*
X100933365Y-123719455D01*
X100813936Y-123498576D01*
X100739683Y-123258701D01*
X100710000Y-122976291D01*
X100710000Y-120779852D01*
X101764800Y-120779852D01*
X101764800Y-121220148D01*
X101850698Y-121651984D01*
X102019192Y-122058764D01*
X102263807Y-122424857D01*
X102575143Y-122736193D01*
X102941236Y-122980808D01*
X103348016Y-123149302D01*
X103779852Y-123235200D01*
X104220148Y-123235200D01*
X104651984Y-123149302D01*
X105058764Y-122980808D01*
X105424857Y-122736193D01*
X105736193Y-122424857D01*
X105980808Y-122058764D01*
X106149302Y-121651984D01*
X106235200Y-121220148D01*
X106235200Y-120779852D01*
X106149302Y-120348016D01*
X105980808Y-119941236D01*
X105736193Y-119575143D01*
X105424857Y-119263807D01*
X105058764Y-119019192D01*
X104651984Y-118850698D01*
X104220148Y-118764800D01*
X103779852Y-118764800D01*
X103348016Y-118850698D01*
X102941236Y-119019192D01*
X102575143Y-119263807D01*
X102263807Y-119575143D01*
X102019192Y-119941236D01*
X101850698Y-120348016D01*
X101764800Y-120779852D01*
X100710000Y-120779852D01*
X100710000Y-78658639D01*
X113257591Y-78658639D01*
X113302511Y-78997439D01*
X113412664Y-79320966D01*
X113518662Y-79519274D01*
X113793288Y-79627107D01*
X114820395Y-78600000D01*
X113793288Y-77572893D01*
X113518662Y-77680726D01*
X113367784Y-77987384D01*
X113279631Y-78317585D01*
X113257591Y-78658639D01*
X100710000Y-78658639D01*
X100710000Y-77393288D01*
X113972893Y-77393288D01*
X115000000Y-78420395D01*
X116027107Y-77393288D01*
X115919274Y-77118662D01*
X115612616Y-76967784D01*
X115282415Y-76879631D01*
X114941361Y-76857591D01*
X114602561Y-76902511D01*
X114279034Y-77012664D01*
X114080726Y-77118662D01*
X113972893Y-77393288D01*
X100710000Y-77393288D01*
X100710000Y-73779852D01*
X101764800Y-73779852D01*
X101764800Y-74220148D01*
X101850698Y-74651984D01*
X102019192Y-75058764D01*
X102263807Y-75424857D01*
X102575143Y-75736193D01*
X102941236Y-75980808D01*
X103348016Y-76149302D01*
X103779852Y-76235200D01*
X104220148Y-76235200D01*
X104651984Y-76149302D01*
X105058764Y-75980808D01*
X105424857Y-75736193D01*
X105736193Y-75424857D01*
X105980808Y-75058764D01*
X106149302Y-74651984D01*
X106235200Y-74220148D01*
X106235200Y-73779852D01*
X106149302Y-73348016D01*
X105980808Y-72941236D01*
X105736193Y-72575143D01*
X105424857Y-72263807D01*
X105058764Y-72019192D01*
X104651984Y-71850698D01*
X104220148Y-71764800D01*
X103779852Y-71764800D01*
X103348016Y-71850698D01*
X102941236Y-72019192D01*
X102575143Y-72263807D01*
X102263807Y-72575143D01*
X102019192Y-72941236D01*
X101850698Y-73348016D01*
X101764800Y-73779852D01*
X100710000Y-73779852D01*
X100710000Y-72034721D01*
X100737907Y-71750101D01*
X100810484Y-71509715D01*
X100928368Y-71288009D01*
X101087068Y-71093423D01*
X101280545Y-70933365D01*
X101501424Y-70813936D01*
X101741297Y-70739683D01*
X102023716Y-70710000D01*
X156562788Y-70710000D01*
X156565000Y-70864250D01*
X156565000Y-70864250D01*
G37*
X156565000Y-70864250D02*
X156723750Y-71023000D01*
X157848000Y-71023000D01*
X157848000Y-71003000D01*
X158102000Y-71003000D01*
X158102000Y-71023000D01*
X159226250Y-71023000D01*
X159385000Y-70864250D01*
X159387212Y-70710000D01*
X159640000Y-70710000D01*
X159640000Y-70744552D01*
X159676892Y-70930022D01*
X159749259Y-71104731D01*
X159854319Y-71261964D01*
X159988036Y-71395681D01*
X160145269Y-71500741D01*
X160319978Y-71573108D01*
X160505448Y-71610000D01*
X160694552Y-71610000D01*
X160880022Y-71573108D01*
X161054731Y-71500741D01*
X161211964Y-71395681D01*
X161345681Y-71261964D01*
X161450741Y-71104731D01*
X161523108Y-70930022D01*
X161560000Y-70744552D01*
X161560000Y-70710000D01*
X161812788Y-70710000D01*
X161815000Y-70864250D01*
X161973750Y-71023000D01*
X163098000Y-71023000D01*
X163098000Y-71003000D01*
X163352000Y-71003000D01*
X163352000Y-71023000D01*
X164476250Y-71023000D01*
X164635000Y-70864250D01*
X164637212Y-70710000D01*
X168592037Y-70710000D01*
X168517350Y-70895486D01*
X168465000Y-71173000D01*
X168465000Y-71473000D01*
X169773000Y-71473000D01*
X169773000Y-71453000D01*
X170027000Y-71453000D01*
X170027000Y-71473000D01*
X170047000Y-71473000D01*
X170047000Y-71727000D01*
X170027000Y-71727000D01*
X170027000Y-73169915D01*
X170249039Y-73291904D01*
X170331818Y-73274367D01*
X170590001Y-73164416D01*
X170590001Y-73735584D01*
X170331818Y-73625633D01*
X170249039Y-73608096D01*
X170027000Y-73730085D01*
X170027000Y-75173000D01*
X170047000Y-75173000D01*
X170047000Y-75427000D01*
X170027000Y-75427000D01*
X170027000Y-76869915D01*
X170249039Y-76991904D01*
X170331818Y-76974367D01*
X170591646Y-76863715D01*
X170824895Y-76704500D01*
X171022601Y-76502839D01*
X171122550Y-76350000D01*
X171461928Y-76350000D01*
X171474188Y-76474482D01*
X171510498Y-76594180D01*
X171569463Y-76704494D01*
X171648815Y-76801185D01*
X171745506Y-76880537D01*
X171855820Y-76939502D01*
X171975518Y-76975812D01*
X172100000Y-76988072D01*
X172389250Y-76985000D01*
X172548000Y-76826250D01*
X172548000Y-75727000D01*
X171623750Y-75727000D01*
X171465000Y-75885750D01*
X171461928Y-76350000D01*
X171122550Y-76350000D01*
X171177166Y-76266483D01*
X171282650Y-76004514D01*
X171335000Y-75727000D01*
X171335000Y-75310000D01*
X171464972Y-75310000D01*
X171465000Y-75314250D01*
X171623750Y-75473000D01*
X172548000Y-75473000D01*
X172548000Y-75453000D01*
X172802000Y-75453000D01*
X172802000Y-75473000D01*
X172822000Y-75473000D01*
X172822000Y-75727000D01*
X172802000Y-75727000D01*
X172802000Y-76826250D01*
X172865000Y-76889250D01*
X172865001Y-77960408D01*
X171750320Y-77960408D01*
X171625838Y-77972668D01*
X171506140Y-78008978D01*
X171395826Y-78067943D01*
X171299135Y-78147295D01*
X171219783Y-78243986D01*
X171209160Y-78263860D01*
X169462658Y-78263860D01*
X169421640Y-78259820D01*
X169380622Y-78263860D01*
X169380621Y-78263860D01*
X169257951Y-78275942D01*
X169100553Y-78323688D01*
X168955494Y-78401224D01*
X168828349Y-78505569D01*
X168818595Y-78517455D01*
X168806709Y-78527209D01*
X168702365Y-78654354D01*
X168702364Y-78654355D01*
X168624828Y-78799414D01*
X168584973Y-78930800D01*
X168584320Y-78930998D01*
X168474006Y-78989963D01*
X168458120Y-79003000D01*
X167941880Y-79003000D01*
X167925994Y-78989963D01*
X167815680Y-78930998D01*
X167695982Y-78894688D01*
X167571500Y-78882428D01*
X166428500Y-78882428D01*
X166304018Y-78894688D01*
X166184320Y-78930998D01*
X166074006Y-78989963D01*
X165977315Y-79069315D01*
X165897963Y-79166006D01*
X165838998Y-79276320D01*
X165802688Y-79396018D01*
X165800000Y-79423311D01*
X165797312Y-79396018D01*
X165761002Y-79276320D01*
X165702037Y-79166006D01*
X165622685Y-79069315D01*
X165525994Y-78989963D01*
X165415680Y-78930998D01*
X165360000Y-78914108D01*
X165360000Y-75427000D01*
X168465000Y-75427000D01*
X168465000Y-75727000D01*
X168517350Y-76004514D01*
X168622834Y-76266483D01*
X168777399Y-76502839D01*
X168975105Y-76704500D01*
X169208354Y-76863715D01*
X169468182Y-76974367D01*
X169550961Y-76991904D01*
X169773000Y-76869915D01*
X169773000Y-75427000D01*
X168465000Y-75427000D01*
X165360000Y-75427000D01*
X165360000Y-74873000D01*
X168465000Y-74873000D01*
X168465000Y-75173000D01*
X169773000Y-75173000D01*
X169773000Y-73730085D01*
X169550961Y-73608096D01*
X169468182Y-73625633D01*
X169208354Y-73736285D01*
X168975105Y-73895500D01*
X168777399Y-74097161D01*
X168622834Y-74333517D01*
X168517350Y-74595486D01*
X168465000Y-74873000D01*
X165360000Y-74873000D01*
X165360000Y-73987323D01*
X165363676Y-73950000D01*
X165360000Y-73912677D01*
X165360000Y-73912667D01*
X165349003Y-73801014D01*
X165305546Y-73657753D01*
X165280021Y-73610000D01*
X165234974Y-73525723D01*
X165163799Y-73438997D01*
X165140001Y-73409999D01*
X165111003Y-73386201D01*
X164638072Y-72913270D01*
X164638072Y-72350000D01*
X164625812Y-72225518D01*
X164589502Y-72105820D01*
X164532939Y-72000000D01*
X164589502Y-71894180D01*
X164625812Y-71774482D01*
X164630488Y-71727000D01*
X168465000Y-71727000D01*
X168465000Y-72027000D01*
X168517350Y-72304514D01*
X168622834Y-72566483D01*
X168777399Y-72802839D01*
X168975105Y-73004500D01*
X169208354Y-73163715D01*
X169468182Y-73274367D01*
X169550961Y-73291904D01*
X169773000Y-73169915D01*
X169773000Y-71727000D01*
X168465000Y-71727000D01*
X164630488Y-71727000D01*
X164638072Y-71650000D01*
X164635000Y-71435750D01*
X164476250Y-71277000D01*
X163352000Y-71277000D01*
X163352000Y-71297000D01*
X163098000Y-71297000D01*
X163098000Y-71277000D01*
X161973750Y-71277000D01*
X161815000Y-71435750D01*
X161811928Y-71650000D01*
X161824188Y-71774482D01*
X161844063Y-71840000D01*
X159355937Y-71840000D01*
X159375812Y-71774482D01*
X159388072Y-71650000D01*
X159385000Y-71435750D01*
X159226250Y-71277000D01*
X158102000Y-71277000D01*
X158102000Y-71297000D01*
X157848000Y-71297000D01*
X157848000Y-71277000D01*
X156723750Y-71277000D01*
X156565000Y-71435750D01*
X156561928Y-71650000D01*
X156574188Y-71774482D01*
X156610498Y-71894180D01*
X156667061Y-72000000D01*
X156610498Y-72105820D01*
X156587366Y-72182077D01*
X156525724Y-72215026D01*
X156409999Y-72309999D01*
X156386201Y-72338997D01*
X155285199Y-73440000D01*
X121637322Y-73440000D01*
X121599999Y-73436324D01*
X121562676Y-73440000D01*
X121562667Y-73440000D01*
X121451014Y-73450997D01*
X121307753Y-73494454D01*
X121175724Y-73565026D01*
X121059999Y-73659999D01*
X121036201Y-73688997D01*
X116653078Y-78072121D01*
X116587336Y-77879034D01*
X116481338Y-77680726D01*
X116206712Y-77572893D01*
X115179605Y-78600000D01*
X115193748Y-78614143D01*
X115014143Y-78793748D01*
X115000000Y-78779605D01*
X113972893Y-79806712D01*
X114080726Y-80081338D01*
X114387384Y-80232216D01*
X114717585Y-80320369D01*
X114894405Y-80331796D01*
X113086213Y-82139988D01*
X112758924Y-82139988D01*
X112721599Y-82136312D01*
X112684274Y-82139988D01*
X112684266Y-82139988D01*
X112572613Y-82150985D01*
X112429352Y-82194442D01*
X112297323Y-82265014D01*
X112181598Y-82359987D01*
X112157800Y-82388985D01*
X110489003Y-84057783D01*
X110459999Y-84081586D01*
X110417551Y-84133310D01*
X110365026Y-84197311D01*
X110303349Y-84312700D01*
X110294454Y-84329341D01*
X110250997Y-84472602D01*
X110240000Y-84584255D01*
X110240000Y-84584265D01*
X110236324Y-84621587D01*
X110240000Y-84658909D01*
X110240001Y-107004724D01*
X110236324Y-107042057D01*
X110240001Y-107079390D01*
X110250998Y-107191043D01*
X110256524Y-107209260D01*
X110294454Y-107334303D01*
X110365026Y-107466333D01*
X110425937Y-107540552D01*
X110460000Y-107582058D01*
X110488998Y-107605856D01*
X124394144Y-121511003D01*
X124417942Y-121540001D01*
X124533667Y-121634974D01*
X124665696Y-121705546D01*
X124808957Y-121749003D01*
X124920610Y-121760000D01*
X124920619Y-121760000D01*
X124957942Y-121763676D01*
X124995265Y-121760000D01*
X143162678Y-121760000D01*
X143200000Y-121763676D01*
X143237322Y-121760000D01*
X143237333Y-121760000D01*
X143348986Y-121749003D01*
X143492247Y-121705546D01*
X143624276Y-121634974D01*
X143740001Y-121540001D01*
X143763804Y-121510997D01*
X145172603Y-120102199D01*
X145789977Y-120102199D01*
X145789978Y-121020469D01*
X145786301Y-121057801D01*
X145789978Y-121095134D01*
X145800975Y-121206787D01*
X145814157Y-121250243D01*
X145844431Y-121350047D01*
X145915003Y-121482077D01*
X145958397Y-121534952D01*
X146009977Y-121597802D01*
X146038975Y-121621600D01*
X146728377Y-122311002D01*
X146752175Y-122340001D01*
X146781173Y-122363799D01*
X146867899Y-122434974D01*
X146985709Y-122497945D01*
X146999929Y-122505546D01*
X147143190Y-122549003D01*
X147254843Y-122560000D01*
X147254853Y-122560000D01*
X147292176Y-122563676D01*
X147329499Y-122560000D01*
X181471502Y-122560000D01*
X181508824Y-122563676D01*
X181546146Y-122560000D01*
X181546157Y-122560000D01*
X181657810Y-122549003D01*
X181801071Y-122505546D01*
X181933100Y-122434974D01*
X182048825Y-122340001D01*
X182072628Y-122310997D01*
X183603773Y-120779852D01*
X184764800Y-120779852D01*
X184764800Y-121220148D01*
X184850698Y-121651984D01*
X185019192Y-122058764D01*
X185263807Y-122424857D01*
X185575143Y-122736193D01*
X185941236Y-122980808D01*
X186348016Y-123149302D01*
X186779852Y-123235200D01*
X187220148Y-123235200D01*
X187651984Y-123149302D01*
X188058764Y-122980808D01*
X188424857Y-122736193D01*
X188736193Y-122424857D01*
X188980808Y-122058764D01*
X189149302Y-121651984D01*
X189235200Y-121220148D01*
X189235200Y-120779852D01*
X189149302Y-120348016D01*
X188980808Y-119941236D01*
X188736193Y-119575143D01*
X188424857Y-119263807D01*
X188058764Y-119019192D01*
X187651984Y-118850698D01*
X187220148Y-118764800D01*
X186779852Y-118764800D01*
X186348016Y-118850698D01*
X185941236Y-119019192D01*
X185575143Y-119263807D01*
X185263807Y-119575143D01*
X185019192Y-119941236D01*
X184850698Y-120348016D01*
X184764800Y-120779852D01*
X183603773Y-120779852D01*
X189111004Y-115272622D01*
X189140001Y-115248825D01*
X189234974Y-115133100D01*
X189305546Y-115001071D01*
X189349003Y-114857810D01*
X189360000Y-114746157D01*
X189360000Y-114746148D01*
X189363676Y-114708825D01*
X189360000Y-114671502D01*
X189360000Y-106028281D01*
X189436015Y-105952266D01*
X189465013Y-105928468D01*
X189559986Y-105812743D01*
X189630558Y-105680714D01*
X189674015Y-105537453D01*
X189685012Y-105425800D01*
X189685012Y-105425791D01*
X189688688Y-105388468D01*
X189685012Y-105351145D01*
X189685012Y-98162345D01*
X189688689Y-98125012D01*
X189674015Y-97976026D01*
X189630558Y-97832765D01*
X189559986Y-97700736D01*
X189499481Y-97627010D01*
X189465013Y-97585011D01*
X189436015Y-97561213D01*
X188258773Y-96383972D01*
X188258235Y-96378510D01*
X188317205Y-96290256D01*
X188395226Y-96101898D01*
X188435000Y-95901939D01*
X188435000Y-95698061D01*
X188395226Y-95498102D01*
X188317205Y-95309744D01*
X188203937Y-95140226D01*
X188059774Y-94996063D01*
X187890256Y-94882795D01*
X187701898Y-94804774D01*
X187501939Y-94765000D01*
X187298061Y-94765000D01*
X187098102Y-94804774D01*
X186909744Y-94882795D01*
X186740226Y-94996063D01*
X186596063Y-95140226D01*
X186482795Y-95309744D01*
X186404774Y-95498102D01*
X186365000Y-95698061D01*
X186365000Y-95901939D01*
X186373265Y-95943488D01*
X183152100Y-95943488D01*
X183118179Y-95831664D01*
X183059214Y-95721350D01*
X182979862Y-95624659D01*
X181848491Y-94493288D01*
X181751800Y-94413936D01*
X181725728Y-94400000D01*
X181751800Y-94386064D01*
X181848491Y-94306712D01*
X182979862Y-93175341D01*
X183059214Y-93078650D01*
X183118179Y-92968336D01*
X183154489Y-92848638D01*
X183162297Y-92769358D01*
X189292859Y-86638797D01*
X189321856Y-86615000D01*
X189416829Y-86499275D01*
X189464258Y-86410543D01*
X190290000Y-85584802D01*
X190290001Y-122965269D01*
X190262093Y-123249899D01*
X190189517Y-123490282D01*
X190071633Y-123711989D01*
X189912929Y-123906580D01*
X189719455Y-124066635D01*
X189498576Y-124186064D01*
X189258701Y-124260317D01*
X188976291Y-124290000D01*
X102034721Y-124290000D01*
X101750101Y-124262093D01*
X101509718Y-124189517D01*
X101288011Y-124071633D01*
X101093420Y-123912929D01*
X100933365Y-123719455D01*
X100813936Y-123498576D01*
X100739683Y-123258701D01*
X100710000Y-122976291D01*
X100710000Y-120779852D01*
X101764800Y-120779852D01*
X101764800Y-121220148D01*
X101850698Y-121651984D01*
X102019192Y-122058764D01*
X102263807Y-122424857D01*
X102575143Y-122736193D01*
X102941236Y-122980808D01*
X103348016Y-123149302D01*
X103779852Y-123235200D01*
X104220148Y-123235200D01*
X104651984Y-123149302D01*
X105058764Y-122980808D01*
X105424857Y-122736193D01*
X105736193Y-122424857D01*
X105980808Y-122058764D01*
X106149302Y-121651984D01*
X106235200Y-121220148D01*
X106235200Y-120779852D01*
X106149302Y-120348016D01*
X105980808Y-119941236D01*
X105736193Y-119575143D01*
X105424857Y-119263807D01*
X105058764Y-119019192D01*
X104651984Y-118850698D01*
X104220148Y-118764800D01*
X103779852Y-118764800D01*
X103348016Y-118850698D01*
X102941236Y-119019192D01*
X102575143Y-119263807D01*
X102263807Y-119575143D01*
X102019192Y-119941236D01*
X101850698Y-120348016D01*
X101764800Y-120779852D01*
X100710000Y-120779852D01*
X100710000Y-78658639D01*
X113257591Y-78658639D01*
X113302511Y-78997439D01*
X113412664Y-79320966D01*
X113518662Y-79519274D01*
X113793288Y-79627107D01*
X114820395Y-78600000D01*
X113793288Y-77572893D01*
X113518662Y-77680726D01*
X113367784Y-77987384D01*
X113279631Y-78317585D01*
X113257591Y-78658639D01*
X100710000Y-78658639D01*
X100710000Y-77393288D01*
X113972893Y-77393288D01*
X115000000Y-78420395D01*
X116027107Y-77393288D01*
X115919274Y-77118662D01*
X115612616Y-76967784D01*
X115282415Y-76879631D01*
X114941361Y-76857591D01*
X114602561Y-76902511D01*
X114279034Y-77012664D01*
X114080726Y-77118662D01*
X113972893Y-77393288D01*
X100710000Y-77393288D01*
X100710000Y-73779852D01*
X101764800Y-73779852D01*
X101764800Y-74220148D01*
X101850698Y-74651984D01*
X102019192Y-75058764D01*
X102263807Y-75424857D01*
X102575143Y-75736193D01*
X102941236Y-75980808D01*
X103348016Y-76149302D01*
X103779852Y-76235200D01*
X104220148Y-76235200D01*
X104651984Y-76149302D01*
X105058764Y-75980808D01*
X105424857Y-75736193D01*
X105736193Y-75424857D01*
X105980808Y-75058764D01*
X106149302Y-74651984D01*
X106235200Y-74220148D01*
X106235200Y-73779852D01*
X106149302Y-73348016D01*
X105980808Y-72941236D01*
X105736193Y-72575143D01*
X105424857Y-72263807D01*
X105058764Y-72019192D01*
X104651984Y-71850698D01*
X104220148Y-71764800D01*
X103779852Y-71764800D01*
X103348016Y-71850698D01*
X102941236Y-72019192D01*
X102575143Y-72263807D01*
X102263807Y-72575143D01*
X102019192Y-72941236D01*
X101850698Y-73348016D01*
X101764800Y-73779852D01*
X100710000Y-73779852D01*
X100710000Y-72034721D01*
X100737907Y-71750101D01*
X100810484Y-71509715D01*
X100928368Y-71288009D01*
X101087068Y-71093423D01*
X101280545Y-70933365D01*
X101501424Y-70813936D01*
X101741297Y-70739683D01*
X102023716Y-70710000D01*
X156562788Y-70710000D01*
X156565000Y-70864250D01*
G36*
X141036928Y-118475000D02*
G01*
X141036928Y-118725000D01*
X141049188Y-118849482D01*
X141049345Y-118850000D01*
X141049188Y-118850518D01*
X141036928Y-118975000D01*
X141036928Y-119225000D01*
X141049188Y-119349482D01*
X141049345Y-119350000D01*
X141049188Y-119350518D01*
X141040375Y-119440000D01*
X139776274Y-119440000D01*
X139761501Y-119421999D01*
X139645776Y-119327026D01*
X139513747Y-119256454D01*
X139461493Y-119240603D01*
X139428171Y-119200000D01*
X139502037Y-119109994D01*
X139561002Y-118999680D01*
X139597312Y-118879982D01*
X139609572Y-118755500D01*
X139606500Y-118723750D01*
X139447750Y-118565000D01*
X138527000Y-118565000D01*
X138527000Y-118585000D01*
X138273000Y-118585000D01*
X138273000Y-118565000D01*
X137352250Y-118565000D01*
X137193500Y-118723750D01*
X137190428Y-118755500D01*
X137202688Y-118879982D01*
X137238998Y-118999680D01*
X137297963Y-119109994D01*
X137371829Y-119200000D01*
X137297963Y-119290006D01*
X137238998Y-119400320D01*
X137202688Y-119520018D01*
X137190428Y-119644500D01*
X137190428Y-120240000D01*
X125272745Y-120240000D01*
X123392745Y-118360000D01*
X141048254Y-118360000D01*
X141036928Y-118475000D01*
X141036928Y-118475000D01*
G37*
X141036928Y-118475000D02*
X141036928Y-118725000D01*
X141049188Y-118849482D01*
X141049345Y-118850000D01*
X141049188Y-118850518D01*
X141036928Y-118975000D01*
X141036928Y-119225000D01*
X141049188Y-119349482D01*
X141049345Y-119350000D01*
X141049188Y-119350518D01*
X141040375Y-119440000D01*
X139776274Y-119440000D01*
X139761501Y-119421999D01*
X139645776Y-119327026D01*
X139513747Y-119256454D01*
X139461493Y-119240603D01*
X139428171Y-119200000D01*
X139502037Y-119109994D01*
X139561002Y-118999680D01*
X139597312Y-118879982D01*
X139609572Y-118755500D01*
X139606500Y-118723750D01*
X139447750Y-118565000D01*
X138527000Y-118565000D01*
X138527000Y-118585000D01*
X138273000Y-118585000D01*
X138273000Y-118565000D01*
X137352250Y-118565000D01*
X137193500Y-118723750D01*
X137190428Y-118755500D01*
X137202688Y-118879982D01*
X137238998Y-118999680D01*
X137297963Y-119109994D01*
X137371829Y-119200000D01*
X137297963Y-119290006D01*
X137238998Y-119400320D01*
X137202688Y-119520018D01*
X137190428Y-119644500D01*
X137190428Y-120240000D01*
X125272745Y-120240000D01*
X123392745Y-118360000D01*
X141048254Y-118360000D01*
X141036928Y-118475000D01*
G36*
X153814700Y-118749002D02*
G01*
X153838499Y-118778001D01*
X153867497Y-118801799D01*
X153954224Y-118872974D01*
X154086253Y-118943546D01*
X154138507Y-118959397D01*
X154143105Y-118965000D01*
X153656895Y-118965000D01*
X153702037Y-118909994D01*
X153761002Y-118799680D01*
X153785295Y-118719597D01*
X153814700Y-118749002D01*
X153814700Y-118749002D01*
G37*
X153814700Y-118749002D02*
X153838499Y-118778001D01*
X153867497Y-118801799D01*
X153954224Y-118872974D01*
X154086253Y-118943546D01*
X154138507Y-118959397D01*
X154143105Y-118965000D01*
X153656895Y-118965000D01*
X153702037Y-118909994D01*
X153761002Y-118799680D01*
X153785295Y-118719597D01*
X153814700Y-118749002D01*
G36*
X166453788Y-118965000D02*
G01*
X158856895Y-118965000D01*
X158902037Y-118909994D01*
X158961002Y-118799680D01*
X158997312Y-118679982D01*
X159009572Y-118555500D01*
X159009572Y-117920500D01*
X158997312Y-117796018D01*
X158961002Y-117676320D01*
X158902037Y-117566006D01*
X158822685Y-117469315D01*
X158725994Y-117389963D01*
X158615680Y-117330998D01*
X158495982Y-117294688D01*
X158371500Y-117282428D01*
X157228500Y-117282428D01*
X157109454Y-117294153D01*
X156675301Y-116860000D01*
X164348789Y-116860000D01*
X166453788Y-118965000D01*
X166453788Y-118965000D01*
G37*
X166453788Y-118965000D02*
X158856895Y-118965000D01*
X158902037Y-118909994D01*
X158961002Y-118799680D01*
X158997312Y-118679982D01*
X159009572Y-118555500D01*
X159009572Y-117920500D01*
X158997312Y-117796018D01*
X158961002Y-117676320D01*
X158902037Y-117566006D01*
X158822685Y-117469315D01*
X158725994Y-117389963D01*
X158615680Y-117330998D01*
X158495982Y-117294688D01*
X158371500Y-117282428D01*
X157228500Y-117282428D01*
X157109454Y-117294153D01*
X156675301Y-116860000D01*
X164348789Y-116860000D01*
X166453788Y-118965000D01*
G36*
X152747000Y-118365000D02*
G01*
X152727000Y-118365000D01*
X152727000Y-118385000D01*
X152473000Y-118385000D01*
X152473000Y-118365000D01*
X152453000Y-118365000D01*
X152453000Y-118355499D01*
X152747000Y-118355499D01*
X152747000Y-118365000D01*
X152747000Y-118365000D01*
G37*
X152747000Y-118365000D02*
X152727000Y-118365000D01*
X152727000Y-118385000D01*
X152473000Y-118385000D01*
X152473000Y-118365000D01*
X152453000Y-118365000D01*
X152453000Y-118355499D01*
X152747000Y-118355499D01*
X152747000Y-118365000D01*
G36*
X176746429Y-107025183D02*
G01*
X176770228Y-107054182D01*
X176799226Y-107077980D01*
X180514999Y-110793754D01*
X180514999Y-111001239D01*
X180511323Y-111038561D01*
X180514999Y-111075883D01*
X180514999Y-111075894D01*
X180525996Y-111187547D01*
X180569453Y-111330808D01*
X180576712Y-111344388D01*
X180640025Y-111462837D01*
X180690069Y-111523815D01*
X180734999Y-111578562D01*
X180763997Y-111602360D01*
X181316483Y-112154847D01*
X181181739Y-112199208D01*
X181050842Y-112471775D01*
X180975635Y-112764642D01*
X180959009Y-113066553D01*
X181001603Y-113365907D01*
X181101778Y-113651199D01*
X181181739Y-113800792D01*
X181435920Y-113884475D01*
X182320395Y-113000000D01*
X182306253Y-112985858D01*
X182485858Y-112806253D01*
X182500000Y-112820395D01*
X182514143Y-112806253D01*
X182693748Y-112985858D01*
X182679605Y-113000000D01*
X182693748Y-113014143D01*
X182514143Y-113193748D01*
X182500000Y-113179605D01*
X181615525Y-114064080D01*
X181664310Y-114212262D01*
X181521495Y-114307688D01*
X181307688Y-114521495D01*
X181139701Y-114772905D01*
X181023989Y-115052257D01*
X180965000Y-115348816D01*
X180965000Y-115651184D01*
X181023989Y-115947743D01*
X181031138Y-115965001D01*
X180425369Y-115965001D01*
X179298946Y-114838579D01*
X179272791Y-114806709D01*
X179145646Y-114702364D01*
X179000587Y-114624828D01*
X178869200Y-114584972D01*
X178869002Y-114584320D01*
X178810037Y-114474006D01*
X178730685Y-114377315D01*
X178633994Y-114297963D01*
X178523680Y-114238998D01*
X178403982Y-114202688D01*
X178279500Y-114190428D01*
X177644500Y-114190428D01*
X177520018Y-114202688D01*
X177400320Y-114238998D01*
X177290006Y-114297963D01*
X177200000Y-114371829D01*
X177198000Y-114370187D01*
X177198000Y-112838122D01*
X177199260Y-112838122D01*
X177323742Y-112825862D01*
X177443440Y-112789552D01*
X177553754Y-112730587D01*
X177650445Y-112651235D01*
X177729797Y-112554544D01*
X177788762Y-112444230D01*
X177825072Y-112324532D01*
X177837332Y-112200050D01*
X177837332Y-111399950D01*
X177825072Y-111275468D01*
X177788762Y-111155770D01*
X177729797Y-111045456D01*
X177650445Y-110948765D01*
X177553754Y-110869413D01*
X177443440Y-110810448D01*
X177323742Y-110774138D01*
X177199260Y-110761878D01*
X176435230Y-110761878D01*
X174711423Y-109038072D01*
X176100000Y-109038072D01*
X176224482Y-109025812D01*
X176344180Y-108989502D01*
X176454494Y-108930537D01*
X176551185Y-108851185D01*
X176630537Y-108754494D01*
X176689502Y-108644180D01*
X176725812Y-108524482D01*
X176738072Y-108400000D01*
X176738072Y-107015000D01*
X176746429Y-107025183D01*
X176746429Y-107025183D01*
G37*
X176746429Y-107025183D02*
X176770228Y-107054182D01*
X176799226Y-107077980D01*
X180514999Y-110793754D01*
X180514999Y-111001239D01*
X180511323Y-111038561D01*
X180514999Y-111075883D01*
X180514999Y-111075894D01*
X180525996Y-111187547D01*
X180569453Y-111330808D01*
X180576712Y-111344388D01*
X180640025Y-111462837D01*
X180690069Y-111523815D01*
X180734999Y-111578562D01*
X180763997Y-111602360D01*
X181316483Y-112154847D01*
X181181739Y-112199208D01*
X181050842Y-112471775D01*
X180975635Y-112764642D01*
X180959009Y-113066553D01*
X181001603Y-113365907D01*
X181101778Y-113651199D01*
X181181739Y-113800792D01*
X181435920Y-113884475D01*
X182320395Y-113000000D01*
X182306253Y-112985858D01*
X182485858Y-112806253D01*
X182500000Y-112820395D01*
X182514143Y-112806253D01*
X182693748Y-112985858D01*
X182679605Y-113000000D01*
X182693748Y-113014143D01*
X182514143Y-113193748D01*
X182500000Y-113179605D01*
X181615525Y-114064080D01*
X181664310Y-114212262D01*
X181521495Y-114307688D01*
X181307688Y-114521495D01*
X181139701Y-114772905D01*
X181023989Y-115052257D01*
X180965000Y-115348816D01*
X180965000Y-115651184D01*
X181023989Y-115947743D01*
X181031138Y-115965001D01*
X180425369Y-115965001D01*
X179298946Y-114838579D01*
X179272791Y-114806709D01*
X179145646Y-114702364D01*
X179000587Y-114624828D01*
X178869200Y-114584972D01*
X178869002Y-114584320D01*
X178810037Y-114474006D01*
X178730685Y-114377315D01*
X178633994Y-114297963D01*
X178523680Y-114238998D01*
X178403982Y-114202688D01*
X178279500Y-114190428D01*
X177644500Y-114190428D01*
X177520018Y-114202688D01*
X177400320Y-114238998D01*
X177290006Y-114297963D01*
X177200000Y-114371829D01*
X177198000Y-114370187D01*
X177198000Y-112838122D01*
X177199260Y-112838122D01*
X177323742Y-112825862D01*
X177443440Y-112789552D01*
X177553754Y-112730587D01*
X177650445Y-112651235D01*
X177729797Y-112554544D01*
X177788762Y-112444230D01*
X177825072Y-112324532D01*
X177837332Y-112200050D01*
X177837332Y-111399950D01*
X177825072Y-111275468D01*
X177788762Y-111155770D01*
X177729797Y-111045456D01*
X177650445Y-110948765D01*
X177553754Y-110869413D01*
X177443440Y-110810448D01*
X177323742Y-110774138D01*
X177199260Y-110761878D01*
X176435230Y-110761878D01*
X174711423Y-109038072D01*
X176100000Y-109038072D01*
X176224482Y-109025812D01*
X176344180Y-108989502D01*
X176454494Y-108930537D01*
X176551185Y-108851185D01*
X176630537Y-108754494D01*
X176689502Y-108644180D01*
X176725812Y-108524482D01*
X176738072Y-108400000D01*
X176738072Y-107015000D01*
X176746429Y-107025183D01*
G36*
X129640000Y-106768324D02*
G01*
X129636324Y-106805646D01*
X129640000Y-106842968D01*
X129640000Y-106842978D01*
X129650997Y-106954631D01*
X129681195Y-107054182D01*
X129694454Y-107097892D01*
X129765026Y-107229922D01*
X129792324Y-107263184D01*
X129859999Y-107345647D01*
X129889003Y-107369450D01*
X136859552Y-114340000D01*
X123214802Y-114340000D01*
X116006169Y-107131368D01*
X116054494Y-107105537D01*
X116151185Y-107026185D01*
X116230537Y-106929494D01*
X116289502Y-106819180D01*
X116325812Y-106699482D01*
X116338072Y-106575000D01*
X116338072Y-105934053D01*
X116468514Y-105960000D01*
X116731486Y-105960000D01*
X116989405Y-105908696D01*
X117232359Y-105808061D01*
X117451013Y-105661962D01*
X117636962Y-105476013D01*
X117783061Y-105257359D01*
X117883696Y-105014405D01*
X117935000Y-104756486D01*
X117935000Y-104493514D01*
X117883696Y-104235595D01*
X117783061Y-103992641D01*
X117636962Y-103773987D01*
X117451013Y-103588038D01*
X117232359Y-103441939D01*
X116989405Y-103341304D01*
X116731486Y-103290000D01*
X116468514Y-103290000D01*
X116210595Y-103341304D01*
X115967641Y-103441939D01*
X115748987Y-103588038D01*
X115563038Y-103773987D01*
X115502225Y-103865000D01*
X115463389Y-103865000D01*
X115511003Y-103817386D01*
X115540001Y-103793588D01*
X115591061Y-103731371D01*
X115634974Y-103677864D01*
X115705546Y-103545834D01*
X115718941Y-103501676D01*
X115749003Y-103402573D01*
X115760000Y-103290920D01*
X115760000Y-103290910D01*
X115763676Y-103253587D01*
X115760602Y-103222373D01*
X115851013Y-103161962D01*
X116036962Y-102976013D01*
X116183061Y-102757359D01*
X116283696Y-102514405D01*
X116335000Y-102256486D01*
X116335000Y-101993514D01*
X116283696Y-101735595D01*
X116183061Y-101492641D01*
X116036962Y-101273987D01*
X115851013Y-101088038D01*
X115632359Y-100941939D01*
X115389405Y-100841304D01*
X115131486Y-100790000D01*
X114868514Y-100790000D01*
X114610595Y-100841304D01*
X114367641Y-100941939D01*
X114148987Y-101088038D01*
X113963038Y-101273987D01*
X113880854Y-101396985D01*
X113835000Y-101351131D01*
X113835000Y-98899664D01*
X113857472Y-98922136D01*
X113972894Y-98806714D01*
X114080726Y-99081338D01*
X114387384Y-99232216D01*
X114717585Y-99320369D01*
X115058639Y-99342409D01*
X115397439Y-99297489D01*
X115720966Y-99187336D01*
X115919274Y-99081338D01*
X116027107Y-98806712D01*
X115000000Y-97779605D01*
X114985858Y-97793748D01*
X114806253Y-97614143D01*
X114820395Y-97600000D01*
X114806253Y-97585858D01*
X114985858Y-97406253D01*
X115000000Y-97420395D01*
X116027107Y-96393288D01*
X115919274Y-96118662D01*
X115612616Y-95967784D01*
X115282415Y-95879631D01*
X114941361Y-95857591D01*
X114602561Y-95902511D01*
X114279034Y-96012664D01*
X114080726Y-96118662D01*
X113972894Y-96393286D01*
X113857472Y-96277864D01*
X113835000Y-96300336D01*
X113835000Y-91198869D01*
X116565001Y-88468869D01*
X116565000Y-96837247D01*
X116481338Y-96680726D01*
X116206712Y-96572893D01*
X115179605Y-97600000D01*
X116206712Y-98627107D01*
X116481338Y-98519274D01*
X116565000Y-98349232D01*
X116565000Y-100402459D01*
X116560960Y-100443478D01*
X116565000Y-100484496D01*
X116577082Y-100607166D01*
X116624828Y-100764564D01*
X116702364Y-100909623D01*
X116806709Y-101036769D01*
X116838579Y-101062924D01*
X117937080Y-102161426D01*
X117963231Y-102193291D01*
X118060357Y-102273000D01*
X118090376Y-102297636D01*
X118235435Y-102375172D01*
X118392833Y-102422918D01*
X118556521Y-102439040D01*
X118597540Y-102435000D01*
X121002461Y-102435000D01*
X121043479Y-102439040D01*
X121084497Y-102435000D01*
X121084498Y-102435000D01*
X121207168Y-102422918D01*
X121364566Y-102375172D01*
X121509625Y-102297636D01*
X121636770Y-102193291D01*
X121662925Y-102161421D01*
X122711438Y-101112909D01*
X122743303Y-101086758D01*
X122847648Y-100959613D01*
X122925184Y-100814554D01*
X122972930Y-100657156D01*
X122985012Y-100534486D01*
X122989052Y-100493467D01*
X122985012Y-100452449D01*
X122985012Y-94995855D01*
X129640001Y-88340867D01*
X129640000Y-106768324D01*
X129640000Y-106768324D01*
G37*
X129640000Y-106768324D02*
X129636324Y-106805646D01*
X129640000Y-106842968D01*
X129640000Y-106842978D01*
X129650997Y-106954631D01*
X129681195Y-107054182D01*
X129694454Y-107097892D01*
X129765026Y-107229922D01*
X129792324Y-107263184D01*
X129859999Y-107345647D01*
X129889003Y-107369450D01*
X136859552Y-114340000D01*
X123214802Y-114340000D01*
X116006169Y-107131368D01*
X116054494Y-107105537D01*
X116151185Y-107026185D01*
X116230537Y-106929494D01*
X116289502Y-106819180D01*
X116325812Y-106699482D01*
X116338072Y-106575000D01*
X116338072Y-105934053D01*
X116468514Y-105960000D01*
X116731486Y-105960000D01*
X116989405Y-105908696D01*
X117232359Y-105808061D01*
X117451013Y-105661962D01*
X117636962Y-105476013D01*
X117783061Y-105257359D01*
X117883696Y-105014405D01*
X117935000Y-104756486D01*
X117935000Y-104493514D01*
X117883696Y-104235595D01*
X117783061Y-103992641D01*
X117636962Y-103773987D01*
X117451013Y-103588038D01*
X117232359Y-103441939D01*
X116989405Y-103341304D01*
X116731486Y-103290000D01*
X116468514Y-103290000D01*
X116210595Y-103341304D01*
X115967641Y-103441939D01*
X115748987Y-103588038D01*
X115563038Y-103773987D01*
X115502225Y-103865000D01*
X115463389Y-103865000D01*
X115511003Y-103817386D01*
X115540001Y-103793588D01*
X115591061Y-103731371D01*
X115634974Y-103677864D01*
X115705546Y-103545834D01*
X115718941Y-103501676D01*
X115749003Y-103402573D01*
X115760000Y-103290920D01*
X115760000Y-103290910D01*
X115763676Y-103253587D01*
X115760602Y-103222373D01*
X115851013Y-103161962D01*
X116036962Y-102976013D01*
X116183061Y-102757359D01*
X116283696Y-102514405D01*
X116335000Y-102256486D01*
X116335000Y-101993514D01*
X116283696Y-101735595D01*
X116183061Y-101492641D01*
X116036962Y-101273987D01*
X115851013Y-101088038D01*
X115632359Y-100941939D01*
X115389405Y-100841304D01*
X115131486Y-100790000D01*
X114868514Y-100790000D01*
X114610595Y-100841304D01*
X114367641Y-100941939D01*
X114148987Y-101088038D01*
X113963038Y-101273987D01*
X113880854Y-101396985D01*
X113835000Y-101351131D01*
X113835000Y-98899664D01*
X113857472Y-98922136D01*
X113972894Y-98806714D01*
X114080726Y-99081338D01*
X114387384Y-99232216D01*
X114717585Y-99320369D01*
X115058639Y-99342409D01*
X115397439Y-99297489D01*
X115720966Y-99187336D01*
X115919274Y-99081338D01*
X116027107Y-98806712D01*
X115000000Y-97779605D01*
X114985858Y-97793748D01*
X114806253Y-97614143D01*
X114820395Y-97600000D01*
X114806253Y-97585858D01*
X114985858Y-97406253D01*
X115000000Y-97420395D01*
X116027107Y-96393288D01*
X115919274Y-96118662D01*
X115612616Y-95967784D01*
X115282415Y-95879631D01*
X114941361Y-95857591D01*
X114602561Y-95902511D01*
X114279034Y-96012664D01*
X114080726Y-96118662D01*
X113972894Y-96393286D01*
X113857472Y-96277864D01*
X113835000Y-96300336D01*
X113835000Y-91198869D01*
X116565001Y-88468869D01*
X116565000Y-96837247D01*
X116481338Y-96680726D01*
X116206712Y-96572893D01*
X115179605Y-97600000D01*
X116206712Y-98627107D01*
X116481338Y-98519274D01*
X116565000Y-98349232D01*
X116565000Y-100402459D01*
X116560960Y-100443478D01*
X116565000Y-100484496D01*
X116577082Y-100607166D01*
X116624828Y-100764564D01*
X116702364Y-100909623D01*
X116806709Y-101036769D01*
X116838579Y-101062924D01*
X117937080Y-102161426D01*
X117963231Y-102193291D01*
X118060357Y-102273000D01*
X118090376Y-102297636D01*
X118235435Y-102375172D01*
X118392833Y-102422918D01*
X118556521Y-102439040D01*
X118597540Y-102435000D01*
X121002461Y-102435000D01*
X121043479Y-102439040D01*
X121084497Y-102435000D01*
X121084498Y-102435000D01*
X121207168Y-102422918D01*
X121364566Y-102375172D01*
X121509625Y-102297636D01*
X121636770Y-102193291D01*
X121662925Y-102161421D01*
X122711438Y-101112909D01*
X122743303Y-101086758D01*
X122847648Y-100959613D01*
X122925184Y-100814554D01*
X122972930Y-100657156D01*
X122985012Y-100534486D01*
X122989052Y-100493467D01*
X122985012Y-100452449D01*
X122985012Y-94995855D01*
X129640001Y-88340867D01*
X129640000Y-106768324D01*
G36*
X148240000Y-110135198D02*
G01*
X148238270Y-110136928D01*
X147775000Y-110136928D01*
X147650518Y-110149188D01*
X147530820Y-110185498D01*
X147420506Y-110244463D01*
X147323815Y-110323815D01*
X147244463Y-110420506D01*
X147185498Y-110530820D01*
X147149188Y-110650518D01*
X147136928Y-110775000D01*
X147136928Y-111225000D01*
X147149188Y-111349482D01*
X147150012Y-111352198D01*
X147140000Y-111441250D01*
X147205672Y-111506922D01*
X147244463Y-111579494D01*
X147261292Y-111600000D01*
X147244463Y-111620506D01*
X147205672Y-111693078D01*
X147140000Y-111758750D01*
X147150012Y-111847802D01*
X147149188Y-111850518D01*
X147136928Y-111975000D01*
X147136928Y-112225000D01*
X147149188Y-112349482D01*
X147149345Y-112350000D01*
X147149188Y-112350518D01*
X147136928Y-112475000D01*
X147136928Y-112488298D01*
X147024482Y-112454188D01*
X146900000Y-112441928D01*
X145685750Y-112445000D01*
X145536295Y-112594455D01*
X145496692Y-112582442D01*
X145479250Y-112565000D01*
X145465000Y-112561928D01*
X145405000Y-112567837D01*
X145345000Y-112561928D01*
X145330750Y-112565000D01*
X145313308Y-112582442D01*
X145266033Y-112596783D01*
X145114250Y-112445000D01*
X143900000Y-112441928D01*
X143775518Y-112454188D01*
X143663072Y-112488298D01*
X143663072Y-112475000D01*
X143650812Y-112350518D01*
X143650655Y-112350000D01*
X143650812Y-112349482D01*
X143663072Y-112225000D01*
X143663072Y-111975000D01*
X143650812Y-111850518D01*
X143649988Y-111847802D01*
X143660000Y-111758750D01*
X143594328Y-111693078D01*
X143555537Y-111620506D01*
X143538708Y-111600000D01*
X143555537Y-111579494D01*
X143594328Y-111506922D01*
X143660000Y-111441250D01*
X143649988Y-111352198D01*
X143650812Y-111349482D01*
X143663072Y-111225000D01*
X143663072Y-110775000D01*
X143650812Y-110650518D01*
X143614502Y-110530820D01*
X143555537Y-110420506D01*
X143476185Y-110323815D01*
X143379494Y-110244463D01*
X143269180Y-110185498D01*
X143149482Y-110149188D01*
X143025000Y-110136928D01*
X141675000Y-110136928D01*
X141550518Y-110149188D01*
X141430820Y-110185498D01*
X141328856Y-110240000D01*
X138114802Y-110240000D01*
X135006169Y-107131368D01*
X135054494Y-107105537D01*
X135151185Y-107026185D01*
X135230537Y-106929494D01*
X135289502Y-106819180D01*
X135325812Y-106699482D01*
X135338072Y-106575000D01*
X135338072Y-105934053D01*
X135468514Y-105960000D01*
X135731486Y-105960000D01*
X135989405Y-105908696D01*
X136232359Y-105808061D01*
X136451013Y-105661962D01*
X136636962Y-105476013D01*
X136783061Y-105257359D01*
X136883696Y-105014405D01*
X136935000Y-104756486D01*
X136935000Y-104493514D01*
X136883696Y-104235595D01*
X136783061Y-103992641D01*
X136636962Y-103773987D01*
X136451013Y-103588038D01*
X136232359Y-103441939D01*
X135989405Y-103341304D01*
X135731486Y-103290000D01*
X135468514Y-103290000D01*
X135210595Y-103341304D01*
X134967641Y-103441939D01*
X134748987Y-103588038D01*
X134563038Y-103773987D01*
X134502225Y-103865000D01*
X134463389Y-103865000D01*
X134511004Y-103817385D01*
X134540001Y-103793588D01*
X134591061Y-103731371D01*
X134634974Y-103677864D01*
X134705546Y-103545834D01*
X134718941Y-103501676D01*
X134749003Y-103402573D01*
X134760000Y-103290920D01*
X134760000Y-103290910D01*
X134763676Y-103253587D01*
X134760602Y-103222373D01*
X134851013Y-103161962D01*
X135036962Y-102976013D01*
X135183061Y-102757359D01*
X135283696Y-102514405D01*
X135335000Y-102256486D01*
X135335000Y-101993514D01*
X135283696Y-101735595D01*
X135183061Y-101492641D01*
X135036962Y-101273987D01*
X134851013Y-101088038D01*
X134632359Y-100941939D01*
X134389405Y-100841304D01*
X134131486Y-100790000D01*
X133868514Y-100790000D01*
X133610595Y-100841304D01*
X133367641Y-100941939D01*
X133148987Y-101088038D01*
X132963038Y-101273987D01*
X132934999Y-101315951D01*
X132934999Y-98844609D01*
X132972894Y-98806714D01*
X133080726Y-99081338D01*
X133387384Y-99232216D01*
X133717585Y-99320369D01*
X134058639Y-99342409D01*
X134397439Y-99297489D01*
X134720966Y-99187336D01*
X134919274Y-99081338D01*
X135027107Y-98806712D01*
X134000000Y-97779605D01*
X133985858Y-97793748D01*
X133806253Y-97614143D01*
X133820395Y-97600000D01*
X133806253Y-97585858D01*
X133985858Y-97406253D01*
X134000000Y-97420395D01*
X135027107Y-96393288D01*
X134919274Y-96118662D01*
X134612616Y-95967784D01*
X134282415Y-95879631D01*
X133941361Y-95857591D01*
X133602561Y-95902511D01*
X133279034Y-96012664D01*
X133080726Y-96118662D01*
X132972894Y-96393286D01*
X132934999Y-96355391D01*
X132934999Y-91645868D01*
X135565001Y-89015867D01*
X135565000Y-96837247D01*
X135481338Y-96680726D01*
X135206712Y-96572893D01*
X134179605Y-97600000D01*
X135206712Y-98627107D01*
X135481338Y-98519274D01*
X135565000Y-98349232D01*
X135565000Y-100402460D01*
X135560960Y-100443479D01*
X135572323Y-100558853D01*
X135577082Y-100607167D01*
X135624828Y-100764565D01*
X135702364Y-100909624D01*
X135806709Y-101036770D01*
X135838578Y-101062925D01*
X137087096Y-102311444D01*
X137113242Y-102343303D01*
X137145101Y-102369449D01*
X137145103Y-102369451D01*
X137193785Y-102409403D01*
X137240387Y-102447648D01*
X137385446Y-102525184D01*
X137542844Y-102572930D01*
X137665514Y-102585012D01*
X137665515Y-102585012D01*
X137706533Y-102589052D01*
X137747551Y-102585012D01*
X139852449Y-102585012D01*
X139893467Y-102589052D01*
X139934485Y-102585012D01*
X139934486Y-102585012D01*
X140057156Y-102572930D01*
X140214554Y-102525184D01*
X140359613Y-102447648D01*
X140486758Y-102343303D01*
X140512913Y-102311433D01*
X141711438Y-101112909D01*
X141743303Y-101086758D01*
X141847648Y-100959613D01*
X141925184Y-100814554D01*
X141972930Y-100657156D01*
X141985012Y-100534486D01*
X141989052Y-100493467D01*
X141985012Y-100452449D01*
X141985012Y-94970855D01*
X148240001Y-88715867D01*
X148240000Y-110135198D01*
X148240000Y-110135198D01*
G37*
X148240000Y-110135198D02*
X148238270Y-110136928D01*
X147775000Y-110136928D01*
X147650518Y-110149188D01*
X147530820Y-110185498D01*
X147420506Y-110244463D01*
X147323815Y-110323815D01*
X147244463Y-110420506D01*
X147185498Y-110530820D01*
X147149188Y-110650518D01*
X147136928Y-110775000D01*
X147136928Y-111225000D01*
X147149188Y-111349482D01*
X147150012Y-111352198D01*
X147140000Y-111441250D01*
X147205672Y-111506922D01*
X147244463Y-111579494D01*
X147261292Y-111600000D01*
X147244463Y-111620506D01*
X147205672Y-111693078D01*
X147140000Y-111758750D01*
X147150012Y-111847802D01*
X147149188Y-111850518D01*
X147136928Y-111975000D01*
X147136928Y-112225000D01*
X147149188Y-112349482D01*
X147149345Y-112350000D01*
X147149188Y-112350518D01*
X147136928Y-112475000D01*
X147136928Y-112488298D01*
X147024482Y-112454188D01*
X146900000Y-112441928D01*
X145685750Y-112445000D01*
X145536295Y-112594455D01*
X145496692Y-112582442D01*
X145479250Y-112565000D01*
X145465000Y-112561928D01*
X145405000Y-112567837D01*
X145345000Y-112561928D01*
X145330750Y-112565000D01*
X145313308Y-112582442D01*
X145266033Y-112596783D01*
X145114250Y-112445000D01*
X143900000Y-112441928D01*
X143775518Y-112454188D01*
X143663072Y-112488298D01*
X143663072Y-112475000D01*
X143650812Y-112350518D01*
X143650655Y-112350000D01*
X143650812Y-112349482D01*
X143663072Y-112225000D01*
X143663072Y-111975000D01*
X143650812Y-111850518D01*
X143649988Y-111847802D01*
X143660000Y-111758750D01*
X143594328Y-111693078D01*
X143555537Y-111620506D01*
X143538708Y-111600000D01*
X143555537Y-111579494D01*
X143594328Y-111506922D01*
X143660000Y-111441250D01*
X143649988Y-111352198D01*
X143650812Y-111349482D01*
X143663072Y-111225000D01*
X143663072Y-110775000D01*
X143650812Y-110650518D01*
X143614502Y-110530820D01*
X143555537Y-110420506D01*
X143476185Y-110323815D01*
X143379494Y-110244463D01*
X143269180Y-110185498D01*
X143149482Y-110149188D01*
X143025000Y-110136928D01*
X141675000Y-110136928D01*
X141550518Y-110149188D01*
X141430820Y-110185498D01*
X141328856Y-110240000D01*
X138114802Y-110240000D01*
X135006169Y-107131368D01*
X135054494Y-107105537D01*
X135151185Y-107026185D01*
X135230537Y-106929494D01*
X135289502Y-106819180D01*
X135325812Y-106699482D01*
X135338072Y-106575000D01*
X135338072Y-105934053D01*
X135468514Y-105960000D01*
X135731486Y-105960000D01*
X135989405Y-105908696D01*
X136232359Y-105808061D01*
X136451013Y-105661962D01*
X136636962Y-105476013D01*
X136783061Y-105257359D01*
X136883696Y-105014405D01*
X136935000Y-104756486D01*
X136935000Y-104493514D01*
X136883696Y-104235595D01*
X136783061Y-103992641D01*
X136636962Y-103773987D01*
X136451013Y-103588038D01*
X136232359Y-103441939D01*
X135989405Y-103341304D01*
X135731486Y-103290000D01*
X135468514Y-103290000D01*
X135210595Y-103341304D01*
X134967641Y-103441939D01*
X134748987Y-103588038D01*
X134563038Y-103773987D01*
X134502225Y-103865000D01*
X134463389Y-103865000D01*
X134511004Y-103817385D01*
X134540001Y-103793588D01*
X134591061Y-103731371D01*
X134634974Y-103677864D01*
X134705546Y-103545834D01*
X134718941Y-103501676D01*
X134749003Y-103402573D01*
X134760000Y-103290920D01*
X134760000Y-103290910D01*
X134763676Y-103253587D01*
X134760602Y-103222373D01*
X134851013Y-103161962D01*
X135036962Y-102976013D01*
X135183061Y-102757359D01*
X135283696Y-102514405D01*
X135335000Y-102256486D01*
X135335000Y-101993514D01*
X135283696Y-101735595D01*
X135183061Y-101492641D01*
X135036962Y-101273987D01*
X134851013Y-101088038D01*
X134632359Y-100941939D01*
X134389405Y-100841304D01*
X134131486Y-100790000D01*
X133868514Y-100790000D01*
X133610595Y-100841304D01*
X133367641Y-100941939D01*
X133148987Y-101088038D01*
X132963038Y-101273987D01*
X132934999Y-101315951D01*
X132934999Y-98844609D01*
X132972894Y-98806714D01*
X133080726Y-99081338D01*
X133387384Y-99232216D01*
X133717585Y-99320369D01*
X134058639Y-99342409D01*
X134397439Y-99297489D01*
X134720966Y-99187336D01*
X134919274Y-99081338D01*
X135027107Y-98806712D01*
X134000000Y-97779605D01*
X133985858Y-97793748D01*
X133806253Y-97614143D01*
X133820395Y-97600000D01*
X133806253Y-97585858D01*
X133985858Y-97406253D01*
X134000000Y-97420395D01*
X135027107Y-96393288D01*
X134919274Y-96118662D01*
X134612616Y-95967784D01*
X134282415Y-95879631D01*
X133941361Y-95857591D01*
X133602561Y-95902511D01*
X133279034Y-96012664D01*
X133080726Y-96118662D01*
X132972894Y-96393286D01*
X132934999Y-96355391D01*
X132934999Y-91645868D01*
X135565001Y-89015867D01*
X135565000Y-96837247D01*
X135481338Y-96680726D01*
X135206712Y-96572893D01*
X134179605Y-97600000D01*
X135206712Y-98627107D01*
X135481338Y-98519274D01*
X135565000Y-98349232D01*
X135565000Y-100402460D01*
X135560960Y-100443479D01*
X135572323Y-100558853D01*
X135577082Y-100607167D01*
X135624828Y-100764565D01*
X135702364Y-100909624D01*
X135806709Y-101036770D01*
X135838578Y-101062925D01*
X137087096Y-102311444D01*
X137113242Y-102343303D01*
X137145101Y-102369449D01*
X137145103Y-102369451D01*
X137193785Y-102409403D01*
X137240387Y-102447648D01*
X137385446Y-102525184D01*
X137542844Y-102572930D01*
X137665514Y-102585012D01*
X137665515Y-102585012D01*
X137706533Y-102589052D01*
X137747551Y-102585012D01*
X139852449Y-102585012D01*
X139893467Y-102589052D01*
X139934485Y-102585012D01*
X139934486Y-102585012D01*
X140057156Y-102572930D01*
X140214554Y-102525184D01*
X140359613Y-102447648D01*
X140486758Y-102343303D01*
X140512913Y-102311433D01*
X141711438Y-101112909D01*
X141743303Y-101086758D01*
X141847648Y-100959613D01*
X141925184Y-100814554D01*
X141972930Y-100657156D01*
X141985012Y-100534486D01*
X141989052Y-100493467D01*
X141985012Y-100452449D01*
X141985012Y-94970855D01*
X148240001Y-88715867D01*
X148240000Y-110135198D01*
G36*
X162440080Y-91269403D02*
G01*
X162463879Y-91298402D01*
X162579604Y-91393375D01*
X162711633Y-91463947D01*
X162854894Y-91507404D01*
X162966547Y-91518401D01*
X162966556Y-91518401D01*
X163003879Y-91522077D01*
X163041202Y-91518401D01*
X164606797Y-91518401D01*
X158789002Y-97336197D01*
X158788996Y-97336202D01*
X158367912Y-97757286D01*
X158306081Y-97731675D01*
X157970883Y-97665000D01*
X157629117Y-97665000D01*
X157293919Y-97731675D01*
X156978169Y-97862463D01*
X156694002Y-98052337D01*
X156452337Y-98294002D01*
X156262463Y-98578169D01*
X156131675Y-98893919D01*
X156065000Y-99229117D01*
X156065000Y-99570883D01*
X156131675Y-99906081D01*
X156262463Y-100221831D01*
X156452337Y-100505998D01*
X156694002Y-100747663D01*
X156978169Y-100937537D01*
X157293919Y-101068325D01*
X157629117Y-101135000D01*
X157970883Y-101135000D01*
X158306081Y-101068325D01*
X158621831Y-100937537D01*
X158905998Y-100747663D01*
X159147663Y-100505998D01*
X159337537Y-100221831D01*
X159468325Y-99906081D01*
X159535000Y-99570883D01*
X159535000Y-99229117D01*
X159468325Y-98893919D01*
X159442714Y-98832088D01*
X159863798Y-98411004D01*
X159863803Y-98410998D01*
X166190715Y-92084087D01*
X166809022Y-92084087D01*
X166620138Y-92272971D01*
X166540786Y-92369662D01*
X166481821Y-92479976D01*
X166445511Y-92599674D01*
X166433251Y-92724156D01*
X166445511Y-92848638D01*
X166481821Y-92968336D01*
X166540786Y-93078650D01*
X166620138Y-93175341D01*
X167751509Y-94306712D01*
X167848200Y-94386064D01*
X167874272Y-94400000D01*
X167848200Y-94413936D01*
X167751509Y-94493288D01*
X166620138Y-95624659D01*
X166540786Y-95721350D01*
X166481821Y-95831664D01*
X166445511Y-95951362D01*
X166433251Y-96075844D01*
X166445511Y-96200326D01*
X166448243Y-96209333D01*
X166438603Y-96307211D01*
X166438603Y-96307221D01*
X166434927Y-96344543D01*
X166438603Y-96381865D01*
X166438603Y-96625436D01*
X166434927Y-96662758D01*
X166438603Y-96700080D01*
X166438603Y-96700091D01*
X166449600Y-96811744D01*
X166493057Y-96955005D01*
X166563629Y-97087034D01*
X166658602Y-97202759D01*
X166687605Y-97226561D01*
X166840000Y-97378956D01*
X166840001Y-103313668D01*
X166836324Y-103351000D01*
X166840001Y-103388333D01*
X166850998Y-103499986D01*
X166860265Y-103530537D01*
X166894454Y-103643246D01*
X166965026Y-103775276D01*
X166987523Y-103802688D01*
X167060000Y-103891001D01*
X167088998Y-103914799D01*
X172860226Y-109686029D01*
X172884020Y-109715022D01*
X172913013Y-109738816D01*
X172913017Y-109738820D01*
X172955161Y-109773406D01*
X172999745Y-109809995D01*
X173044374Y-109833850D01*
X172956560Y-109860488D01*
X172846246Y-109919453D01*
X172749555Y-109998805D01*
X172670203Y-110095496D01*
X172611238Y-110205810D01*
X172574928Y-110325508D01*
X172562668Y-110449990D01*
X172565740Y-110564290D01*
X172724488Y-110723038D01*
X172565740Y-110723038D01*
X172565740Y-110815091D01*
X172073590Y-110815091D01*
X169697076Y-108438579D01*
X169670921Y-108406709D01*
X169543776Y-108302364D01*
X169398717Y-108224828D01*
X169241319Y-108177082D01*
X169122479Y-108165377D01*
X169085120Y-108109465D01*
X168890535Y-107914880D01*
X168661727Y-107761995D01*
X168407490Y-107656686D01*
X168137592Y-107603000D01*
X167862408Y-107603000D01*
X167592510Y-107656686D01*
X167338273Y-107761995D01*
X167109465Y-107914880D01*
X166914880Y-108109465D01*
X166877773Y-108165000D01*
X162745869Y-108165000D01*
X157552368Y-102971500D01*
X165882428Y-102971500D01*
X165894688Y-103095982D01*
X165930998Y-103215680D01*
X165989963Y-103325994D01*
X166069315Y-103422685D01*
X166166006Y-103502037D01*
X166276320Y-103561002D01*
X166396018Y-103597312D01*
X166520500Y-103609572D01*
X166552250Y-103606500D01*
X166711000Y-103447750D01*
X166711000Y-102527000D01*
X166044250Y-102527000D01*
X165885500Y-102685750D01*
X165882428Y-102971500D01*
X157552368Y-102971500D01*
X156409368Y-101828500D01*
X165882428Y-101828500D01*
X165885500Y-102114250D01*
X166044250Y-102273000D01*
X166711000Y-102273000D01*
X166711000Y-101352250D01*
X166552250Y-101193500D01*
X166520500Y-101190428D01*
X166396018Y-101202688D01*
X166276320Y-101238998D01*
X166166006Y-101297963D01*
X166069315Y-101377315D01*
X165989963Y-101474006D01*
X165930998Y-101584320D01*
X165894688Y-101704018D01*
X165882428Y-101828500D01*
X156409368Y-101828500D01*
X155044445Y-100463578D01*
X155018290Y-100431708D01*
X154891145Y-100327363D01*
X154746086Y-100249827D01*
X154588688Y-100202081D01*
X154466018Y-100189999D01*
X154466017Y-100189999D01*
X154424999Y-100185959D01*
X154383981Y-100189999D01*
X152513017Y-100189999D01*
X152471999Y-100185959D01*
X152430981Y-100189999D01*
X152430980Y-100189999D01*
X152308310Y-100202081D01*
X152150912Y-100249827D01*
X152005853Y-100327363D01*
X151878708Y-100431708D01*
X151852562Y-100463567D01*
X151535001Y-100781129D01*
X151535001Y-98806712D01*
X151972893Y-98806712D01*
X152080726Y-99081338D01*
X152387384Y-99232216D01*
X152717585Y-99320369D01*
X153058639Y-99342409D01*
X153397439Y-99297489D01*
X153720966Y-99187336D01*
X153919274Y-99081338D01*
X154027107Y-98806712D01*
X153000000Y-97779605D01*
X151972893Y-98806712D01*
X151535001Y-98806712D01*
X151535001Y-98525690D01*
X151793288Y-98627107D01*
X152820395Y-97600000D01*
X153179605Y-97600000D01*
X154206712Y-98627107D01*
X154481338Y-98519274D01*
X154632216Y-98212616D01*
X154720369Y-97882415D01*
X154742409Y-97541361D01*
X154697489Y-97202561D01*
X154587336Y-96879034D01*
X154481338Y-96680726D01*
X154206712Y-96572893D01*
X153179605Y-97600000D01*
X152820395Y-97600000D01*
X151793288Y-96572893D01*
X151535001Y-96674310D01*
X151535001Y-96393288D01*
X151972893Y-96393288D01*
X153000000Y-97420395D01*
X154027107Y-96393288D01*
X153919274Y-96118662D01*
X153612616Y-95967784D01*
X153282415Y-95879631D01*
X152941361Y-95857591D01*
X152602561Y-95902511D01*
X152279034Y-96012664D01*
X152080726Y-96118662D01*
X151972893Y-96393288D01*
X151535001Y-96393288D01*
X151535001Y-92045866D01*
X156361432Y-87219437D01*
X156393291Y-87193291D01*
X156420218Y-87160481D01*
X156497636Y-87066146D01*
X156575172Y-86921087D01*
X156596543Y-86850637D01*
X156622918Y-86763689D01*
X156635000Y-86641019D01*
X156635000Y-86641018D01*
X156639040Y-86600000D01*
X156635000Y-86558982D01*
X156635000Y-85464322D01*
X162440080Y-91269403D01*
X162440080Y-91269403D01*
G37*
X162440080Y-91269403D02*
X162463879Y-91298402D01*
X162579604Y-91393375D01*
X162711633Y-91463947D01*
X162854894Y-91507404D01*
X162966547Y-91518401D01*
X162966556Y-91518401D01*
X163003879Y-91522077D01*
X163041202Y-91518401D01*
X164606797Y-91518401D01*
X158789002Y-97336197D01*
X158788996Y-97336202D01*
X158367912Y-97757286D01*
X158306081Y-97731675D01*
X157970883Y-97665000D01*
X157629117Y-97665000D01*
X157293919Y-97731675D01*
X156978169Y-97862463D01*
X156694002Y-98052337D01*
X156452337Y-98294002D01*
X156262463Y-98578169D01*
X156131675Y-98893919D01*
X156065000Y-99229117D01*
X156065000Y-99570883D01*
X156131675Y-99906081D01*
X156262463Y-100221831D01*
X156452337Y-100505998D01*
X156694002Y-100747663D01*
X156978169Y-100937537D01*
X157293919Y-101068325D01*
X157629117Y-101135000D01*
X157970883Y-101135000D01*
X158306081Y-101068325D01*
X158621831Y-100937537D01*
X158905998Y-100747663D01*
X159147663Y-100505998D01*
X159337537Y-100221831D01*
X159468325Y-99906081D01*
X159535000Y-99570883D01*
X159535000Y-99229117D01*
X159468325Y-98893919D01*
X159442714Y-98832088D01*
X159863798Y-98411004D01*
X159863803Y-98410998D01*
X166190715Y-92084087D01*
X166809022Y-92084087D01*
X166620138Y-92272971D01*
X166540786Y-92369662D01*
X166481821Y-92479976D01*
X166445511Y-92599674D01*
X166433251Y-92724156D01*
X166445511Y-92848638D01*
X166481821Y-92968336D01*
X166540786Y-93078650D01*
X166620138Y-93175341D01*
X167751509Y-94306712D01*
X167848200Y-94386064D01*
X167874272Y-94400000D01*
X167848200Y-94413936D01*
X167751509Y-94493288D01*
X166620138Y-95624659D01*
X166540786Y-95721350D01*
X166481821Y-95831664D01*
X166445511Y-95951362D01*
X166433251Y-96075844D01*
X166445511Y-96200326D01*
X166448243Y-96209333D01*
X166438603Y-96307211D01*
X166438603Y-96307221D01*
X166434927Y-96344543D01*
X166438603Y-96381865D01*
X166438603Y-96625436D01*
X166434927Y-96662758D01*
X166438603Y-96700080D01*
X166438603Y-96700091D01*
X166449600Y-96811744D01*
X166493057Y-96955005D01*
X166563629Y-97087034D01*
X166658602Y-97202759D01*
X166687605Y-97226561D01*
X166840000Y-97378956D01*
X166840001Y-103313668D01*
X166836324Y-103351000D01*
X166840001Y-103388333D01*
X166850998Y-103499986D01*
X166860265Y-103530537D01*
X166894454Y-103643246D01*
X166965026Y-103775276D01*
X166987523Y-103802688D01*
X167060000Y-103891001D01*
X167088998Y-103914799D01*
X172860226Y-109686029D01*
X172884020Y-109715022D01*
X172913013Y-109738816D01*
X172913017Y-109738820D01*
X172955161Y-109773406D01*
X172999745Y-109809995D01*
X173044374Y-109833850D01*
X172956560Y-109860488D01*
X172846246Y-109919453D01*
X172749555Y-109998805D01*
X172670203Y-110095496D01*
X172611238Y-110205810D01*
X172574928Y-110325508D01*
X172562668Y-110449990D01*
X172565740Y-110564290D01*
X172724488Y-110723038D01*
X172565740Y-110723038D01*
X172565740Y-110815091D01*
X172073590Y-110815091D01*
X169697076Y-108438579D01*
X169670921Y-108406709D01*
X169543776Y-108302364D01*
X169398717Y-108224828D01*
X169241319Y-108177082D01*
X169122479Y-108165377D01*
X169085120Y-108109465D01*
X168890535Y-107914880D01*
X168661727Y-107761995D01*
X168407490Y-107656686D01*
X168137592Y-107603000D01*
X167862408Y-107603000D01*
X167592510Y-107656686D01*
X167338273Y-107761995D01*
X167109465Y-107914880D01*
X166914880Y-108109465D01*
X166877773Y-108165000D01*
X162745869Y-108165000D01*
X157552368Y-102971500D01*
X165882428Y-102971500D01*
X165894688Y-103095982D01*
X165930998Y-103215680D01*
X165989963Y-103325994D01*
X166069315Y-103422685D01*
X166166006Y-103502037D01*
X166276320Y-103561002D01*
X166396018Y-103597312D01*
X166520500Y-103609572D01*
X166552250Y-103606500D01*
X166711000Y-103447750D01*
X166711000Y-102527000D01*
X166044250Y-102527000D01*
X165885500Y-102685750D01*
X165882428Y-102971500D01*
X157552368Y-102971500D01*
X156409368Y-101828500D01*
X165882428Y-101828500D01*
X165885500Y-102114250D01*
X166044250Y-102273000D01*
X166711000Y-102273000D01*
X166711000Y-101352250D01*
X166552250Y-101193500D01*
X166520500Y-101190428D01*
X166396018Y-101202688D01*
X166276320Y-101238998D01*
X166166006Y-101297963D01*
X166069315Y-101377315D01*
X165989963Y-101474006D01*
X165930998Y-101584320D01*
X165894688Y-101704018D01*
X165882428Y-101828500D01*
X156409368Y-101828500D01*
X155044445Y-100463578D01*
X155018290Y-100431708D01*
X154891145Y-100327363D01*
X154746086Y-100249827D01*
X154588688Y-100202081D01*
X154466018Y-100189999D01*
X154466017Y-100189999D01*
X154424999Y-100185959D01*
X154383981Y-100189999D01*
X152513017Y-100189999D01*
X152471999Y-100185959D01*
X152430981Y-100189999D01*
X152430980Y-100189999D01*
X152308310Y-100202081D01*
X152150912Y-100249827D01*
X152005853Y-100327363D01*
X151878708Y-100431708D01*
X151852562Y-100463567D01*
X151535001Y-100781129D01*
X151535001Y-98806712D01*
X151972893Y-98806712D01*
X152080726Y-99081338D01*
X152387384Y-99232216D01*
X152717585Y-99320369D01*
X153058639Y-99342409D01*
X153397439Y-99297489D01*
X153720966Y-99187336D01*
X153919274Y-99081338D01*
X154027107Y-98806712D01*
X153000000Y-97779605D01*
X151972893Y-98806712D01*
X151535001Y-98806712D01*
X151535001Y-98525690D01*
X151793288Y-98627107D01*
X152820395Y-97600000D01*
X153179605Y-97600000D01*
X154206712Y-98627107D01*
X154481338Y-98519274D01*
X154632216Y-98212616D01*
X154720369Y-97882415D01*
X154742409Y-97541361D01*
X154697489Y-97202561D01*
X154587336Y-96879034D01*
X154481338Y-96680726D01*
X154206712Y-96572893D01*
X153179605Y-97600000D01*
X152820395Y-97600000D01*
X151793288Y-96572893D01*
X151535001Y-96674310D01*
X151535001Y-96393288D01*
X151972893Y-96393288D01*
X153000000Y-97420395D01*
X154027107Y-96393288D01*
X153919274Y-96118662D01*
X153612616Y-95967784D01*
X153282415Y-95879631D01*
X152941361Y-95857591D01*
X152602561Y-95902511D01*
X152279034Y-96012664D01*
X152080726Y-96118662D01*
X151972893Y-96393288D01*
X151535001Y-96393288D01*
X151535001Y-92045866D01*
X156361432Y-87219437D01*
X156393291Y-87193291D01*
X156420218Y-87160481D01*
X156497636Y-87066146D01*
X156575172Y-86921087D01*
X156596543Y-86850637D01*
X156622918Y-86763689D01*
X156635000Y-86641019D01*
X156635000Y-86641018D01*
X156639040Y-86600000D01*
X156635000Y-86558982D01*
X156635000Y-85464322D01*
X162440080Y-91269403D01*
G36*
X173928120Y-110723040D02*
G01*
X173948120Y-110723040D01*
X173948120Y-110815091D01*
X173654120Y-110815091D01*
X173654120Y-110723040D01*
X173674120Y-110723040D01*
X173674120Y-110703040D01*
X173928120Y-110703040D01*
X173928120Y-110723040D01*
X173928120Y-110723040D01*
G37*
X173928120Y-110723040D02*
X173948120Y-110723040D01*
X173948120Y-110815091D01*
X173654120Y-110815091D01*
X173654120Y-110723040D01*
X173674120Y-110723040D01*
X173674120Y-110703040D01*
X173928120Y-110703040D01*
X173928120Y-110723040D01*
G36*
X174813936Y-101351800D02*
G01*
X174893288Y-101448491D01*
X176024659Y-102579862D01*
X176121350Y-102659214D01*
X176231664Y-102718179D01*
X176351362Y-102754489D01*
X176475844Y-102766749D01*
X176550228Y-102759423D01*
X176550229Y-105948030D01*
X176454494Y-105869463D01*
X176344180Y-105810498D01*
X176224482Y-105774188D01*
X176100000Y-105761928D01*
X173900000Y-105761928D01*
X173775518Y-105774188D01*
X173655820Y-105810498D01*
X173545506Y-105869463D01*
X173448815Y-105948815D01*
X173369463Y-106045506D01*
X173310498Y-106155820D01*
X173274188Y-106275518D01*
X173261928Y-106400000D01*
X173261928Y-107938125D01*
X168893852Y-103570050D01*
X168923680Y-103561002D01*
X169033994Y-103502037D01*
X169130685Y-103422685D01*
X169210037Y-103325994D01*
X169258675Y-103235000D01*
X171284465Y-103235000D01*
X171325483Y-103239040D01*
X171366501Y-103235000D01*
X171366502Y-103235000D01*
X171489172Y-103222918D01*
X171646570Y-103175172D01*
X171791629Y-103097636D01*
X171918774Y-102993291D01*
X171944929Y-102961421D01*
X172501902Y-102404448D01*
X172566958Y-102469504D01*
X172679210Y-102357252D01*
X172679210Y-102581756D01*
X172771029Y-102660125D01*
X172881494Y-102718805D01*
X173001285Y-102754808D01*
X173125798Y-102766747D01*
X173250248Y-102754167D01*
X173369852Y-102717549D01*
X173480014Y-102658301D01*
X173576501Y-102578700D01*
X173936799Y-102214060D01*
X173936799Y-101989554D01*
X173491852Y-101544607D01*
X173477710Y-101558750D01*
X173471396Y-101552436D01*
X173679286Y-101344546D01*
X173685600Y-101350860D01*
X173671457Y-101365002D01*
X174116404Y-101809949D01*
X174340910Y-101809949D01*
X174705550Y-101449651D01*
X174785151Y-101353164D01*
X174799954Y-101325641D01*
X174813936Y-101351800D01*
X174813936Y-101351800D01*
G37*
X174813936Y-101351800D02*
X174893288Y-101448491D01*
X176024659Y-102579862D01*
X176121350Y-102659214D01*
X176231664Y-102718179D01*
X176351362Y-102754489D01*
X176475844Y-102766749D01*
X176550228Y-102759423D01*
X176550229Y-105948030D01*
X176454494Y-105869463D01*
X176344180Y-105810498D01*
X176224482Y-105774188D01*
X176100000Y-105761928D01*
X173900000Y-105761928D01*
X173775518Y-105774188D01*
X173655820Y-105810498D01*
X173545506Y-105869463D01*
X173448815Y-105948815D01*
X173369463Y-106045506D01*
X173310498Y-106155820D01*
X173274188Y-106275518D01*
X173261928Y-106400000D01*
X173261928Y-107938125D01*
X168893852Y-103570050D01*
X168923680Y-103561002D01*
X169033994Y-103502037D01*
X169130685Y-103422685D01*
X169210037Y-103325994D01*
X169258675Y-103235000D01*
X171284465Y-103235000D01*
X171325483Y-103239040D01*
X171366501Y-103235000D01*
X171366502Y-103235000D01*
X171489172Y-103222918D01*
X171646570Y-103175172D01*
X171791629Y-103097636D01*
X171918774Y-102993291D01*
X171944929Y-102961421D01*
X172501902Y-102404448D01*
X172566958Y-102469504D01*
X172679210Y-102357252D01*
X172679210Y-102581756D01*
X172771029Y-102660125D01*
X172881494Y-102718805D01*
X173001285Y-102754808D01*
X173125798Y-102766747D01*
X173250248Y-102754167D01*
X173369852Y-102717549D01*
X173480014Y-102658301D01*
X173576501Y-102578700D01*
X173936799Y-102214060D01*
X173936799Y-101989554D01*
X173491852Y-101544607D01*
X173477710Y-101558750D01*
X173471396Y-101552436D01*
X173679286Y-101344546D01*
X173685600Y-101350860D01*
X173671457Y-101365002D01*
X174116404Y-101809949D01*
X174340910Y-101809949D01*
X174705550Y-101449651D01*
X174785151Y-101353164D01*
X174799954Y-101325641D01*
X174813936Y-101351800D01*
G36*
X187840001Y-107765198D02*
G01*
X186146708Y-106071906D01*
X186200000Y-106028171D01*
X186290006Y-106102037D01*
X186400320Y-106161002D01*
X186520018Y-106197312D01*
X186644500Y-106209572D01*
X187279500Y-106209572D01*
X187403982Y-106197312D01*
X187523680Y-106161002D01*
X187633994Y-106102037D01*
X187730685Y-106022685D01*
X187810037Y-105925994D01*
X187840001Y-105869936D01*
X187840001Y-107765198D01*
X187840001Y-107765198D01*
G37*
X187840001Y-107765198D02*
X186146708Y-106071906D01*
X186200000Y-106028171D01*
X186290006Y-106102037D01*
X186400320Y-106161002D01*
X186520018Y-106197312D01*
X186644500Y-106209572D01*
X187279500Y-106209572D01*
X187403982Y-106197312D01*
X187523680Y-106161002D01*
X187633994Y-106102037D01*
X187730685Y-106022685D01*
X187810037Y-105925994D01*
X187840001Y-105869936D01*
X187840001Y-107765198D01*
G36*
X185565000Y-104873000D02*
G01*
X185585000Y-104873000D01*
X185585000Y-105127000D01*
X185565000Y-105127000D01*
X185565000Y-105147000D01*
X185311000Y-105147000D01*
X185311000Y-105127000D01*
X185291000Y-105127000D01*
X185291000Y-104873000D01*
X185311000Y-104873000D01*
X185311000Y-104853000D01*
X185565000Y-104853000D01*
X185565000Y-104873000D01*
X185565000Y-104873000D01*
G37*
X185565000Y-104873000D02*
X185585000Y-104873000D01*
X185585000Y-105127000D01*
X185565000Y-105127000D01*
X185565000Y-105147000D01*
X185311000Y-105147000D01*
X185311000Y-105127000D01*
X185291000Y-105127000D01*
X185291000Y-104873000D01*
X185311000Y-104873000D01*
X185311000Y-104853000D01*
X185565000Y-104853000D01*
X185565000Y-104873000D01*
G36*
X184494688Y-97504018D02*
G01*
X184482428Y-97628500D01*
X184482428Y-98771500D01*
X184494688Y-98895982D01*
X184530998Y-99015680D01*
X184589963Y-99125994D01*
X184669315Y-99222685D01*
X184678000Y-99229813D01*
X184678001Y-99561928D01*
X184400000Y-99561928D01*
X184275518Y-99574188D01*
X184155820Y-99610498D01*
X184045506Y-99669463D01*
X183948815Y-99748815D01*
X183869463Y-99845506D01*
X183810498Y-99955820D01*
X183784962Y-100040000D01*
X182646173Y-100040000D01*
X180899555Y-98293383D01*
X180893375Y-98230633D01*
X181001327Y-98241265D01*
X181125809Y-98229005D01*
X181162595Y-98217846D01*
X181284700Y-98217846D01*
X181358069Y-98131885D01*
X181452512Y-98054378D01*
X181833230Y-97673660D01*
X181835710Y-97673904D01*
X181873033Y-97670228D01*
X182116606Y-97670228D01*
X182153928Y-97673904D01*
X182191250Y-97670228D01*
X182191261Y-97670228D01*
X182302914Y-97659231D01*
X182446175Y-97615774D01*
X182578204Y-97545202D01*
X182677773Y-97463488D01*
X184506983Y-97463488D01*
X184494688Y-97504018D01*
X184494688Y-97504018D01*
G37*
X184494688Y-97504018D02*
X184482428Y-97628500D01*
X184482428Y-98771500D01*
X184494688Y-98895982D01*
X184530998Y-99015680D01*
X184589963Y-99125994D01*
X184669315Y-99222685D01*
X184678000Y-99229813D01*
X184678001Y-99561928D01*
X184400000Y-99561928D01*
X184275518Y-99574188D01*
X184155820Y-99610498D01*
X184045506Y-99669463D01*
X183948815Y-99748815D01*
X183869463Y-99845506D01*
X183810498Y-99955820D01*
X183784962Y-100040000D01*
X182646173Y-100040000D01*
X180899555Y-98293383D01*
X180893375Y-98230633D01*
X181001327Y-98241265D01*
X181125809Y-98229005D01*
X181162595Y-98217846D01*
X181284700Y-98217846D01*
X181358069Y-98131885D01*
X181452512Y-98054378D01*
X181833230Y-97673660D01*
X181835710Y-97673904D01*
X181873033Y-97670228D01*
X182116606Y-97670228D01*
X182153928Y-97673904D01*
X182191250Y-97670228D01*
X182191261Y-97670228D01*
X182302914Y-97659231D01*
X182446175Y-97615774D01*
X182578204Y-97545202D01*
X182677773Y-97463488D01*
X184506983Y-97463488D01*
X184494688Y-97504018D01*
G36*
X188165013Y-98439815D02*
G01*
X188165013Y-99586483D01*
X188124482Y-99574188D01*
X188000000Y-99561928D01*
X186600000Y-99561928D01*
X186475518Y-99574188D01*
X186355820Y-99610498D01*
X186245506Y-99669463D01*
X186200000Y-99706809D01*
X186198000Y-99705167D01*
X186198000Y-99229813D01*
X186200000Y-99228171D01*
X186290006Y-99302037D01*
X186400320Y-99361002D01*
X186520018Y-99397312D01*
X186644500Y-99409572D01*
X186676250Y-99406500D01*
X186835000Y-99247750D01*
X186835000Y-98327000D01*
X187089000Y-98327000D01*
X187089000Y-99247750D01*
X187247750Y-99406500D01*
X187279500Y-99409572D01*
X187403982Y-99397312D01*
X187523680Y-99361002D01*
X187633994Y-99302037D01*
X187730685Y-99222685D01*
X187810037Y-99125994D01*
X187869002Y-99015680D01*
X187905312Y-98895982D01*
X187917572Y-98771500D01*
X187914500Y-98485750D01*
X187755750Y-98327000D01*
X187089000Y-98327000D01*
X186835000Y-98327000D01*
X186815000Y-98327000D01*
X186815000Y-98073000D01*
X186835000Y-98073000D01*
X186835000Y-98053000D01*
X187089000Y-98053000D01*
X187089000Y-98073000D01*
X187755750Y-98073000D01*
X187776974Y-98051776D01*
X188165013Y-98439815D01*
X188165013Y-98439815D01*
G37*
X188165013Y-98439815D02*
X188165013Y-99586483D01*
X188124482Y-99574188D01*
X188000000Y-99561928D01*
X186600000Y-99561928D01*
X186475518Y-99574188D01*
X186355820Y-99610498D01*
X186245506Y-99669463D01*
X186200000Y-99706809D01*
X186198000Y-99705167D01*
X186198000Y-99229813D01*
X186200000Y-99228171D01*
X186290006Y-99302037D01*
X186400320Y-99361002D01*
X186520018Y-99397312D01*
X186644500Y-99409572D01*
X186676250Y-99406500D01*
X186835000Y-99247750D01*
X186835000Y-98327000D01*
X187089000Y-98327000D01*
X187089000Y-99247750D01*
X187247750Y-99406500D01*
X187279500Y-99409572D01*
X187403982Y-99397312D01*
X187523680Y-99361002D01*
X187633994Y-99302037D01*
X187730685Y-99222685D01*
X187810037Y-99125994D01*
X187869002Y-99015680D01*
X187905312Y-98895982D01*
X187917572Y-98771500D01*
X187914500Y-98485750D01*
X187755750Y-98327000D01*
X187089000Y-98327000D01*
X186835000Y-98327000D01*
X186815000Y-98327000D01*
X186815000Y-98073000D01*
X186835000Y-98073000D01*
X186835000Y-98053000D01*
X187089000Y-98053000D01*
X187089000Y-98073000D01*
X187755750Y-98073000D01*
X187776974Y-98051776D01*
X188165013Y-98439815D01*
G36*
X135723846Y-78401353D02*
G01*
X135697489Y-78202561D01*
X135587336Y-77879034D01*
X135481338Y-77680726D01*
X135206712Y-77572893D01*
X134179605Y-78600000D01*
X134193748Y-78614143D01*
X134014143Y-78793748D01*
X134000000Y-78779605D01*
X132972893Y-79806712D01*
X133080726Y-80081338D01*
X133387384Y-80232216D01*
X133603744Y-80289977D01*
X132987346Y-80289977D01*
X132950023Y-80286301D01*
X132912700Y-80289977D01*
X132912690Y-80289977D01*
X132801037Y-80300974D01*
X132657776Y-80344431D01*
X132525747Y-80415003D01*
X132410022Y-80509976D01*
X132386224Y-80538974D01*
X119289003Y-93636196D01*
X119259999Y-93659999D01*
X119224112Y-93703728D01*
X119165026Y-93775724D01*
X119094455Y-93907753D01*
X119094454Y-93907754D01*
X119050997Y-94051015D01*
X119040000Y-94162668D01*
X119040000Y-94162678D01*
X119036324Y-94200000D01*
X119040000Y-94237323D01*
X119040001Y-97241338D01*
X119040000Y-97241348D01*
X119040000Y-97836852D01*
X118978169Y-97862463D01*
X118734999Y-98024944D01*
X118734999Y-86935281D01*
X118736010Y-86934270D01*
X118765013Y-86910468D01*
X118859986Y-86794743D01*
X118930558Y-86662714D01*
X118974015Y-86519453D01*
X118985012Y-86407800D01*
X118985012Y-86407792D01*
X118988688Y-86370467D01*
X118985012Y-86333142D01*
X118985012Y-84916858D01*
X118988688Y-84879533D01*
X118985012Y-84842208D01*
X118985012Y-84842200D01*
X118974015Y-84730547D01*
X118930558Y-84587286D01*
X118859986Y-84455257D01*
X118765013Y-84339532D01*
X118736009Y-84315729D01*
X118734999Y-84314719D01*
X118734999Y-81775056D01*
X118978169Y-81937537D01*
X119293919Y-82068325D01*
X119629117Y-82135000D01*
X119970883Y-82135000D01*
X120306081Y-82068325D01*
X120621831Y-81937537D01*
X120905998Y-81747663D01*
X121147663Y-81505998D01*
X121337537Y-81221831D01*
X121468325Y-80906081D01*
X121535000Y-80570883D01*
X121535000Y-80229117D01*
X121468325Y-79893919D01*
X121337537Y-79578169D01*
X121147663Y-79294002D01*
X120905998Y-79052337D01*
X120621831Y-78862463D01*
X120615119Y-78859683D01*
X120816163Y-78658639D01*
X132257591Y-78658639D01*
X132302511Y-78997439D01*
X132412664Y-79320966D01*
X132518662Y-79519274D01*
X132793288Y-79627107D01*
X133820395Y-78600000D01*
X132793288Y-77572893D01*
X132518662Y-77680726D01*
X132367784Y-77987384D01*
X132279631Y-78317585D01*
X132257591Y-78658639D01*
X120816163Y-78658639D01*
X122081514Y-77393288D01*
X132972893Y-77393288D01*
X134000000Y-78420395D01*
X135027107Y-77393288D01*
X134919274Y-77118662D01*
X134612616Y-76967784D01*
X134282415Y-76879631D01*
X133941361Y-76857591D01*
X133602561Y-76902511D01*
X133279034Y-77012664D01*
X133080726Y-77118662D01*
X132972893Y-77393288D01*
X122081514Y-77393288D01*
X122914802Y-76560000D01*
X137565198Y-76560000D01*
X135723846Y-78401353D01*
X135723846Y-78401353D01*
G37*
X135723846Y-78401353D02*
X135697489Y-78202561D01*
X135587336Y-77879034D01*
X135481338Y-77680726D01*
X135206712Y-77572893D01*
X134179605Y-78600000D01*
X134193748Y-78614143D01*
X134014143Y-78793748D01*
X134000000Y-78779605D01*
X132972893Y-79806712D01*
X133080726Y-80081338D01*
X133387384Y-80232216D01*
X133603744Y-80289977D01*
X132987346Y-80289977D01*
X132950023Y-80286301D01*
X132912700Y-80289977D01*
X132912690Y-80289977D01*
X132801037Y-80300974D01*
X132657776Y-80344431D01*
X132525747Y-80415003D01*
X132410022Y-80509976D01*
X132386224Y-80538974D01*
X119289003Y-93636196D01*
X119259999Y-93659999D01*
X119224112Y-93703728D01*
X119165026Y-93775724D01*
X119094455Y-93907753D01*
X119094454Y-93907754D01*
X119050997Y-94051015D01*
X119040000Y-94162668D01*
X119040000Y-94162678D01*
X119036324Y-94200000D01*
X119040000Y-94237323D01*
X119040001Y-97241338D01*
X119040000Y-97241348D01*
X119040000Y-97836852D01*
X118978169Y-97862463D01*
X118734999Y-98024944D01*
X118734999Y-86935281D01*
X118736010Y-86934270D01*
X118765013Y-86910468D01*
X118859986Y-86794743D01*
X118930558Y-86662714D01*
X118974015Y-86519453D01*
X118985012Y-86407800D01*
X118985012Y-86407792D01*
X118988688Y-86370467D01*
X118985012Y-86333142D01*
X118985012Y-84916858D01*
X118988688Y-84879533D01*
X118985012Y-84842208D01*
X118985012Y-84842200D01*
X118974015Y-84730547D01*
X118930558Y-84587286D01*
X118859986Y-84455257D01*
X118765013Y-84339532D01*
X118736009Y-84315729D01*
X118734999Y-84314719D01*
X118734999Y-81775056D01*
X118978169Y-81937537D01*
X119293919Y-82068325D01*
X119629117Y-82135000D01*
X119970883Y-82135000D01*
X120306081Y-82068325D01*
X120621831Y-81937537D01*
X120905998Y-81747663D01*
X121147663Y-81505998D01*
X121337537Y-81221831D01*
X121468325Y-80906081D01*
X121535000Y-80570883D01*
X121535000Y-80229117D01*
X121468325Y-79893919D01*
X121337537Y-79578169D01*
X121147663Y-79294002D01*
X120905998Y-79052337D01*
X120621831Y-78862463D01*
X120615119Y-78859683D01*
X120816163Y-78658639D01*
X132257591Y-78658639D01*
X132302511Y-78997439D01*
X132412664Y-79320966D01*
X132518662Y-79519274D01*
X132793288Y-79627107D01*
X133820395Y-78600000D01*
X132793288Y-77572893D01*
X132518662Y-77680726D01*
X132367784Y-77987384D01*
X132279631Y-78317585D01*
X132257591Y-78658639D01*
X120816163Y-78658639D01*
X122081514Y-77393288D01*
X132972893Y-77393288D01*
X134000000Y-78420395D01*
X135027107Y-77393288D01*
X134919274Y-77118662D01*
X134612616Y-76967784D01*
X134282415Y-76879631D01*
X133941361Y-76857591D01*
X133602561Y-76902511D01*
X133279034Y-77012664D01*
X133080726Y-77118662D01*
X132972893Y-77393288D01*
X122081514Y-77393288D01*
X122914802Y-76560000D01*
X137565198Y-76560000D01*
X135723846Y-78401353D01*
G36*
X173851061Y-89105186D02*
G01*
X173916117Y-89040130D01*
X174602428Y-89726443D01*
X174602427Y-91602295D01*
X174598387Y-91643314D01*
X174602427Y-91684332D01*
X174614509Y-91807002D01*
X174662255Y-91964400D01*
X174739791Y-92109459D01*
X174844136Y-92236605D01*
X174876006Y-92262760D01*
X177178245Y-94565000D01*
X170489014Y-94565000D01*
X169440131Y-93516117D01*
X169505186Y-93451061D01*
X169408976Y-93354851D01*
X169458547Y-93349969D01*
X169495337Y-93338809D01*
X169617438Y-93338809D01*
X169690804Y-93252851D01*
X169785250Y-93175342D01*
X170181229Y-92779363D01*
X170257727Y-92686150D01*
X170350935Y-92609656D01*
X170746914Y-92213677D01*
X170823408Y-92120469D01*
X170916621Y-92043971D01*
X171312600Y-91647992D01*
X171389098Y-91554779D01*
X171482306Y-91478285D01*
X171878285Y-91082306D01*
X171954779Y-90989098D01*
X172047992Y-90912600D01*
X172443971Y-90516621D01*
X172520469Y-90423408D01*
X172613677Y-90346914D01*
X173009656Y-89950935D01*
X173086150Y-89857727D01*
X173179363Y-89781229D01*
X173575342Y-89385250D01*
X173652851Y-89290804D01*
X173738809Y-89217438D01*
X173738809Y-89095337D01*
X173749969Y-89058547D01*
X173754851Y-89008976D01*
X173851061Y-89105186D01*
X173851061Y-89105186D01*
G37*
X173851061Y-89105186D02*
X173916117Y-89040130D01*
X174602428Y-89726443D01*
X174602427Y-91602295D01*
X174598387Y-91643314D01*
X174602427Y-91684332D01*
X174614509Y-91807002D01*
X174662255Y-91964400D01*
X174739791Y-92109459D01*
X174844136Y-92236605D01*
X174876006Y-92262760D01*
X177178245Y-94565000D01*
X170489014Y-94565000D01*
X169440131Y-93516117D01*
X169505186Y-93451061D01*
X169408976Y-93354851D01*
X169458547Y-93349969D01*
X169495337Y-93338809D01*
X169617438Y-93338809D01*
X169690804Y-93252851D01*
X169785250Y-93175342D01*
X170181229Y-92779363D01*
X170257727Y-92686150D01*
X170350935Y-92609656D01*
X170746914Y-92213677D01*
X170823408Y-92120469D01*
X170916621Y-92043971D01*
X171312600Y-91647992D01*
X171389098Y-91554779D01*
X171482306Y-91478285D01*
X171878285Y-91082306D01*
X171954779Y-90989098D01*
X172047992Y-90912600D01*
X172443971Y-90516621D01*
X172520469Y-90423408D01*
X172613677Y-90346914D01*
X173009656Y-89950935D01*
X173086150Y-89857727D01*
X173179363Y-89781229D01*
X173575342Y-89385250D01*
X173652851Y-89290804D01*
X173738809Y-89217438D01*
X173738809Y-89095337D01*
X173749969Y-89058547D01*
X173754851Y-89008976D01*
X173851061Y-89105186D01*
G36*
X151972893Y-77393288D02*
G01*
X153000000Y-78420395D01*
X153014143Y-78406253D01*
X153193748Y-78585858D01*
X153179605Y-78600000D01*
X153193748Y-78614143D01*
X153014143Y-78793748D01*
X153000000Y-78779605D01*
X152985858Y-78793748D01*
X152806253Y-78614143D01*
X152820395Y-78600000D01*
X151793288Y-77572893D01*
X151518662Y-77680726D01*
X151367784Y-77987384D01*
X151279631Y-78317585D01*
X151257591Y-78658639D01*
X151302511Y-78997439D01*
X151412664Y-79320966D01*
X151518662Y-79519274D01*
X151793286Y-79627106D01*
X151780392Y-79640000D01*
X140363148Y-79640000D01*
X140337537Y-79578169D01*
X140147663Y-79294002D01*
X139905998Y-79052337D01*
X139621831Y-78862463D01*
X139306081Y-78731675D01*
X138970883Y-78665000D01*
X138629117Y-78665000D01*
X138293919Y-78731675D01*
X137978169Y-78862463D01*
X137694002Y-79052337D01*
X137452337Y-79294002D01*
X137262463Y-79578169D01*
X137131675Y-79893919D01*
X137065000Y-80229117D01*
X137065000Y-80570883D01*
X137131675Y-80906081D01*
X137262463Y-81221831D01*
X137452337Y-81505998D01*
X137694002Y-81747663D01*
X137978169Y-81937537D01*
X138293919Y-82068325D01*
X138629117Y-82135000D01*
X138970883Y-82135000D01*
X139306081Y-82068325D01*
X139621831Y-81937537D01*
X139905998Y-81747663D01*
X140147663Y-81505998D01*
X140337537Y-81221831D01*
X140363148Y-81160000D01*
X150765198Y-81160000D01*
X138288998Y-93636201D01*
X138260000Y-93659999D01*
X138236202Y-93688997D01*
X138236201Y-93688998D01*
X138165026Y-93775724D01*
X138160000Y-93785127D01*
X138160000Y-84237333D01*
X138163677Y-84200000D01*
X138149003Y-84051014D01*
X138105546Y-83907753D01*
X138034974Y-83775724D01*
X137964860Y-83690290D01*
X137940001Y-83659999D01*
X137911003Y-83636201D01*
X135274801Y-81000000D01*
X139114802Y-77160000D01*
X152064494Y-77160000D01*
X151972893Y-77393288D01*
X151972893Y-77393288D01*
G37*
X151972893Y-77393288D02*
X153000000Y-78420395D01*
X153014143Y-78406253D01*
X153193748Y-78585858D01*
X153179605Y-78600000D01*
X153193748Y-78614143D01*
X153014143Y-78793748D01*
X153000000Y-78779605D01*
X152985858Y-78793748D01*
X152806253Y-78614143D01*
X152820395Y-78600000D01*
X151793288Y-77572893D01*
X151518662Y-77680726D01*
X151367784Y-77987384D01*
X151279631Y-78317585D01*
X151257591Y-78658639D01*
X151302511Y-78997439D01*
X151412664Y-79320966D01*
X151518662Y-79519274D01*
X151793286Y-79627106D01*
X151780392Y-79640000D01*
X140363148Y-79640000D01*
X140337537Y-79578169D01*
X140147663Y-79294002D01*
X139905998Y-79052337D01*
X139621831Y-78862463D01*
X139306081Y-78731675D01*
X138970883Y-78665000D01*
X138629117Y-78665000D01*
X138293919Y-78731675D01*
X137978169Y-78862463D01*
X137694002Y-79052337D01*
X137452337Y-79294002D01*
X137262463Y-79578169D01*
X137131675Y-79893919D01*
X137065000Y-80229117D01*
X137065000Y-80570883D01*
X137131675Y-80906081D01*
X137262463Y-81221831D01*
X137452337Y-81505998D01*
X137694002Y-81747663D01*
X137978169Y-81937537D01*
X138293919Y-82068325D01*
X138629117Y-82135000D01*
X138970883Y-82135000D01*
X139306081Y-82068325D01*
X139621831Y-81937537D01*
X139905998Y-81747663D01*
X140147663Y-81505998D01*
X140337537Y-81221831D01*
X140363148Y-81160000D01*
X150765198Y-81160000D01*
X138288998Y-93636201D01*
X138260000Y-93659999D01*
X138236202Y-93688997D01*
X138236201Y-93688998D01*
X138165026Y-93775724D01*
X138160000Y-93785127D01*
X138160000Y-84237333D01*
X138163677Y-84200000D01*
X138149003Y-84051014D01*
X138105546Y-83907753D01*
X138034974Y-83775724D01*
X137964860Y-83690290D01*
X137940001Y-83659999D01*
X137911003Y-83636201D01*
X135274801Y-81000000D01*
X139114802Y-77160000D01*
X152064494Y-77160000D01*
X151972893Y-77393288D01*
G36*
X189249899Y-70737907D02*
G01*
X189490285Y-70810484D01*
X189711991Y-70928368D01*
X189906577Y-71087068D01*
X190066635Y-71280545D01*
X190186064Y-71501424D01*
X190260317Y-71741297D01*
X190290000Y-72023716D01*
X190290000Y-80523698D01*
X190106616Y-80340314D01*
X190129037Y-80312994D01*
X190188002Y-80202680D01*
X190224312Y-80082982D01*
X190236572Y-79958500D01*
X190236572Y-78561500D01*
X190224312Y-78437018D01*
X190188002Y-78317320D01*
X190129037Y-78207006D01*
X190049685Y-78110315D01*
X189952994Y-78030963D01*
X189842680Y-77971998D01*
X189722982Y-77935688D01*
X189598500Y-77923428D01*
X188201500Y-77923428D01*
X188077018Y-77935688D01*
X187957320Y-77971998D01*
X187847006Y-78030963D01*
X187750315Y-78110315D01*
X187670963Y-78207006D01*
X187611998Y-78317320D01*
X187575688Y-78437018D01*
X187563428Y-78561500D01*
X187563428Y-78680730D01*
X187541732Y-78628351D01*
X187395797Y-78409943D01*
X187210057Y-78224203D01*
X186991649Y-78078268D01*
X186748968Y-77977746D01*
X186491338Y-77926500D01*
X186228662Y-77926500D01*
X185971032Y-77977746D01*
X185728351Y-78078268D01*
X185509943Y-78224203D01*
X185324203Y-78409943D01*
X185178268Y-78628351D01*
X185077746Y-78871032D01*
X185026500Y-79128662D01*
X185026500Y-79391338D01*
X185077746Y-79648968D01*
X185178268Y-79891649D01*
X185324203Y-80110057D01*
X185509943Y-80295797D01*
X185728351Y-80441732D01*
X185941448Y-80530000D01*
X185728351Y-80618268D01*
X185509943Y-80764203D01*
X185324203Y-80949943D01*
X185178268Y-81168351D01*
X185077746Y-81411032D01*
X185026500Y-81668662D01*
X185026500Y-81931338D01*
X185077746Y-82188968D01*
X185178268Y-82431649D01*
X185324203Y-82650057D01*
X185509943Y-82835797D01*
X185728351Y-82981732D01*
X185945570Y-83071707D01*
X185779158Y-83132486D01*
X185678686Y-83186188D01*
X185619408Y-83419803D01*
X186360000Y-84160395D01*
X186374143Y-84146253D01*
X186553748Y-84325858D01*
X186539605Y-84340000D01*
X186553748Y-84354143D01*
X186374143Y-84533748D01*
X186360000Y-84519605D01*
X185619408Y-85260197D01*
X185678686Y-85493812D01*
X185915425Y-85603885D01*
X184840398Y-86678913D01*
X184786057Y-86733254D01*
X184786053Y-86733257D01*
X181113101Y-90406210D01*
X180886827Y-90179936D01*
X180793614Y-90103438D01*
X180717120Y-90010230D01*
X180490846Y-89783956D01*
X181952802Y-88322000D01*
X182216678Y-88322000D01*
X182254000Y-88325676D01*
X182291322Y-88322000D01*
X182291333Y-88322000D01*
X182402986Y-88311003D01*
X182546247Y-88267546D01*
X182678276Y-88196974D01*
X182794001Y-88102001D01*
X182817803Y-88072998D01*
X183281230Y-87609572D01*
X183479500Y-87609572D01*
X183603982Y-87597312D01*
X183723680Y-87561002D01*
X183833994Y-87502037D01*
X183930685Y-87422685D01*
X184010037Y-87325994D01*
X184069002Y-87215680D01*
X184105312Y-87095982D01*
X184117572Y-86971500D01*
X184117572Y-85828500D01*
X184105312Y-85704018D01*
X184069002Y-85584320D01*
X184010037Y-85474006D01*
X183930685Y-85377315D01*
X183833994Y-85297963D01*
X183723680Y-85238998D01*
X183603982Y-85202688D01*
X183479500Y-85190428D01*
X182844500Y-85190428D01*
X182720018Y-85202688D01*
X182600320Y-85238998D01*
X182490006Y-85297963D01*
X182400000Y-85371829D01*
X182319875Y-85306072D01*
X182349365Y-85208857D01*
X182360000Y-85100877D01*
X182360000Y-85100868D01*
X182363555Y-85064773D01*
X182360000Y-85028678D01*
X182360000Y-84414533D01*
X185022124Y-84414533D01*
X185062371Y-84674107D01*
X185152486Y-84920842D01*
X185206188Y-85021314D01*
X185439803Y-85080592D01*
X186180395Y-84340000D01*
X185439803Y-83599408D01*
X185206188Y-83658686D01*
X185095441Y-83896875D01*
X185033289Y-84152093D01*
X185022124Y-84414533D01*
X182360000Y-84414533D01*
X182360000Y-83498697D01*
X183094193Y-82764505D01*
X183122238Y-82741489D01*
X183214087Y-82629571D01*
X183282337Y-82501884D01*
X183324365Y-82363336D01*
X183331130Y-82294650D01*
X183415680Y-82269002D01*
X183525994Y-82210037D01*
X183622685Y-82130685D01*
X183702037Y-82033994D01*
X183761002Y-81923680D01*
X183797312Y-81803982D01*
X183809572Y-81679500D01*
X183809572Y-81044500D01*
X183797312Y-80920018D01*
X183761002Y-80800320D01*
X183702037Y-80690006D01*
X183628171Y-80600000D01*
X183702037Y-80509994D01*
X183761002Y-80399680D01*
X183797312Y-80279982D01*
X183809572Y-80155500D01*
X183809572Y-79520500D01*
X183797312Y-79396018D01*
X183761002Y-79276320D01*
X183702037Y-79166006D01*
X183622685Y-79069315D01*
X183525994Y-78989963D01*
X183415680Y-78930998D01*
X183295982Y-78894688D01*
X183171500Y-78882428D01*
X182683875Y-78882428D01*
X181063455Y-77262009D01*
X181063451Y-77262004D01*
X180702939Y-76901492D01*
X180791646Y-76863715D01*
X181024895Y-76704500D01*
X181222601Y-76502839D01*
X181377166Y-76266483D01*
X181482650Y-76004514D01*
X181535000Y-75727000D01*
X181535000Y-75427000D01*
X180227000Y-75427000D01*
X180227000Y-75447000D01*
X179973000Y-75447000D01*
X179973000Y-75427000D01*
X179953000Y-75427000D01*
X179953000Y-75173000D01*
X179973000Y-75173000D01*
X179973000Y-73730085D01*
X180227000Y-73730085D01*
X180227000Y-75173000D01*
X181535000Y-75173000D01*
X181535000Y-74873000D01*
X181482650Y-74595486D01*
X181377166Y-74333517D01*
X181222601Y-74097161D01*
X181024895Y-73895500D01*
X180855472Y-73779852D01*
X184764800Y-73779852D01*
X184764800Y-74220148D01*
X184850698Y-74651984D01*
X185019192Y-75058764D01*
X185263807Y-75424857D01*
X185575143Y-75736193D01*
X185941236Y-75980808D01*
X186348016Y-76149302D01*
X186779852Y-76235200D01*
X187220148Y-76235200D01*
X187651984Y-76149302D01*
X188058764Y-75980808D01*
X188424857Y-75736193D01*
X188736193Y-75424857D01*
X188980808Y-75058764D01*
X189149302Y-74651984D01*
X189235200Y-74220148D01*
X189235200Y-73779852D01*
X189149302Y-73348016D01*
X188980808Y-72941236D01*
X188736193Y-72575143D01*
X188424857Y-72263807D01*
X188058764Y-72019192D01*
X187651984Y-71850698D01*
X187220148Y-71764800D01*
X186779852Y-71764800D01*
X186348016Y-71850698D01*
X185941236Y-72019192D01*
X185575143Y-72263807D01*
X185263807Y-72575143D01*
X185019192Y-72941236D01*
X184850698Y-73348016D01*
X184764800Y-73779852D01*
X180855472Y-73779852D01*
X180791646Y-73736285D01*
X180531818Y-73625633D01*
X180449039Y-73608096D01*
X180227000Y-73730085D01*
X179973000Y-73730085D01*
X179750961Y-73608096D01*
X179668182Y-73625633D01*
X179410000Y-73735584D01*
X179410000Y-73164416D01*
X179668182Y-73274367D01*
X179750961Y-73291904D01*
X179973000Y-73169915D01*
X179973000Y-71727000D01*
X180227000Y-71727000D01*
X180227000Y-73169915D01*
X180449039Y-73291904D01*
X180531818Y-73274367D01*
X180791646Y-73163715D01*
X181024895Y-73004500D01*
X181222601Y-72802839D01*
X181377166Y-72566483D01*
X181482650Y-72304514D01*
X181535000Y-72027000D01*
X181535000Y-71727000D01*
X180227000Y-71727000D01*
X179973000Y-71727000D01*
X179953000Y-71727000D01*
X179953000Y-71473000D01*
X179973000Y-71473000D01*
X179973000Y-71453000D01*
X180227000Y-71453000D01*
X180227000Y-71473000D01*
X181535000Y-71473000D01*
X181535000Y-71173000D01*
X181482650Y-70895486D01*
X181407963Y-70710000D01*
X188965279Y-70710000D01*
X189249899Y-70737907D01*
X189249899Y-70737907D01*
G37*
X189249899Y-70737907D02*
X189490285Y-70810484D01*
X189711991Y-70928368D01*
X189906577Y-71087068D01*
X190066635Y-71280545D01*
X190186064Y-71501424D01*
X190260317Y-71741297D01*
X190290000Y-72023716D01*
X190290000Y-80523698D01*
X190106616Y-80340314D01*
X190129037Y-80312994D01*
X190188002Y-80202680D01*
X190224312Y-80082982D01*
X190236572Y-79958500D01*
X190236572Y-78561500D01*
X190224312Y-78437018D01*
X190188002Y-78317320D01*
X190129037Y-78207006D01*
X190049685Y-78110315D01*
X189952994Y-78030963D01*
X189842680Y-77971998D01*
X189722982Y-77935688D01*
X189598500Y-77923428D01*
X188201500Y-77923428D01*
X188077018Y-77935688D01*
X187957320Y-77971998D01*
X187847006Y-78030963D01*
X187750315Y-78110315D01*
X187670963Y-78207006D01*
X187611998Y-78317320D01*
X187575688Y-78437018D01*
X187563428Y-78561500D01*
X187563428Y-78680730D01*
X187541732Y-78628351D01*
X187395797Y-78409943D01*
X187210057Y-78224203D01*
X186991649Y-78078268D01*
X186748968Y-77977746D01*
X186491338Y-77926500D01*
X186228662Y-77926500D01*
X185971032Y-77977746D01*
X185728351Y-78078268D01*
X185509943Y-78224203D01*
X185324203Y-78409943D01*
X185178268Y-78628351D01*
X185077746Y-78871032D01*
X185026500Y-79128662D01*
X185026500Y-79391338D01*
X185077746Y-79648968D01*
X185178268Y-79891649D01*
X185324203Y-80110057D01*
X185509943Y-80295797D01*
X185728351Y-80441732D01*
X185941448Y-80530000D01*
X185728351Y-80618268D01*
X185509943Y-80764203D01*
X185324203Y-80949943D01*
X185178268Y-81168351D01*
X185077746Y-81411032D01*
X185026500Y-81668662D01*
X185026500Y-81931338D01*
X185077746Y-82188968D01*
X185178268Y-82431649D01*
X185324203Y-82650057D01*
X185509943Y-82835797D01*
X185728351Y-82981732D01*
X185945570Y-83071707D01*
X185779158Y-83132486D01*
X185678686Y-83186188D01*
X185619408Y-83419803D01*
X186360000Y-84160395D01*
X186374143Y-84146253D01*
X186553748Y-84325858D01*
X186539605Y-84340000D01*
X186553748Y-84354143D01*
X186374143Y-84533748D01*
X186360000Y-84519605D01*
X185619408Y-85260197D01*
X185678686Y-85493812D01*
X185915425Y-85603885D01*
X184840398Y-86678913D01*
X184786057Y-86733254D01*
X184786053Y-86733257D01*
X181113101Y-90406210D01*
X180886827Y-90179936D01*
X180793614Y-90103438D01*
X180717120Y-90010230D01*
X180490846Y-89783956D01*
X181952802Y-88322000D01*
X182216678Y-88322000D01*
X182254000Y-88325676D01*
X182291322Y-88322000D01*
X182291333Y-88322000D01*
X182402986Y-88311003D01*
X182546247Y-88267546D01*
X182678276Y-88196974D01*
X182794001Y-88102001D01*
X182817803Y-88072998D01*
X183281230Y-87609572D01*
X183479500Y-87609572D01*
X183603982Y-87597312D01*
X183723680Y-87561002D01*
X183833994Y-87502037D01*
X183930685Y-87422685D01*
X184010037Y-87325994D01*
X184069002Y-87215680D01*
X184105312Y-87095982D01*
X184117572Y-86971500D01*
X184117572Y-85828500D01*
X184105312Y-85704018D01*
X184069002Y-85584320D01*
X184010037Y-85474006D01*
X183930685Y-85377315D01*
X183833994Y-85297963D01*
X183723680Y-85238998D01*
X183603982Y-85202688D01*
X183479500Y-85190428D01*
X182844500Y-85190428D01*
X182720018Y-85202688D01*
X182600320Y-85238998D01*
X182490006Y-85297963D01*
X182400000Y-85371829D01*
X182319875Y-85306072D01*
X182349365Y-85208857D01*
X182360000Y-85100877D01*
X182360000Y-85100868D01*
X182363555Y-85064773D01*
X182360000Y-85028678D01*
X182360000Y-84414533D01*
X185022124Y-84414533D01*
X185062371Y-84674107D01*
X185152486Y-84920842D01*
X185206188Y-85021314D01*
X185439803Y-85080592D01*
X186180395Y-84340000D01*
X185439803Y-83599408D01*
X185206188Y-83658686D01*
X185095441Y-83896875D01*
X185033289Y-84152093D01*
X185022124Y-84414533D01*
X182360000Y-84414533D01*
X182360000Y-83498697D01*
X183094193Y-82764505D01*
X183122238Y-82741489D01*
X183214087Y-82629571D01*
X183282337Y-82501884D01*
X183324365Y-82363336D01*
X183331130Y-82294650D01*
X183415680Y-82269002D01*
X183525994Y-82210037D01*
X183622685Y-82130685D01*
X183702037Y-82033994D01*
X183761002Y-81923680D01*
X183797312Y-81803982D01*
X183809572Y-81679500D01*
X183809572Y-81044500D01*
X183797312Y-80920018D01*
X183761002Y-80800320D01*
X183702037Y-80690006D01*
X183628171Y-80600000D01*
X183702037Y-80509994D01*
X183761002Y-80399680D01*
X183797312Y-80279982D01*
X183809572Y-80155500D01*
X183809572Y-79520500D01*
X183797312Y-79396018D01*
X183761002Y-79276320D01*
X183702037Y-79166006D01*
X183622685Y-79069315D01*
X183525994Y-78989963D01*
X183415680Y-78930998D01*
X183295982Y-78894688D01*
X183171500Y-78882428D01*
X182683875Y-78882428D01*
X181063455Y-77262009D01*
X181063451Y-77262004D01*
X180702939Y-76901492D01*
X180791646Y-76863715D01*
X181024895Y-76704500D01*
X181222601Y-76502839D01*
X181377166Y-76266483D01*
X181482650Y-76004514D01*
X181535000Y-75727000D01*
X181535000Y-75427000D01*
X180227000Y-75427000D01*
X180227000Y-75447000D01*
X179973000Y-75447000D01*
X179973000Y-75427000D01*
X179953000Y-75427000D01*
X179953000Y-75173000D01*
X179973000Y-75173000D01*
X179973000Y-73730085D01*
X180227000Y-73730085D01*
X180227000Y-75173000D01*
X181535000Y-75173000D01*
X181535000Y-74873000D01*
X181482650Y-74595486D01*
X181377166Y-74333517D01*
X181222601Y-74097161D01*
X181024895Y-73895500D01*
X180855472Y-73779852D01*
X184764800Y-73779852D01*
X184764800Y-74220148D01*
X184850698Y-74651984D01*
X185019192Y-75058764D01*
X185263807Y-75424857D01*
X185575143Y-75736193D01*
X185941236Y-75980808D01*
X186348016Y-76149302D01*
X186779852Y-76235200D01*
X187220148Y-76235200D01*
X187651984Y-76149302D01*
X188058764Y-75980808D01*
X188424857Y-75736193D01*
X188736193Y-75424857D01*
X188980808Y-75058764D01*
X189149302Y-74651984D01*
X189235200Y-74220148D01*
X189235200Y-73779852D01*
X189149302Y-73348016D01*
X188980808Y-72941236D01*
X188736193Y-72575143D01*
X188424857Y-72263807D01*
X188058764Y-72019192D01*
X187651984Y-71850698D01*
X187220148Y-71764800D01*
X186779852Y-71764800D01*
X186348016Y-71850698D01*
X185941236Y-72019192D01*
X185575143Y-72263807D01*
X185263807Y-72575143D01*
X185019192Y-72941236D01*
X184850698Y-73348016D01*
X184764800Y-73779852D01*
X180855472Y-73779852D01*
X180791646Y-73736285D01*
X180531818Y-73625633D01*
X180449039Y-73608096D01*
X180227000Y-73730085D01*
X179973000Y-73730085D01*
X179750961Y-73608096D01*
X179668182Y-73625633D01*
X179410000Y-73735584D01*
X179410000Y-73164416D01*
X179668182Y-73274367D01*
X179750961Y-73291904D01*
X179973000Y-73169915D01*
X179973000Y-71727000D01*
X180227000Y-71727000D01*
X180227000Y-73169915D01*
X180449039Y-73291904D01*
X180531818Y-73274367D01*
X180791646Y-73163715D01*
X181024895Y-73004500D01*
X181222601Y-72802839D01*
X181377166Y-72566483D01*
X181482650Y-72304514D01*
X181535000Y-72027000D01*
X181535000Y-71727000D01*
X180227000Y-71727000D01*
X179973000Y-71727000D01*
X179953000Y-71727000D01*
X179953000Y-71473000D01*
X179973000Y-71473000D01*
X179973000Y-71453000D01*
X180227000Y-71453000D01*
X180227000Y-71473000D01*
X181535000Y-71473000D01*
X181535000Y-71173000D01*
X181482650Y-70895486D01*
X181407963Y-70710000D01*
X188965279Y-70710000D01*
X189249899Y-70737907D01*
G36*
X163390428Y-81587296D02*
G01*
X163390428Y-81679500D01*
X163402688Y-81803982D01*
X163438998Y-81923680D01*
X163497963Y-82033994D01*
X163577315Y-82130685D01*
X163674006Y-82210037D01*
X163784320Y-82269002D01*
X163784973Y-82269200D01*
X163824828Y-82400586D01*
X163902364Y-82545645D01*
X164006709Y-82672791D01*
X164018595Y-82682545D01*
X164028349Y-82694431D01*
X164155494Y-82798776D01*
X164300553Y-82876312D01*
X164457951Y-82924058D01*
X164580621Y-82936140D01*
X164580622Y-82936140D01*
X164621640Y-82940180D01*
X164662658Y-82936140D01*
X171209160Y-82936140D01*
X171219783Y-82956014D01*
X171299135Y-83052705D01*
X171395826Y-83132057D01*
X171506140Y-83191022D01*
X171625838Y-83227332D01*
X171750320Y-83239592D01*
X172165000Y-83239592D01*
X172165001Y-86739994D01*
X172113525Y-86783930D01*
X172113525Y-86906030D01*
X172102365Y-86942820D01*
X172090105Y-87067302D01*
X172100737Y-87175254D01*
X171992786Y-87164622D01*
X171968784Y-87166986D01*
X170690800Y-85889003D01*
X170666997Y-85859999D01*
X170551272Y-85765026D01*
X170419243Y-85694454D01*
X170275982Y-85650997D01*
X170164329Y-85640000D01*
X170164318Y-85640000D01*
X170126996Y-85636324D01*
X170089674Y-85640000D01*
X169085892Y-85640000D01*
X169069002Y-85584320D01*
X169010037Y-85474006D01*
X168930685Y-85377315D01*
X168833994Y-85297963D01*
X168723680Y-85238998D01*
X168603982Y-85202688D01*
X168479500Y-85190428D01*
X167844500Y-85190428D01*
X167720018Y-85202688D01*
X167600320Y-85238998D01*
X167490006Y-85297963D01*
X167400000Y-85371829D01*
X167309994Y-85297963D01*
X167199680Y-85238998D01*
X167079982Y-85202688D01*
X166955500Y-85190428D01*
X166923750Y-85193500D01*
X166765000Y-85352250D01*
X166765000Y-86273000D01*
X166785000Y-86273000D01*
X166785000Y-86527000D01*
X166765000Y-86527000D01*
X166765000Y-86547000D01*
X166511000Y-86547000D01*
X166511000Y-86527000D01*
X165844250Y-86527000D01*
X165685500Y-86685750D01*
X165682428Y-86971500D01*
X165694688Y-87095982D01*
X165730998Y-87215680D01*
X165743998Y-87240000D01*
X163105923Y-87240000D01*
X161694423Y-85828500D01*
X165682428Y-85828500D01*
X165685500Y-86114250D01*
X165844250Y-86273000D01*
X166511000Y-86273000D01*
X166511000Y-85352250D01*
X166352250Y-85193500D01*
X166320500Y-85190428D01*
X166196018Y-85202688D01*
X166076320Y-85238998D01*
X165966006Y-85297963D01*
X165869315Y-85377315D01*
X165789963Y-85474006D01*
X165730998Y-85584320D01*
X165694688Y-85704018D01*
X165682428Y-85828500D01*
X161694423Y-85828500D01*
X157995938Y-82130016D01*
X158306081Y-82068325D01*
X158621831Y-81937537D01*
X158905998Y-81747663D01*
X159147663Y-81505998D01*
X159337537Y-81221831D01*
X159468325Y-80906081D01*
X159535000Y-80570883D01*
X159535000Y-80229117D01*
X159468325Y-79893919D01*
X159337537Y-79578169D01*
X159147663Y-79294002D01*
X158905998Y-79052337D01*
X158621831Y-78862463D01*
X158563061Y-78838120D01*
X158560000Y-78807042D01*
X158560000Y-78807033D01*
X158549003Y-78695380D01*
X158505546Y-78552119D01*
X158434974Y-78420090D01*
X158340001Y-78304365D01*
X158311004Y-78280568D01*
X155690413Y-75659978D01*
X157463111Y-75659978D01*
X163390428Y-81587296D01*
X163390428Y-81587296D01*
G37*
X163390428Y-81587296D02*
X163390428Y-81679500D01*
X163402688Y-81803982D01*
X163438998Y-81923680D01*
X163497963Y-82033994D01*
X163577315Y-82130685D01*
X163674006Y-82210037D01*
X163784320Y-82269002D01*
X163784973Y-82269200D01*
X163824828Y-82400586D01*
X163902364Y-82545645D01*
X164006709Y-82672791D01*
X164018595Y-82682545D01*
X164028349Y-82694431D01*
X164155494Y-82798776D01*
X164300553Y-82876312D01*
X164457951Y-82924058D01*
X164580621Y-82936140D01*
X164580622Y-82936140D01*
X164621640Y-82940180D01*
X164662658Y-82936140D01*
X171209160Y-82936140D01*
X171219783Y-82956014D01*
X171299135Y-83052705D01*
X171395826Y-83132057D01*
X171506140Y-83191022D01*
X171625838Y-83227332D01*
X171750320Y-83239592D01*
X172165000Y-83239592D01*
X172165001Y-86739994D01*
X172113525Y-86783930D01*
X172113525Y-86906030D01*
X172102365Y-86942820D01*
X172090105Y-87067302D01*
X172100737Y-87175254D01*
X171992786Y-87164622D01*
X171968784Y-87166986D01*
X170690800Y-85889003D01*
X170666997Y-85859999D01*
X170551272Y-85765026D01*
X170419243Y-85694454D01*
X170275982Y-85650997D01*
X170164329Y-85640000D01*
X170164318Y-85640000D01*
X170126996Y-85636324D01*
X170089674Y-85640000D01*
X169085892Y-85640000D01*
X169069002Y-85584320D01*
X169010037Y-85474006D01*
X168930685Y-85377315D01*
X168833994Y-85297963D01*
X168723680Y-85238998D01*
X168603982Y-85202688D01*
X168479500Y-85190428D01*
X167844500Y-85190428D01*
X167720018Y-85202688D01*
X167600320Y-85238998D01*
X167490006Y-85297963D01*
X167400000Y-85371829D01*
X167309994Y-85297963D01*
X167199680Y-85238998D01*
X167079982Y-85202688D01*
X166955500Y-85190428D01*
X166923750Y-85193500D01*
X166765000Y-85352250D01*
X166765000Y-86273000D01*
X166785000Y-86273000D01*
X166785000Y-86527000D01*
X166765000Y-86527000D01*
X166765000Y-86547000D01*
X166511000Y-86547000D01*
X166511000Y-86527000D01*
X165844250Y-86527000D01*
X165685500Y-86685750D01*
X165682428Y-86971500D01*
X165694688Y-87095982D01*
X165730998Y-87215680D01*
X165743998Y-87240000D01*
X163105923Y-87240000D01*
X161694423Y-85828500D01*
X165682428Y-85828500D01*
X165685500Y-86114250D01*
X165844250Y-86273000D01*
X166511000Y-86273000D01*
X166511000Y-85352250D01*
X166352250Y-85193500D01*
X166320500Y-85190428D01*
X166196018Y-85202688D01*
X166076320Y-85238998D01*
X165966006Y-85297963D01*
X165869315Y-85377315D01*
X165789963Y-85474006D01*
X165730998Y-85584320D01*
X165694688Y-85704018D01*
X165682428Y-85828500D01*
X161694423Y-85828500D01*
X157995938Y-82130016D01*
X158306081Y-82068325D01*
X158621831Y-81937537D01*
X158905998Y-81747663D01*
X159147663Y-81505998D01*
X159337537Y-81221831D01*
X159468325Y-80906081D01*
X159535000Y-80570883D01*
X159535000Y-80229117D01*
X159468325Y-79893919D01*
X159337537Y-79578169D01*
X159147663Y-79294002D01*
X158905998Y-79052337D01*
X158621831Y-78862463D01*
X158563061Y-78838120D01*
X158560000Y-78807042D01*
X158560000Y-78807033D01*
X158549003Y-78695380D01*
X158505546Y-78552119D01*
X158434974Y-78420090D01*
X158340001Y-78304365D01*
X158311004Y-78280568D01*
X155690413Y-75659978D01*
X157463111Y-75659978D01*
X163390428Y-81587296D01*
G36*
X181765000Y-86273000D02*
G01*
X181785000Y-86273000D01*
X181785000Y-86527000D01*
X181765000Y-86527000D01*
X181765000Y-86547000D01*
X181511000Y-86547000D01*
X181511000Y-86527000D01*
X181491000Y-86527000D01*
X181491000Y-86273000D01*
X181511000Y-86273000D01*
X181511000Y-86253000D01*
X181765000Y-86253000D01*
X181765000Y-86273000D01*
X181765000Y-86273000D01*
G37*
X181765000Y-86273000D02*
X181785000Y-86273000D01*
X181785000Y-86527000D01*
X181765000Y-86527000D01*
X181765000Y-86547000D01*
X181511000Y-86547000D01*
X181511000Y-86527000D01*
X181491000Y-86527000D01*
X181491000Y-86273000D01*
X181511000Y-86273000D01*
X181511000Y-86253000D01*
X181765000Y-86253000D01*
X181765000Y-86273000D01*
G36*
X174793598Y-81239417D02*
G01*
X174950996Y-81287163D01*
X175114685Y-81303285D01*
X175278373Y-81287163D01*
X175285507Y-81284999D01*
X176147000Y-81284999D01*
X176147000Y-81477000D01*
X176127000Y-81477000D01*
X176127000Y-81497000D01*
X175873000Y-81497000D01*
X175873000Y-81477000D01*
X175476266Y-81477000D01*
X175301898Y-81404774D01*
X175101939Y-81365000D01*
X174898061Y-81365000D01*
X174844941Y-81375566D01*
X174839182Y-81356580D01*
X174780217Y-81246266D01*
X174759747Y-81221323D01*
X174793598Y-81239417D01*
X174793598Y-81239417D01*
G37*
X174793598Y-81239417D02*
X174950996Y-81287163D01*
X175114685Y-81303285D01*
X175278373Y-81287163D01*
X175285507Y-81284999D01*
X176147000Y-81284999D01*
X176147000Y-81477000D01*
X176127000Y-81477000D01*
X176127000Y-81497000D01*
X175873000Y-81497000D01*
X175873000Y-81477000D01*
X175476266Y-81477000D01*
X175301898Y-81404774D01*
X175101939Y-81365000D01*
X174898061Y-81365000D01*
X174844941Y-81375566D01*
X174839182Y-81356580D01*
X174780217Y-81246266D01*
X174759747Y-81221323D01*
X174793598Y-81239417D01*
G36*
X167127000Y-81235000D02*
G01*
X167147000Y-81235000D01*
X167147000Y-81266140D01*
X166853000Y-81266140D01*
X166853000Y-81235000D01*
X166873000Y-81235000D01*
X166873000Y-81215000D01*
X167127000Y-81215000D01*
X167127000Y-81235000D01*
X167127000Y-81235000D01*
G37*
X167127000Y-81235000D02*
X167147000Y-81235000D01*
X167147000Y-81266140D01*
X166853000Y-81266140D01*
X166853000Y-81235000D01*
X166873000Y-81235000D01*
X166873000Y-81215000D01*
X167127000Y-81215000D01*
X167127000Y-81235000D01*
G36*
X169527000Y-81235000D02*
G01*
X169547000Y-81235000D01*
X169547000Y-81266140D01*
X169253000Y-81266140D01*
X169253000Y-81235000D01*
X169273000Y-81235000D01*
X169273000Y-81215000D01*
X169527000Y-81215000D01*
X169527000Y-81235000D01*
X169527000Y-81235000D01*
G37*
X169527000Y-81235000D02*
X169547000Y-81235000D01*
X169547000Y-81266140D01*
X169253000Y-81266140D01*
X169253000Y-81235000D01*
X169273000Y-81235000D01*
X169273000Y-81215000D01*
X169527000Y-81215000D01*
X169527000Y-81235000D01*
G36*
X171219783Y-79953734D02*
G01*
X171299135Y-80050425D01*
X171395826Y-80129777D01*
X171506140Y-80188742D01*
X171625838Y-80225052D01*
X171750320Y-80237312D01*
X173706885Y-80237312D01*
X174475156Y-81005584D01*
X174374162Y-80974948D01*
X174249680Y-80962688D01*
X171750320Y-80962688D01*
X171625838Y-80974948D01*
X171506140Y-81011258D01*
X171395826Y-81070223D01*
X171299135Y-81149575D01*
X171219783Y-81246266D01*
X171209160Y-81266140D01*
X170606500Y-81266140D01*
X170606500Y-81234998D01*
X170447752Y-81234998D01*
X170606500Y-81076250D01*
X170609572Y-81044500D01*
X170597312Y-80920018D01*
X170561002Y-80800320D01*
X170502037Y-80690006D01*
X170428171Y-80600000D01*
X170502037Y-80509994D01*
X170561002Y-80399680D01*
X170597312Y-80279982D01*
X170609572Y-80155500D01*
X170609572Y-79933860D01*
X171209160Y-79933860D01*
X171219783Y-79953734D01*
X171219783Y-79953734D01*
G37*
X171219783Y-79953734D02*
X171299135Y-80050425D01*
X171395826Y-80129777D01*
X171506140Y-80188742D01*
X171625838Y-80225052D01*
X171750320Y-80237312D01*
X173706885Y-80237312D01*
X174475156Y-81005584D01*
X174374162Y-80974948D01*
X174249680Y-80962688D01*
X171750320Y-80962688D01*
X171625838Y-80974948D01*
X171506140Y-81011258D01*
X171395826Y-81070223D01*
X171299135Y-81149575D01*
X171219783Y-81246266D01*
X171209160Y-81266140D01*
X170606500Y-81266140D01*
X170606500Y-81234998D01*
X170447752Y-81234998D01*
X170606500Y-81076250D01*
X170609572Y-81044500D01*
X170597312Y-80920018D01*
X170561002Y-80800320D01*
X170502037Y-80690006D01*
X170428171Y-80600000D01*
X170502037Y-80509994D01*
X170561002Y-80399680D01*
X170597312Y-80279982D01*
X170609572Y-80155500D01*
X170609572Y-79933860D01*
X171209160Y-79933860D01*
X171219783Y-79953734D01*
G36*
X165802688Y-80279982D02*
G01*
X165838998Y-80399680D01*
X165897963Y-80509994D01*
X165971829Y-80600000D01*
X165897963Y-80690006D01*
X165838998Y-80800320D01*
X165802688Y-80920018D01*
X165800000Y-80947311D01*
X165797312Y-80920018D01*
X165761002Y-80800320D01*
X165702037Y-80690006D01*
X165628171Y-80600000D01*
X165702037Y-80509994D01*
X165761002Y-80399680D01*
X165797312Y-80279982D01*
X165800000Y-80252689D01*
X165802688Y-80279982D01*
X165802688Y-80279982D01*
G37*
X165802688Y-80279982D02*
X165838998Y-80399680D01*
X165897963Y-80509994D01*
X165971829Y-80600000D01*
X165897963Y-80690006D01*
X165838998Y-80800320D01*
X165802688Y-80920018D01*
X165800000Y-80947311D01*
X165797312Y-80920018D01*
X165761002Y-80800320D01*
X165702037Y-80690006D01*
X165628171Y-80600000D01*
X165702037Y-80509994D01*
X165761002Y-80399680D01*
X165797312Y-80279982D01*
X165800000Y-80252689D01*
X165802688Y-80279982D01*
G36*
X178665000Y-75727000D02*
G01*
X178700465Y-75915002D01*
X178535194Y-75915002D01*
X178535000Y-75885750D01*
X178376250Y-75727000D01*
X177452000Y-75727000D01*
X177452000Y-75747000D01*
X177198000Y-75747000D01*
X177198000Y-75727000D01*
X176153000Y-75727000D01*
X176153000Y-75473000D01*
X177198000Y-75473000D01*
X177198000Y-75453000D01*
X177452000Y-75453000D01*
X177452000Y-75473000D01*
X178376250Y-75473000D01*
X178535000Y-75314250D01*
X178535028Y-75310000D01*
X178665000Y-75310000D01*
X178665000Y-75727000D01*
X178665000Y-75727000D01*
G37*
X178665000Y-75727000D02*
X178700465Y-75915002D01*
X178535194Y-75915002D01*
X178535000Y-75885750D01*
X178376250Y-75727000D01*
X177452000Y-75727000D01*
X177452000Y-75747000D01*
X177198000Y-75747000D01*
X177198000Y-75727000D01*
X176153000Y-75727000D01*
X176153000Y-75473000D01*
X177198000Y-75473000D01*
X177198000Y-75453000D01*
X177452000Y-75453000D01*
X177452000Y-75473000D01*
X178376250Y-75473000D01*
X178535000Y-75314250D01*
X178535028Y-75310000D01*
X178665000Y-75310000D01*
X178665000Y-75727000D01*
M02*
